<svg width="38" height="48" viewBox="0 0 38 48" fill="none" xmlns="http://www.w3.org/2000/svg">
<path d="M15.1099 34.9413C15.1213 34.677 15.5591 34.5718 15.6891 34.8024C16.2989 35.885 17.3393 37.4772 18.5196 38.201C19.7002 38.9249 21.5908 39.1302 22.8323 39.183C23.0966 39.1943 23.2016 39.6322 22.9709 39.7622C21.8884 40.3719 20.2964 41.4124 19.5726 42.5926C18.8487 43.7732 18.6434 45.6639 18.5906 46.9053C18.5793 47.1696 18.1412 47.2746 18.0114 47.044C17.4014 45.9614 16.3613 44.3695 15.1807 43.6456C14.0004 42.9217 12.1097 42.7164 10.8683 42.6637C10.6039 42.6523 10.4989 42.2142 10.7295 42.0845C11.812 41.4745 13.4041 40.4343 14.128 39.2537C14.8519 38.0734 15.0572 36.1828 15.1099 34.9413Z" fill="url(#paint0_linear_297_2008)"/>
<path d="M34.8862 32.5339C34.8657 32.27 34.404 32.1593 34.2661 32.3853C33.8513 33.0654 33.2531 33.886 32.5884 34.2938C31.9235 34.7016 30.9207 34.8624 30.1265 34.9238C29.8626 34.9443 29.7519 35.406 29.978 35.5439C30.658 35.9587 31.4787 36.5567 31.8865 37.2216C32.2943 37.8865 32.4551 38.8893 32.5164 39.6835C32.5369 39.9474 32.9986 40.0581 33.1366 39.832C33.5513 39.152 34.1493 38.3313 34.8142 37.9235C35.4791 37.5157 36.482 37.3549 37.2761 37.2936C37.54 37.2731 37.6507 36.8114 37.4247 36.6734C36.7446 36.2587 35.924 35.6605 35.5162 34.9958C35.1084 34.3309 34.9476 33.328 34.8862 32.5339Z" fill="url(#paint1_linear_297_2008)"/>
<path d="M25.7661 4.81893L25.1828 4.08213C22.9281 1.23412 21.8006 -0.189889 20.4891 0.0203392C19.1776 0.230544 18.5502 1.93575 17.296 5.34618L16.9715 6.22849C16.615 7.19762 16.4369 7.68218 16.095 8.03786C15.7532 8.39351 15.2864 8.57998 14.3532 8.95297L13.5034 9.29252L12.9067 9.53125C10.0191 10.6898 8.5641 11.3463 8.37833 12.622C8.18019 13.9827 9.5574 15.1468 12.3118 17.4749L13.0244 18.0772C13.8071 18.7387 14.1985 19.0695 14.4229 19.5205C14.6473 19.9713 14.6791 20.4911 14.7431 21.531L14.8011 22.4776C15.026 26.1369 15.1384 27.9664 16.3276 28.5971C17.5165 29.2278 18.9949 28.2421 21.9515 26.2705L22.7165 25.7604C23.5567 25.2002 23.9767 24.92 24.4572 24.8432C24.9377 24.7662 25.424 24.901 26.397 25.1706L27.2827 25.4161C30.7061 26.3651 32.4179 26.8396 33.351 25.8687C34.284 24.8979 33.8206 23.1247 32.8933 19.578L32.6536 18.6604C32.3902 17.6526 32.2583 17.1487 32.331 16.6502C32.4035 16.1517 32.6723 15.7152 33.2097 14.842L33.6988 14.0471C35.59 10.9744 36.5356 9.43808 35.9231 8.20729C35.3105 6.97646 33.5457 6.86628 30.0161 6.64594L29.1031 6.58894C28.0999 6.52633 27.5985 6.49503 27.1628 6.26395C26.7273 6.0329 26.4069 5.62824 25.7661 4.81893Z" fill="url(#paint2_linear_297_2008)"/>
<path d="M11.6392 27.3372C6.49418 29.8509 2.21304 33.8321 0.598061 38.5894C-1.21354 27.2568 1.29935 19.9386 5.32752 15.3905C5.67465 16.1 6.12572 16.6874 6.5309 17.1464C7.37318 18.1007 8.58241 19.1223 9.81025 20.1596L10.6938 20.9061C10.8613 21.0479 10.9916 21.1582 11.1023 21.2537C11.1136 21.4085 11.1248 21.5893 11.1392 21.8238L11.2109 22.9925C11.3074 24.5691 11.4016 26.1083 11.6392 27.3372Z" fill="url(#paint3_linear_297_2008)"/>
<defs>
<linearGradient id="paint0_linear_297_2008" x1="16.8502" y1="34.6753" x2="16.8502" y2="47.1712" gradientUnits="userSpaceOnUse">
<stop stop-color="white"/>
<stop offset="1" stop-color="#79829B"/>
</linearGradient>
<linearGradient id="paint1_linear_297_2008" x1="33.7013" y1="32.2634" x2="33.7013" y2="39.954" gradientUnits="userSpaceOnUse">
<stop stop-color="white"/>
<stop offset="1" stop-color="#79829B"/>
</linearGradient>
<linearGradient id="paint2_linear_297_2008" x1="22.2341" y1="0" x2="22.2341" y2="28.7867" gradientUnits="userSpaceOnUse">
<stop stop-color="white"/>
<stop offset="1" stop-color="#79829B"/>
</linearGradient>
<linearGradient id="paint3_linear_297_2008" x1="5.81962" y1="15.3905" x2="5.81962" y2="38.5893" gradientUnits="userSpaceOnUse">
<stop stop-color="white"/>
<stop offset="1" stop-color="#79829B"/>
</linearGradient>
</defs>
</svg>
