<svg xmlns="http://www.w3.org/2000/svg" xmlns:xlink="http://www.w3.org/1999/xlink" version="1.1" width="256" height="256" viewBox="0 0 256 256" xml:space="preserve">
<g style="stroke: none; stroke-width: 0; stroke-dasharray: none; stroke-linecap: butt; stroke-linejoin: miter; stroke-miterlimit: 10; fill: none; fill-rule: nonzero; opacity: 1;" transform="translate(1.4065934065934016 1.4065934065934016) scale(2.81 2.81)">
	<path d="M 53.763 48.945 c 0 1.262 1.089 2.085 2.803 2.085 c 2.178 0 3.825 -1.381 3.825 -3.321 v -1.169 l -3.573 0.226 C 54.812 46.886 53.763 47.643 53.763 48.945 z" style="stroke: none; stroke-width: 1; stroke-dasharray: none; stroke-linecap: butt; stroke-linejoin: miter; stroke-miterlimit: 10; fill: rgb(0,0,0); fill-rule: nonzero; opacity: 1;" transform=" matrix(1 0 0 1 0 0) " stroke-linecap="round"/>
	<path d="M 42.167 35.33 h -3.706 v 8.222 h 3.693 c 2.803 0 4.397 -1.501 4.397 -4.118 S 44.956 35.33 42.167 35.33 z" style="stroke: none; stroke-width: 1; stroke-dasharray: none; stroke-linecap: butt; stroke-linejoin: miter; stroke-miterlimit: 10; fill: rgb(0,0,0); fill-rule: nonzero; opacity: 1;" transform=" matrix(1 0 0 1 0 0) " stroke-linecap="round"/>
	<path d="M 0 21.167 v 47.667 C 0 80.523 9.477 90 21.167 90 h 47.667 C 80.523 90 90 80.523 90 68.833 V 21.167 C 90 9.477 80.523 0 68.833 0 H 21.167 C 9.477 0 0 9.477 0 21.167 z M 21.273 32.753 c 0.797 -0.97 2.192 -1.66 3.321 -1.714 c 0.133 1.328 -0.385 2.63 -1.169 3.6 c -0.797 0.943 -2.072 1.687 -3.347 1.581 C 19.918 34.945 20.543 33.59 21.273 32.753 z M 27.729 50.712 c -0.943 1.381 -1.913 2.736 -3.454 2.763 c -1.488 0.027 -1.979 -0.89 -3.693 -0.89 c -1.7 0 -2.258 0.863 -3.666 0.917 c -1.488 0.053 -2.617 -1.461 -3.56 -2.843 c -1.926 -2.789 -3.4 -7.863 -1.408 -11.29 c 0.97 -1.714 2.736 -2.789 4.636 -2.816 c 1.461 -0.027 2.803 0.97 3.693 0.97 c 0.877 0 2.457 -1.156 4.304 -1.049 c 0.717 0.053 2.789 0.266 4.118 2.232 c -0.106 0.08 -2.457 1.435 -2.431 4.277 c 0.027 3.4 2.975 4.529 3.002 4.556 C 29.243 47.617 28.804 49.144 27.729 50.712 z M 42.911 46.249 h -4.45 v 7.08 h -3.214 V 32.62 h 7.77 c 4.011 0 6.814 2.763 6.814 6.801 S 46.975 46.249 42.911 46.249 z M 63.486 53.328 H 60.51 v -2.484 h -0.066 c -0.85 1.62 -2.723 2.643 -4.742 2.643 c -2.989 0 -5.074 -1.78 -5.074 -4.463 c 0 -2.657 2.019 -4.184 5.751 -4.41 l 4.011 -0.239 v -1.142 c 0 -1.687 -1.102 -2.603 -3.068 -2.603 c -1.62 0 -2.803 0.837 -3.042 2.112 h -2.896 c 0.093 -2.683 2.617 -4.636 6.03 -4.636 c 3.679 0 6.07 1.926 6.07 4.915 V 53.328 z M 73.355 54.139 c -1.288 3.626 -2.763 4.822 -5.898 4.822 c -0.239 0 -1.036 -0.027 -1.222 -0.08 v -2.484 c 0.199 0.027 0.691 0.053 0.943 0.053 c 1.421 0 2.218 -0.598 2.71 -2.152 l 0.292 -0.917 l -5.446 -15.076 h 3.361 l 3.786 12.233 h 0.066 l 3.786 -12.233 H 79 L 73.355 54.139 z" style="stroke: none; stroke-width: 1; stroke-dasharray: none; stroke-linecap: butt; stroke-linejoin: miter; stroke-miterlimit: 10; fill: rgb(0,0,0); fill-rule: nonzero; opacity: 1;" transform=" matrix(1 0 0 1 0 0) " stroke-linecap="round"/>
</g>
</svg>