<svg width="30" height="32" viewBox="0 0 30 32" fill="none" xmlns="http://www.w3.org/2000/svg">
<ellipse cx="14.927" cy="9.26727" rx="8.01478" ry="8.44964" fill="#A0A0A0"/>
<path d="M2.46334 18.7997C4.87347 16.4769 6.45645 15.8679 7.19804 15.7326C7.79701 16.339 9.18802 17.7229 10.2357 18.3787C11.6047 19.2357 11.5 19.6116 15 19.6116C18.5 19.6116 22.1877 15.965 22.3137 15.7326C22.4397 15.5001 25.5 17.2231 27.5 19.6116C29.5 22 29.5 24.2959 29.5 28C29.5 31.7041 29 30.5 27.5 31.2937C26 32.0874 5.39828 31.4862 3.39031 31.2937C1.38234 31.1013 0.309901 29.2089 0.0246799 28.2867C-0.103671 26.0315 0.204371 20.9767 2.46334 18.7997Z" fill="#A0A0A0"/>
</svg>
