<svg width="384" height="512" viewBox="0 0 384 512" fill="none" xmlns="http://www.w3.org/2000/svg">
<path d="M162.4 6C160.9 2.4 157.4 0 153.5 0H134.5C130.6 0 127 2.4 125.6 6L104.9 57.7C101.7 65.7 90.3 65.7 87.1 57.7L66.4 6C64.9 2.4 61.4 0 57.5 0H48C21.5 0 0 21.5 0 48V224V246.4V256H9.6H374.4H384V246.4V224V48C384 21.5 362.5 0 336 0H230.5C226.6 0 223 2.4 221.6 6L200.9 57.7C197.7 65.7 186.3 65.7 183.1 57.7L162.4 6ZM0 288V320C0 355.3 28.7 384 64 384H128V448C128 483.3 156.7 512 192 512C227.3 512 256 483.3 256 448V384H320C355.3 384 384 355.3 384 320V288H0ZM192 432C196.243 432 200.313 433.686 203.314 436.686C206.314 439.687 208 443.757 208 448C208 452.243 206.314 456.313 203.314 459.314C200.313 462.314 196.243 464 192 464C187.757 464 183.687 462.314 180.686 459.314C177.686 456.313 176 452.243 176 448C176 443.757 177.686 439.687 180.686 436.686C183.687 433.686 187.757 432 192 432Z" fill="white"/>
</svg>
