<svg width="976" height="976" viewBox="0 0 976 976" fill="none" xmlns="http://www.w3.org/2000/svg">
<path d="M573.706 310.938L534.388 353.356L556.873 435.896L539.825 478.454V555.554L562.271 583.96L562.272 635.082L539.825 704.301L591.695 623.329L671.221 730.1L805.891 698.989L790.307 644.735L706.091 589.426L715.71 613.71L642.875 600.668L638.066 569.557L600.059 562.138L580.8 535.476L589.231 467.612L617.007 459.629L607.493 390.877L629.031 421.755L701.281 475.666L729.079 478.679L701.282 548.282L748.834 587.509L805.299 540.787L924.344 671.993L953.93 644.94L849.788 429.871L740.163 358.413L762.012 421.755L677.233 390.877L656.792 286.724L683.245 309.718L724.127 298.897L805.891 358.413L777.033 286.724L701.281 209.623L607.493 196.097L573.706 252.908L601.121 321.759L573.706 310.938Z" fill="#0FB9FD"/>
<path d="M403.255 312.102L442.272 354.195L419.959 436.103L436.877 478.336V554.846L414.602 583.035L414.601 633.766L436.877 702.455L385.404 622.103L306.486 728.057L172.846 697.184L188.31 643.345L271.883 588.459L262.337 612.557L334.615 599.615L339.388 568.742L377.103 561.38L396.215 534.922L387.849 467.576L360.286 459.655L369.726 391.429L348.353 422.071L276.656 475.569L249.07 478.56L276.655 547.63L229.467 586.556L173.433 540.192L55.2992 670.394L25.9399 643.548L129.285 430.124L238.071 359.214L216.389 422.071L300.52 391.429L320.804 288.072L294.554 310.891L253.985 300.153L172.846 359.214L201.483 288.072L276.656 211.562L369.726 198.139L403.255 254.515L376.05 322.84L403.255 312.102Z" fill="#0FB9FD"/>
<path d="M457.591 355.276H519.182L539.826 435.483L521.929 478.26V563.813L544.732 589.387V633.615L491.206 812.746L432.278 633.615V591.013L453.698 563.813L453.698 478.26L438.576 435.483L457.591 355.276Z" fill="white"/>
<path d="M113.686 655.897C156.971 762.59 228.637 834.225 326.561 879.037C392.4 910.517 466.655 920.785 537.669 910.517C600.771 902.312 662.397 874.396 715.257 835.979C780.092 786.771 836.555 724.536 868.595 645.003C883.398 666.791 883.398 666.791 888.332 672.239C898.2 683.133 904.568 690.855 903.134 694.027C838.27 821.462 713.75 932.991 583.802 962.903C530.12 977.317 474.381 979.863 419.802 970.396C378.922 962.936 338.107 951.334 299.998 933.129C211.823 891.173 137.199 820.829 85.9002 731.313C82.2362 723.769 76.5426 716.524 74.2139 708.386C89.016 683.133 93.9501 677.686 108.752 661.344C116.303 653.008 109.439 661.848 113.686 655.897Z" fill="white"/>
<path d="M456.219 1.45223C511.33 -3.67148 564.902 5.21458 617.981 20.9981C718.232 51.3091 808.878 119.261 872.35 209.856C917.178 272.99 948.377 346.552 963.58 424.962C977.54 488.718 979.21 554.593 971.2 619.461C954.632 585.334 936.437 552.118 919.456 518.227C916.403 510.844 917.116 501.387 916.111 493.413C909.804 414.212 883.388 339.345 843.565 273.472C812.998 224.892 774.97 182.572 731.196 148.42C688.622 116.258 641.378 92.3524 591.502 77.7348C524.343 59.4049 454.168 59.1776 386.913 77.0724C336.146 91.5862 288.056 115.731 244.796 148.426C187.293 193.589 137.741 253.515 105.799 323.185C80.3887 377.126 64.0108 435.934 59.6239 496.602C58.8441 503.536 59.3321 511.846 56.5366 518.233C39.5579 552.107 21.3604 585.324 4.78872 619.466C-3.31934 553.899 -1.45079 487.29 12.8477 422.888C37.5753 295.256 107.57 179.398 203.577 103.389C277.226 43.4992 365.337 10.0517 456.219 1.45223Z" fill="white"/>
</svg>
