<svg width="1024" height="1024" viewBox="0 0 1024 1024" fill="none" xmlns="http://www.w3.org/2000/svg">
<g clip-path="url(#clip0_468_1236)">
<path d="M548.396 270C539.983 270 530.795 274.271 521.089 282.691C516.492 286.68 512.508 290.948 509.517 294.372C509.523 294.377 509.528 294.382 509.533 294.39C509.541 294.38 509.546 294.375 509.546 294.375C509.546 294.375 514.263 299.459 519.454 304.901C522.248 301.614 526.284 297.128 530.926 293.103C539.554 285.615 545.189 284.046 548.396 284.046C560.499 284.046 570.344 293.548 570.344 305.227C570.344 316.841 560.494 326.336 548.381 326.408C547.829 326.408 547.12 326.341 546.246 326.149C549.775 327.662 553.569 328.749 557.182 328.749C579.364 328.749 583.699 314.419 583.995 313.404C584.652 310.777 585 308.042 585 305.229C584.997 285.802 568.578 270 548.396 270Z" fill="url(#paint0_linear_468_1236)"/>
<path d="M470.896 340.453C479.31 340.453 488.498 336.182 498.204 327.761C502.8 323.773 506.785 319.504 509.775 316.08C509.77 316.075 509.765 316.07 509.759 316.062C509.751 316.073 509.746 316.078 509.746 316.078C509.746 316.078 505.029 310.994 499.839 305.552C497.045 308.839 493.008 313.325 488.367 317.35C479.739 324.837 474.103 326.407 470.896 326.407C458.793 326.407 448.949 316.904 448.949 305.226C448.949 293.612 458.799 284.117 470.912 284.045C471.464 284.045 472.173 284.112 473.046 284.304C469.517 282.791 465.724 281.703 462.111 281.703C439.928 281.703 435.593 296.034 435.297 297.049C434.641 299.675 434.293 302.41 434.293 305.223C434.295 324.651 450.715 340.453 470.896 340.453Z" fill="url(#paint1_linear_468_1236)"/>
<path d="M557.132 328.392C545.775 328.115 533.971 319.249 531.562 317.045C525.34 311.35 510.983 295.929 509.855 294.719C499.33 283.054 485.069 270 470.898 270H470.879H470.861C453.633 270.085 439.155 281.634 435.304 297.05C435.6 296.035 441.259 281.432 462.099 281.94C473.456 282.217 485.318 291.202 487.725 293.406C493.946 299.101 508.309 314.525 509.431 315.735C519.956 327.397 534.217 340.449 548.389 340.449H548.407H548.426C565.653 340.363 580.131 328.814 583.982 313.398C583.689 314.414 577.973 328.9 557.132 328.392Z" fill="#29ABE2"/>
<path d="M5 676.737C27.1954 651.767 27.1954 651.767 32.7425 645.458C56.9364 560.076 81.726 474.922 107.111 389.996C98.3239 378.291 93.696 372.407 84.7331 360.453C186.547 367.613 288.429 373.144 390.379 377.046C399.489 387.257 404.058 392.331 413.167 402.417C387.431 479.809 362.046 557.367 337.012 635.091C319.848 645.52 311.237 650.656 294.072 661.552C220.046 665.205 79.0464 671.424 5 676.737ZM222.721 418.139C201.788 484.552 181.284 551.141 161.211 617.907C181.753 617.076 202.256 616.267 222.721 615.478C242.658 550.29 262.966 485.226 283.645 420.287C263.317 419.602 243.009 418.886 222.721 418.139Z" fill="white"/>
<path d="M6.19013 676.15C27.5696 652.099 27.6387 652.02 33.118 645.788L33.1927 645.703L33.2235 645.594C57.4168 560.214 82.2057 475.063 107.59 390.139L107.662 389.898L107.511 389.696C103.225 383.987 99.9282 379.662 96.6364 375.344L96.3856 375.015C93.1769 370.805 89.9492 366.569 85.7899 361.028C187.175 368.146 288.628 373.649 390.148 377.537C399.099 387.57 403.668 392.645 412.601 402.536C386.915 479.779 361.579 557.187 336.593 634.76C334.019 636.324 331.637 637.769 329.389 639.133C316.775 646.786 308.381 651.878 293.916 661.059C278.131 661.838 259.309 662.733 238.745 663.711C163.368 667.296 64.5888 671.993 6.19013 676.15ZM222.739 417.639L222.358 417.625L222.244 417.988C201.31 484.403 180.806 550.995 160.732 617.763L160.53 618.434L161.231 618.406C181.773 617.576 202.276 616.767 222.74 615.978L223.095 615.964L223.199 615.625C243.135 550.438 263.443 485.376 284.121 420.438L284.322 419.809L283.662 419.787C263.335 419.102 243.027 418.386 222.739 417.639Z" stroke="#979797" stroke-opacity="0.28"/>
<path d="M331.128 713.195L435.435 400.178L411.961 373.822L608.054 369.365L580.2 394.991L687.855 713.195L596.271 642.954L546.779 564.245H469.902L420.574 642.954L331.128 713.195ZM489.488 519.434H529.15L510.756 435.949L489.488 519.434Z" fill="white"/>
<path d="M332.128 711.773L435.91 400.336L436.001 400.062L435.809 399.846L413.054 374.297L606.739 369.895L579.861 394.623L579.622 394.843L579.726 395.151L686.854 711.797L596.646 642.612L547.203 563.979L547.055 563.745H546.779H469.902H469.625L469.478 563.98L420.196 642.615L332.128 711.773ZM489.003 519.31L488.844 519.934H489.488H529.15H529.772L529.638 519.326L511.245 435.841L510.272 435.825L489.003 519.31Z" stroke="#979797" stroke-opacity="0.28"/>
<path fill-rule="evenodd" clip-rule="evenodd" d="M630.26 371.944L602.779 397.799L685.222 639.114L731.024 664.969L993.622 679.333L1024.16 650.605L941.713 386.308L889.804 360.453L630.26 371.944ZM877.846 628.068C855.62 558.935 832.919 489.984 809.743 421.217C787.28 421.99 764.795 422.732 742.289 423.441C765.184 490.683 787.669 558.054 809.743 625.554C832.401 626.37 855.101 627.208 877.846 628.068Z" fill="white" stroke="#979797" stroke-opacity="0.28"/>
</g>
<defs>
<linearGradient id="paint0_linear_468_1236" x1="529.344" y1="274.645" x2="578.589" y2="326.155" gradientUnits="userSpaceOnUse">
<stop offset="0.21" stop-color="#F15A24"/>
<stop offset="0.6841" stop-color="#FBB03B"/>
</linearGradient>
<linearGradient id="paint1_linear_468_1236" x1="489.948" y1="335.808" x2="440.703" y2="284.298" gradientUnits="userSpaceOnUse">
<stop offset="0.21" stop-color="#ED1E79"/>
<stop offset="0.8929" stop-color="#522785"/>
</linearGradient>
<clipPath id="clip0_468_1236">
<rect width="1024" height="1024" fill="white"/>
</clipPath>
</defs>
</svg>
