<svg width="1024" height="1024" viewBox="0 0 1024 1024" fill="none" xmlns="http://www.w3.org/2000/svg">
<path d="M555.455 251C544.724 251 533.005 256.447 520.626 267.187C514.763 272.274 509.681 277.718 505.867 282.085C505.874 282.092 505.881 282.098 505.887 282.108C505.897 282.095 505.904 282.088 505.904 282.088C505.904 282.088 511.92 288.573 518.54 295.513C522.104 291.321 527.253 285.6 533.172 280.466C544.177 270.916 551.364 268.914 555.455 268.914C570.891 268.914 583.447 281.035 583.447 295.93C583.447 310.742 570.884 322.853 555.435 322.945C554.731 322.945 553.827 322.859 552.712 322.615C557.214 324.544 562.052 325.931 566.66 325.931C594.953 325.931 600.482 307.654 600.859 306.359C601.696 303.009 602.14 299.521 602.14 295.933C602.137 271.154 581.195 251 555.455 251Z" fill="url(#paint0_linear_1063_144)"/>
<path d="M456.609 340.858C467.34 340.858 479.059 335.411 491.438 324.671C497.301 319.584 502.383 314.14 506.197 309.773C506.19 309.766 506.183 309.76 506.177 309.75C506.167 309.763 506.16 309.77 506.16 309.77C506.16 309.77 500.144 303.285 493.524 296.345C489.96 300.537 484.811 306.258 478.892 311.392C467.887 320.942 460.7 322.944 456.609 322.944C441.173 322.944 428.616 310.823 428.616 295.928C428.616 281.116 441.179 269.006 456.629 268.913C457.333 268.913 458.237 268.999 459.352 269.243C454.85 267.314 450.012 265.927 445.404 265.927C417.111 265.927 411.582 284.205 411.205 285.499C410.368 288.849 409.924 292.338 409.924 295.925C409.927 320.704 430.869 340.858 456.609 340.858Z" fill="url(#paint1_linear_1063_144)"/>
<path d="M566.597 325.475C552.112 325.122 537.056 313.814 533.983 311.003C526.048 303.739 507.736 284.07 506.298 282.528C492.874 267.649 474.685 251 456.61 251H456.586H456.563C434.59 251.109 416.125 265.839 411.213 285.501C411.59 284.206 418.807 265.581 445.388 266.229C459.873 266.582 475.002 278.042 478.072 280.853C486.007 288.117 504.326 307.789 505.757 309.332C519.181 324.207 537.37 340.853 555.445 340.853H555.469H555.492C577.465 340.744 595.93 326.014 600.842 306.352C600.468 307.647 593.178 326.123 566.597 325.475Z" fill="#29ABE2"/>
<path d="M50.9395 687.242C70.9552 664.725 70.9552 664.725 75.9576 659.035C97.7757 582.037 120.131 505.246 143.023 428.66C135.099 418.104 130.925 412.798 122.843 402.018C214.658 408.475 306.535 413.462 398.474 416.981C406.689 426.189 410.81 430.765 419.024 439.861C395.815 509.653 372.923 579.595 350.348 649.686C334.869 659.091 327.103 663.723 311.625 673.549C244.867 676.843 117.714 682.451 50.9395 687.242ZM247.28 454.039C228.402 513.93 209.912 573.98 191.81 634.189C210.335 633.441 228.825 632.711 247.28 632C265.259 573.213 283.573 514.538 302.221 455.976C283.89 455.358 265.576 454.712 247.28 454.039Z" fill="url(#paint2_linear_1063_144)"/>
<path d="M345.041 720.12L439.106 437.842L417.937 414.074L594.773 410.055L569.654 433.164L666.737 720.12L584.147 656.777L539.515 585.798H470.188L425.703 656.777L345.041 720.12ZM487.85 545.387H523.617L507.03 470.1L487.85 545.387Z" fill="url(#paint3_linear_1063_144)"/>
<path fill-rule="evenodd" clip-rule="evenodd" d="M614.798 412.38L590.016 435.697L664.363 653.314L705.667 676.631L942.478 689.584L970.014 663.677L895.667 425.334L848.855 402.018L614.798 412.38ZM838.071 643.353C818.028 581.009 797.556 518.829 776.656 456.814C756.399 457.512 736.122 458.181 715.826 458.82C736.473 519.459 756.75 580.214 776.656 641.085C797.088 641.822 817.56 642.578 838.071 643.353Z" fill="url(#paint4_linear_1063_144)"/>
<path d="M478.656 1.31517C536.477 -3.32496 592.684 4.72242 648.374 19.0162C753.554 46.4665 848.659 108.005 915.252 190.05C962.285 247.225 995.018 313.844 1010.97 384.854C1025.62 442.592 1027.37 502.25 1018.96 560.995C1001.58 530.09 982.491 500.008 964.675 469.316C961.472 462.63 962.22 454.065 961.165 446.844C954.548 375.118 926.833 307.317 885.052 247.661C852.981 203.666 813.084 165.341 767.157 134.412C722.489 105.286 672.921 83.6361 620.592 70.3981C550.13 53.7982 476.505 53.5924 405.942 69.7982C352.677 82.9422 302.222 104.808 256.835 134.417C196.504 175.318 144.515 229.588 111.002 292.683C84.3423 341.533 67.1588 394.79 62.5562 449.732C61.738 456.012 62.25 463.538 59.3171 469.321C41.5033 499.999 22.4109 530.08 5.02423 561C-3.48258 501.621 -1.52214 441.299 13.4796 382.975C39.4233 267.39 112.86 162.466 213.588 93.6306C290.86 39.3937 383.304 9.10301 478.656 1.31517Z" fill="url(#paint5_linear_1063_144)"/>
<path d="M98.3619 710.191C145.259 809.766 233.314 891.683 339.412 933.505C410.747 962.885 491.201 972.468 568.143 962.885C636.513 955.228 703.283 929.174 760.555 893.319C830.803 847.394 888.18 784.228 922.895 710C933.579 728.159 941.799 747.808 951.679 766.391C952.684 769.27 956.16 773.269 954.606 776.23C884.328 895.164 758.922 983.86 618.127 1011.78C559.964 1025.23 499.572 1027.61 440.437 1018.77C396.144 1011.81 351.922 1000.98 310.631 983.988C215.097 944.832 134.243 879.18 78.6619 795.636C74.692 788.595 68.5231 781.834 66 774.239C72.7489 759.042 80.8095 744.294 88.0174 729.275C91.4767 722.996 93.7607 715.744 98.3619 710.191Z" fill="url(#paint6_linear_1063_144)"/>
<defs>
<linearGradient id="paint0_linear_1063_144" x1="531.155" y1="256.925" x2="593.964" y2="322.622" gradientUnits="userSpaceOnUse">
<stop offset="0.21" stop-color="#F15A24"/>
<stop offset="0.6841" stop-color="#FBB03B"/>
</linearGradient>
<linearGradient id="paint1_linear_1063_144" x1="480.909" y1="334.934" x2="418.1" y2="269.236" gradientUnits="userSpaceOnUse">
<stop offset="0.21" stop-color="#ED1E79"/>
<stop offset="0.8929" stop-color="#522785"/>
</linearGradient>
<linearGradient id="paint2_linear_1063_144" x1="234.982" y1="402.018" x2="234.982" y2="687.242" gradientUnits="userSpaceOnUse">
<stop stop-color="white"/>
<stop offset="1" stop-color="#D0EBFC"/>
</linearGradient>
<linearGradient id="paint3_linear_1063_144" x1="505.889" y1="410.055" x2="505.889" y2="720.12" gradientUnits="userSpaceOnUse">
<stop stop-color="white"/>
<stop offset="1" stop-color="#D0EBFC"/>
</linearGradient>
<linearGradient id="paint4_linear_1063_144" x1="780.015" y1="402.018" x2="780.015" y2="689.584" gradientUnits="userSpaceOnUse">
<stop stop-color="white"/>
<stop offset="1" stop-color="#D0EBFC"/>
</linearGradient>
<linearGradient id="paint5_linear_1063_144" x1="512" y1="0" x2="512" y2="561" gradientUnits="userSpaceOnUse">
<stop stop-color="#1A8CDE"/>
<stop offset="1" stop-color="#075C9A"/>
</linearGradient>
<linearGradient id="paint6_linear_1063_144" x1="510.5" y1="710" x2="510.5" y2="1024" gradientUnits="userSpaceOnUse">
<stop stop-color="#1A8CDE"/>
<stop offset="1" stop-color="#075C9A"/>
</linearGradient>
</defs>
</svg>
