<svg width="50" height="39" viewBox="0 0 50 39" fill="none" xmlns="http://www.w3.org/2000/svg">
<ellipse cx="34.5408" cy="8.44964" rx="8.01478" ry="8.44964" fill="url(#paint0_linear_165_503)"/>
<path d="M24.8886 16.2329C24.8886 16.2329 25.0889 15.5112 26.8107 15C27.4097 15.6064 28.8007 16.9904 29.8483 17.6461C31.2174 18.5031 31.6242 18.879 34.3121 18.879C37 18.879 41.9254 15.1712 42 15.0856C42.0746 15 44.2212 15.427 46.5 18.0856C48.7788 20.7441 49.5 30.5856 49.5 30.5856L34.3121 30.5612C31.379 30.6414 31.0842 30.8232 31.0495 30.5612C30.0797 23.2391 25.6587 22.7129 23.7763 21.6906C25.5161 19.1346 24.8886 16.2329 24.8886 16.2329Z" fill="url(#paint1_linear_165_503)"/>
<ellipse cx="14.927" cy="16.2673" rx="8.01478" ry="8.44964" fill="url(#paint2_linear_165_503)"/>
<path d="M2.46336 25.7997C4.87349 23.4769 6.45647 22.8679 7.19806 22.7326C7.79703 23.339 9.18804 24.7229 10.2357 25.3787C11.6048 26.2357 11.5 26.6116 15 26.6116C18.5 26.6116 22.1877 22.965 22.3137 22.7326C22.4398 22.5001 25.5 24.2231 27.5 26.6116C29.5 29 29.5 31.2959 29.5 35C29.5 38.7041 29 37.5 27.5 38.2937C26 39.0874 5.3983 38.4862 3.39033 38.2937C1.38236 38.1013 0.30992 36.2089 0.0246989 35.2867C-0.103652 33.0315 0.20439 27.9767 2.46336 25.7997Z" fill="url(#paint3_linear_165_503)"/>
<defs>
<linearGradient id="paint0_linear_165_503" x1="34.5408" y1="0" x2="34.5408" y2="16.8993" gradientUnits="userSpaceOnUse">
<stop stop-color="#00C0FC"/>
<stop offset="1" stop-color="#0056BA"/>
</linearGradient>
<linearGradient id="paint1_linear_165_503" x1="36.6381" y1="15" x2="36.6381" y2="30.6976" gradientUnits="userSpaceOnUse">
<stop stop-color="#00C0FC"/>
<stop offset="1" stop-color="#0056BA"/>
</linearGradient>
<linearGradient id="paint2_linear_165_503" x1="14.927" y1="7.81763" x2="14.927" y2="24.7169" gradientUnits="userSpaceOnUse">
<stop stop-color="#00C0FC"/>
<stop offset="1" stop-color="#0056BA"/>
</linearGradient>
<linearGradient id="paint3_linear_165_503" x1="14.75" y1="22.7115" x2="14.75" y2="38.6933" gradientUnits="userSpaceOnUse">
<stop stop-color="#00C0FC"/>
<stop offset="1" stop-color="#0056BA"/>
</linearGradient>
</defs>
</svg>
