<svg width="484" height="512" viewBox="0 0 484 512" fill="none" xmlns="http://www.w3.org/2000/svg">
<path d="M481.9 166.6C485.1 175.3 482.4 185 475.5 191.2L432.2 230.6C433.3 238.9 433.9 247.4 433.9 256C433.9 264.6 433.3 273.1 432.2 281.4L475.5 320.8C482.4 327 485.1 336.7 481.9 345.4C477.5 357.3 472.2 368.7 466.1 379.7L461.4 387.8C454.8 398.8 447.4 409.2 439.3 419C433.4 426.2 423.6 428.6 414.8 425.8L359.1 408.1C345.7 418.4 330.9 427 315.1 433.5L302.6 490.6C300.6 499.7 293.6 506.9 284.4 508.4C270.6 510.7 256.4 511.9 241.9 511.9C227.4 511.9 213.2 510.7 199.4 508.4C190.2 506.9 183.2 499.7 181.2 490.6L168.7 433.5C152.9 427 138.1 418.4 124.7 408.1L69.0999 425.9C60.2999 428.7 50.4999 426.2 44.5999 419.1C36.4999 409.3 29.0999 398.9 22.4999 387.9L17.7999 379.8C11.6999 368.8 6.39987 357.4 1.99987 345.5C-1.20013 336.8 1.49987 327.1 8.39987 320.9L51.6999 281.5C50.5999 273.1 49.9999 264.6 49.9999 256C49.9999 247.4 50.5999 238.9 51.6999 230.6L8.39987 191.2C1.49987 185 -1.20013 175.3 1.99987 166.6C6.39987 154.7 11.6999 143.3 17.7999 132.3L22.4999 124.2C29.0999 113.2 36.4999 102.8 44.5999 93C50.4999 85.8 60.2999 83.4 69.0999 86.2L124.8 103.9C138.2 93.6 153 85 168.8 78.5L181.3 21.4C183.3 12.3 190.3 5.1 199.5 3.6C213.3 1.2 227.5 0 242 0C256.5 0 270.7 1.2 284.5 3.5C293.7 5 300.7 12.2 302.7 21.3L315.2 78.4C331 84.9 345.8 93.5 359.2 103.8L414.9 86.1C423.7 83.3 433.5 85.8 439.4 92.9C447.5 102.7 454.9 113.1 461.5 124.1L466.2 132.2C472.3 143.2 477.6 154.6 482 166.5L481.9 166.6ZM242 336C263.217 336 283.566 327.571 298.568 312.569C313.571 297.566 322 277.217 322 256C322 234.783 313.571 214.434 298.568 199.431C283.566 184.429 263.217 176 242 176C220.783 176 200.434 184.429 185.431 199.431C170.428 214.434 162 234.783 162 256C162 277.217 170.428 297.566 185.431 312.569C200.434 327.571 220.783 336 242 336Z" fill="white"/>
</svg>
