<svg width="46" height="46" viewBox="0 0 46 46" fill="none" xmlns="http://www.w3.org/2000/svg">
<path d="M23 44C34.598 44 44 34.598 44 23C44 11.402 34.598 2 23 2C11.402 2 2 11.402 2 23C2 34.598 11.402 44 23 44Z" stroke="white" stroke-width="4" stroke-linecap="square"/>
<path d="M23 42C29.6667 37.3939 33 31.0606 33 23C33 14.9394 29.6667 8.60606 23 4C16.3333 8.60606 13 14.9394 13 23C13 31.0606 16.3333 37.3939 23 42Z" stroke="white" stroke-width="4" stroke-linecap="round"/>
<path d="M3.05078 16.7H42.9508M3.05078 29.3H42.9508" stroke="white" stroke-width="4" stroke-linecap="round"/>
</svg>
