<svg width="1024" height="1024" viewBox="0 0 1024 1024" fill="none" xmlns="http://www.w3.org/2000/svg">
<path d="M347.151 513.907L354.66 505.496H513.103L521.514 513.907V519.914L529.473 527.874H340.393L347.151 519.914V513.907Z" fill="#0FB9FD"/>
<path d="M368.327 471.855L377.338 477.262C388.451 471.855 401.367 470.954 420.891 453.833C428.41 447.24 436.21 436.512 438.763 431.456C441.015 434.71 447.744 443.741 456.634 453.833C465.525 463.926 487.873 472.856 497.935 476.06L509.349 471.855L513.704 463.145C518.21 458.94 526.319 457.738 526.319 457.738C526.319 457.738 484.118 450.229 469.851 432.808C458.934 419.478 452.93 395.913 453.18 385.049L449.426 379.493H428.25L424.645 385.049C425.847 392.308 424.405 411.752 409.026 431.456C393.648 451.16 363.871 456.286 350.906 456.386L362.77 461.042L368.327 471.855Z" fill="#0FB9FD"/>
<path d="M317.568 381.655H57.274L76.7549 393.993V413.014L85.4942 419.954H285.695V459.538L50.7939 467.506L68.0156 477.273L71.1 488.326L85.4942 503.748L285.695 495.009L274.899 549.244L261.019 555.67L307.029 561.325L317.568 555.67C321.167 534.165 328.826 488.172 330.677 476.245C332.528 464.319 333.333 418.84 333.504 397.591L317.568 381.655Z" fill="#0FB9FD"/>
<path d="M218.817 537.839H164.839L155.072 553.261V612.123H63.1127L49.0026 622.986V635.15L31 649.394H310.628L320.909 636.799V624.718L333.504 612.123H201.596V549.92L218.817 537.839Z" fill="#0FB9FD"/>
<path d="M935.564 380.518C864.345 380.518 716.352 379.702 698.498 379.702L678.901 396.577V413.724L698.498 421.073H901.814V462.988L683.8 471.426L702.036 481.768L705.302 493.472L720.544 509.803L901.814 500.549L890.383 557.978L875.685 564.783L924.405 570.771L935.564 564.783C939.375 542.01 947.486 493.309 949.445 480.68C951.405 468.051 952.258 419.893 952.439 397.393L935.564 380.518Z" fill="#0FB9FD"/>
<path d="M976.663 624.934L964.415 611.597H689.516L678.901 617.041V630.105L698.498 651.063H990L976.663 637.726V624.934Z" fill="#0FB9FD"/>
<path d="M644.106 376.79L637.048 386.551V520.515L644.106 527.573H674.443L664.231 517.361V386.551L674.443 376.79H644.106Z" fill="#0FB9FD"/>
<path fill-rule="evenodd" clip-rule="evenodd" d="M534.172 387.302L542.733 377.39H611.817L622.93 387.302V482.518L611.817 493.632H542.733L534.172 487.024L534.172 387.302ZM595.747 398.416H559.253L554.597 403.072V468.702L559.253 473.357H595.747L600.403 468.702V403.072L595.747 398.416Z" fill="#0FB9FD"/>
<path d="M383.218 557.804H342.403L349.247 561.762L350.649 566.215L355.019 569.265H373.489V585.591H353.617L349.247 590.539V622.201L352.71 626.984C356.393 626.956 364.286 626.984 366.398 626.984C370.191 626.984 382.037 625.692 389.485 625.005L392.123 621.047L390.969 615.275L388.331 612.801C386.544 613.021 382.229 613.995 378.106 614.78C375.336 615.308 368.487 615.11 363.759 615.275V597.135H381.404L388.001 590.539V562.587L383.218 557.804Z" fill="white"/>
<path d="M400.534 549.724L397.236 555.001L397.153 638.775L400.369 644.381H415.293L410.841 637.455V598.124H420.24V648.916H444.317L434.175 641.743V554.011L440.442 547.992H423.539L420.24 555.001V585.591H410.841V555.001L414.551 549.724H400.534Z" fill="white"/>
<path d="M439.74 641.205L450.237 648.543H549.297L555.922 643.345V638.249L560.712 634.071H444.428L439.74 637.026V641.205Z" fill="white"/>
<path fill-rule="evenodd" clip-rule="evenodd" d="M444.428 548.056H553.272L546.953 551.928V558.451L543.692 562.324H530.036V600.337H542.469L546.24 604.108V609.713L553.272 614.707H444.428L451.562 609.713V604.108L455.129 600.337H467.97V562.324H455.129L451.562 559.776V551.928L444.428 548.056ZM488.149 562.324L485.703 568.642V597.178L488.149 601.357H509.449L512.201 595.853V568.642L509.449 562.324H488.149Z" fill="white"/>
<path d="M570.014 544.59L564.51 552.234L565.427 606.758L570.931 614.401H660.411L653.175 610.732V606.758L646.755 600.337H583.976V586.579H646.449L649.71 583.318V575.266L646.755 572.311H583.976V559.47H646.755L652.258 553.966V550.196L660.411 544.59H570.014Z" fill="white"/>
<path d="M561.147 643.854L555.848 649.052H676.819L666.628 643.854V638.555L662.347 634.376H565.427L561.147 638.555V643.854Z" fill="white"/>
</svg>
