<svg width="1024" height="1024" viewBox="0 0 1024 1024" fill="none" xmlns="http://www.w3.org/2000/svg">
<g clip-path="url(#clip0_468_1236)">
<path d="M234.21 692.032C229.192 691.819 224.687 691.034 220.695 689.678C216.7 688.391 213.288 686.536 210.459 684.112C207.629 681.688 205.486 678.734 204.028 675.251C202.636 671.841 202.035 667.905 202.225 663.445C202.293 661.842 202.512 659.966 202.883 657.817C203.253 655.669 203.879 653.252 204.761 650.566C205.646 647.811 206.928 644.759 208.606 641.409L221.274 646.45C220.415 648.578 219.669 650.536 219.035 652.324C218.403 654.043 217.915 655.663 217.571 657.184C217.231 658.636 217.029 660.094 216.967 661.557C216.851 664.275 217.372 666.811 218.529 669.164C219.686 671.517 221.63 673.415 224.362 674.857C227.09 676.37 230.719 677.222 235.249 677.414C239.431 677.592 242.936 677.252 245.766 676.395C248.592 675.607 250.842 674.411 252.516 672.806C254.187 671.271 255.417 669.438 256.205 667.308C256.994 665.177 257.441 662.857 257.548 660.348C257.631 658.396 257.48 656.191 257.096 653.731C256.781 651.274 256.266 648.599 255.551 645.706C254.839 642.743 254.029 639.637 253.119 636.387L267.915 633.244C268.719 637.328 269.352 640.497 269.815 642.751C270.348 645.008 270.765 646.701 271.066 647.831C271.674 649.951 272.442 651.59 273.37 652.746C274.372 653.836 275.492 654.582 276.732 654.983C278.041 655.388 279.497 655.624 281.1 655.692C282.424 655.749 283.653 655.591 284.786 655.221C285.918 654.85 286.966 654.021 287.928 652.736C288.963 651.383 289.924 649.295 290.812 646.47C291.7 643.645 292.564 639.737 293.405 634.746L307.111 637.527C306.764 639.118 306.413 640.814 306.057 642.614C305.701 644.414 305.385 646.111 305.108 647.705C304.834 649.23 304.676 650.48 304.634 651.455C304.596 652.361 304.804 653.208 305.26 653.995C305.785 654.786 306.734 655.454 308.107 656.001C309.48 656.548 311.456 656.877 314.034 656.986C317.24 657.122 319.603 656.559 321.123 655.297C322.715 653.968 323.571 651.91 323.689 649.122C323.757 647.519 323.795 645.811 323.802 643.996C323.812 642.111 323.762 640.014 323.65 637.705C323.611 635.33 323.447 632.635 323.156 629.62L336.686 629.147C336.968 635.653 337.376 640.837 337.91 644.699C338.445 648.562 339.228 651.493 340.26 653.491C341.365 655.423 342.81 656.742 344.596 657.446C346.384 658.08 348.637 658.455 351.355 658.571C354.003 658.683 355.856 659.46 356.911 660.901C358.04 662.275 358.561 663.973 358.476 665.994C358.384 668.155 357.575 669.936 356.049 671.337C354.527 672.669 352.406 673.277 349.688 673.162C346.761 673.037 343.955 672.534 341.269 671.652C338.584 670.77 336.237 669.309 334.229 667.269C332.294 665.162 330.881 662.274 329.989 658.606L333.935 659.402C332.869 663.127 331.216 665.884 328.976 667.674C326.805 669.467 324.382 670.621 321.707 671.136C319.035 671.581 316.375 671.747 313.727 671.635C310.242 671.487 307.163 670.833 304.489 669.672C301.885 668.514 299.858 666.927 298.408 664.91C297.027 662.897 296.431 660.498 296.619 657.713L300.173 657.864C298.965 661.652 297.415 664.449 295.523 666.254C293.631 668.059 291.557 669.227 289.3 669.76C287.046 670.223 284.769 670.405 282.469 670.308C280.657 670.231 278.922 669.983 277.265 669.563C275.607 669.144 274.097 668.521 272.736 667.695C271.447 666.803 270.343 665.674 269.424 664.308C268.507 662.873 267.916 661.172 267.65 659.206L271.341 663.552C271 668.285 269.88 672.461 267.981 676.081C266.082 679.701 263.51 682.733 260.264 685.179C257.088 687.627 253.277 689.421 248.83 690.558C244.449 691.769 239.576 692.26 234.21 692.032ZM349.84 673.168L351.507 658.577C354.016 658.684 356.187 658.531 358.02 658.12C359.852 657.709 361.427 656.799 362.744 655.389C364.063 653.909 365.203 651.723 366.164 648.831C367.194 645.943 368.161 642.074 369.065 637.225L382.662 640.106C382.479 641.146 382.218 642.356 381.88 643.738C381.612 645.123 381.342 646.543 381.071 647.998C380.872 649.386 380.746 650.707 380.693 651.962C380.64 653.216 380.836 654.341 381.283 655.338C381.729 656.334 382.46 657.203 383.476 657.944C384.564 658.619 385.972 659.168 387.7 659.59C389.497 660.015 391.685 660.283 394.264 660.392C396.912 660.505 398.764 661.282 399.82 662.723C400.879 664.094 401.366 665.791 401.28 667.812C401.188 669.972 400.379 671.753 398.854 673.155C397.401 674.489 395.315 675.099 392.597 674.983C389.461 674.85 386.614 674.485 384.056 673.888C381.568 673.293 379.406 672.399 377.572 671.204C375.81 669.942 374.377 668.345 373.272 666.413C372.24 664.414 371.643 662.015 371.483 659.216L376.501 659.429C375.104 662.721 373.388 665.336 371.35 667.274C369.386 669.146 367.198 670.519 364.787 671.394C362.376 672.269 359.875 672.791 357.285 672.961C354.761 673.203 352.279 673.272 349.84 673.168ZM385.355 628.491C383.334 628.405 381.621 627.634 380.217 626.178C378.885 624.655 378.26 622.918 378.343 620.967C378.429 618.946 379.2 617.233 380.656 615.829C382.182 614.427 383.955 613.77 385.976 613.855C387.928 613.938 389.569 614.741 390.901 616.264C392.233 617.786 392.856 619.558 392.77 621.579C392.687 623.531 391.918 625.209 390.462 626.613C389.008 627.948 387.306 628.574 385.355 628.491ZM367.274 627.619C365.253 627.533 363.54 626.762 362.136 625.306C360.804 623.783 360.18 622.046 360.262 620.095C360.348 618.073 361.119 616.361 362.575 614.956C364.101 613.555 365.874 612.897 367.895 612.983C369.847 613.066 371.488 613.869 372.82 615.391C374.152 616.914 374.775 618.686 374.689 620.707C374.606 622.659 373.837 624.336 372.381 625.741C370.928 627.075 369.225 627.701 367.274 627.619ZM392.616 674.984L394.278 660.498C400.063 660.743 404.699 660.905 408.186 660.983C411.744 661.065 414.502 661.042 416.463 660.916C418.496 660.723 420.007 660.473 420.998 660.166C421.991 659.789 422.847 659.372 423.564 658.913C424.427 658.322 425.16 657.515 425.762 656.493C426.436 655.405 426.986 653.962 427.412 652.165C427.837 650.367 428.108 648.11 428.223 645.392C428.368 641.977 428.176 639.106 427.646 636.78C427.189 634.386 426.428 632.574 425.363 631.342C424.368 630.112 423.104 629.465 421.571 629.4C420.456 629.353 419.394 629.692 418.386 630.417C417.381 631.072 416.538 632.014 415.857 633.242C415.177 634.47 414.802 635.885 414.734 637.488C414.696 638.394 414.906 639.206 415.364 639.924C415.822 640.641 416.567 641.197 417.597 641.589C418.628 641.982 419.945 642.213 421.548 642.281C423.081 642.346 424.691 642.24 426.379 641.962C428.139 641.618 429.765 641.129 431.259 640.494L431.149 652.952C430.001 653.671 428.682 654.313 427.192 654.878C425.702 655.443 424.113 655.865 422.425 656.142C420.811 656.353 419.167 656.423 417.494 656.352C413.801 656.195 410.615 655.571 407.939 654.48C405.335 653.322 403.35 651.562 401.984 649.2C400.618 646.838 400.019 643.671 400.188 639.698C400.318 636.632 400.97 633.622 402.142 630.67C403.318 627.648 404.933 624.958 406.988 622.602C409.046 620.176 411.43 618.287 414.141 616.936C416.854 615.515 419.814 614.873 423.02 615.009C427.759 615.21 431.603 616.77 434.551 619.688C437.571 622.539 439.715 626.33 440.98 631.062C442.318 635.727 442.867 640.882 442.627 646.527C442.417 651.475 441.502 655.765 439.882 659.397C438.264 662.959 436.4 665.742 434.291 667.747C432.544 669.418 430.565 670.801 428.355 671.894C426.144 672.987 423.455 673.815 420.29 674.379C417.197 674.876 413.379 675.168 408.837 675.254C404.365 675.343 398.958 675.254 392.616 674.984ZM423.223 605.278C421.063 605.186 419.247 604.376 417.776 602.848C416.375 601.322 415.72 599.479 415.812 597.318C415.903 595.158 416.713 593.342 418.242 591.871C419.84 590.403 421.72 589.715 423.88 589.806C425.971 589.895 427.716 590.737 429.114 592.333C430.582 593.931 431.271 595.81 431.179 597.971C431.087 600.131 430.244 601.911 428.648 603.309C427.123 604.711 425.314 605.367 423.223 605.278ZM453.781 677.058L454.835 600.441L469.471 601.063L468.417 677.679L453.781 677.058Z" fill="white"/>
<path d="M449.369 737.945L439.042 709.457C447.135 707.086 454.571 704.234 461.348 700.903C468.275 697.577 474.315 693.837 479.469 689.683C484.622 685.528 488.662 680.949 491.589 675.946C494.522 670.792 496.116 665.205 496.372 659.183C496.641 652.861 495.504 645.875 492.964 638.227C490.423 630.579 487.287 622.754 483.555 614.754L513.739 601.784C516.251 606.565 518.37 611.708 520.097 617.21C521.981 622.568 523.511 627.384 524.686 631.656C525.862 635.929 526.644 638.827 527.032 640.352C528.832 647.667 531.488 652.606 534.999 655.168C538.66 657.736 544.63 659.196 552.91 659.548C558.63 659.79 562.631 661.468 564.912 664.581C567.349 667.55 568.475 671.217 568.29 675.583C568.092 680.25 566.345 684.097 563.05 687.124C559.761 690 555.181 691.314 549.31 691.065C543.138 690.802 537.757 689.669 533.167 687.665C528.577 685.66 524.925 682.866 522.212 679.282C519.649 675.705 518.091 671.567 517.536 666.868L525.69 671.965C524.448 679.905 521.494 687.32 516.828 694.21C512.306 701.257 506.53 707.647 499.5 713.381C492.47 719.115 484.645 724.061 476.023 728.219C467.401 732.377 458.516 735.619 449.369 737.945ZM549.58 691.076L553.18 659.559L585.47 660.93C588.631 661.064 591.423 661.032 593.844 660.833C596.272 660.484 598.257 659.889 599.801 659.05C601.495 658.217 602.748 657.139 603.558 655.816C604.368 654.494 604.812 652.929 604.888 651.122C604.965 649.316 604.108 646.414 602.317 642.417C600.683 638.276 596.902 633.214 590.973 627.232C587.789 624.08 584.31 620.766 580.537 617.288C576.92 613.666 573.445 610.276 570.11 607.118C566.782 603.81 564.04 600.903 561.884 598.399C559.728 595.894 558.673 594.115 558.718 593.061C558.813 590.803 559.069 588.326 559.486 585.629C559.902 582.932 560.459 580.467 561.157 578.235C562.005 576.009 563.054 574.394 564.303 573.392C566.965 571.092 570.846 568.467 575.948 565.516C581.207 562.422 587.454 559.143 594.689 555.68C601.93 552.067 610.006 548.338 618.916 544.493C627.983 540.505 637.653 536.542 647.924 532.604L659.625 560.699C651.192 563.961 643.214 567.166 635.691 570.315C628.174 573.314 621.109 576.331 614.495 579.368C608.038 582.261 602.033 585.173 596.479 588.105C591.083 590.892 586.288 593.704 582.096 596.542L585.741 579.957C598.121 590.286 607.908 599.523 615.103 607.671C622.448 615.825 627.871 623.068 631.373 629.399C634.88 635.581 637.134 641.105 638.134 645.974C639.14 650.692 639.566 654.857 639.413 658.47C639.26 662.083 638.19 665.958 636.205 670.097C634.376 674.091 631.124 677.874 626.448 681.445C621.923 685.024 615.62 687.848 607.539 689.917C599.458 691.987 589.171 692.757 576.676 692.226L549.58 691.076Z" fill="white"/>
<path d="M21.2877 445.812C21.5262 440.194 22.2947 433.62 23.5933 426.089C24.8918 418.559 27.0867 410.087 30.178 400.675C33.2796 391.019 37.7713 380.321 43.6532 368.58L88.0498 386.248C85.0415 393.706 82.4255 400.569 80.2018 406.837C77.9884 412.86 76.2792 418.538 75.074 423.87C73.8792 428.958 73.1729 434.067 72.9551 439.196C72.6129 447.257 74.0168 454.535 77.1668 461.031C80.5506 467.781 85.5688 473.5 92.2214 478.187C98.8635 483.118 107.018 487.013 116.685 489.87C126.595 492.738 138.024 494.447 150.969 494.996C164.403 495.567 176.398 495.464 186.953 494.689C197.752 493.924 206.867 492.476 214.299 490.344C221.975 488.223 227.849 485.291 231.923 481.549C235.987 478.051 238.123 473.86 238.33 468.975C238.423 466.776 237.657 464.664 236.03 462.637C234.647 460.621 232.171 458.436 228.6 456.082C225.274 453.738 220.731 451.221 214.973 448.529C209.459 445.848 202.734 442.871 194.798 439.598L209.082 388.451C219.398 393.293 229.125 397.621 238.261 401.435C247.652 405.015 256.576 408.085 265.032 410.647C273.498 412.964 281.491 414.894 289.011 416.436C296.541 417.735 303.604 418.524 310.199 418.804C319.481 419.198 325.972 421.921 329.673 426.972C333.384 431.779 335.089 437.724 334.788 444.807C334.467 452.379 331.632 458.621 326.285 463.533C320.948 468.2 313.639 470.337 304.357 469.943C302.403 469.86 300.449 469.777 298.495 469.694C296.785 469.621 294.953 469.543 292.999 469.46C291.29 469.388 289.458 469.31 287.504 469.227C287.888 471.69 288.045 473.777 287.972 475.487C287.889 477.441 287.811 479.273 287.739 480.983C287.396 489.043 284.24 497.106 278.269 505.173C272.543 513.249 263.79 520.586 252.009 527.182C240.228 533.778 225.334 538.773 207.327 542.169C189.554 545.819 168.454 547.125 144.028 546.088C117.649 544.968 95.0779 540.584 76.3162 532.936C57.7883 525.542 43.6957 514.544 34.0384 499.942C24.615 485.594 20.3647 467.551 21.2877 445.812ZM176.325 632.614C169.242 632.313 163.244 629.489 158.333 624.142C153.655 619.05 151.461 613.084 151.752 606.245C152.052 599.161 154.754 593.158 159.857 588.236C165.204 583.325 171.42 581.019 178.503 581.32C185.342 581.61 191.096 584.424 195.763 589.761C200.43 595.098 202.614 601.308 202.313 608.391C202.023 615.231 199.331 620.989 194.239 625.667C189.136 630.589 183.165 632.905 176.325 632.614ZM112.941 629.923C105.857 629.622 99.8595 626.798 94.9479 621.451C90.2702 616.359 88.0765 610.393 88.3669 603.553C88.6676 596.47 91.3694 590.467 96.4724 585.545C101.82 580.634 108.035 578.328 115.118 578.629C121.958 578.919 127.711 581.733 132.378 587.07C137.046 592.407 139.229 598.617 138.928 605.7C138.638 612.539 135.946 618.298 130.854 622.976C125.751 627.898 119.78 630.213 112.941 629.923ZM304.286 469.94L310.127 418.801C315.745 419.04 320.565 417.898 324.588 415.377C328.864 412.623 333.341 408.041 338.018 401.633C342.705 394.98 348.223 386.038 354.573 374.807C362.523 360.463 370.582 349.304 378.751 341.331C387.164 333.369 395.596 327.854 404.045 324.787C412.75 321.486 421.377 320.017 429.926 320.38C440.673 320.836 450.589 323.582 459.674 328.617C468.759 333.652 476.55 340.345 483.047 348.696C489.554 356.802 494.422 366.063 497.65 376.477C501.133 386.658 502.646 397.122 502.19 407.869C501.64 420.815 498.334 432.42 492.27 442.684C486.461 452.715 478.541 460.576 468.512 466.268C458.737 471.725 447.621 474.19 435.164 473.661C424.66 473.215 412.525 470.865 398.758 466.61C384.991 462.355 370.662 454.038 355.772 441.661L376.34 398.121C387.01 406.16 397.035 412.091 406.416 415.915C416.041 419.75 424.029 421.802 430.38 422.071C435.265 422.279 439.316 421.961 442.533 421.119C445.75 420.277 448.138 418.788 449.697 416.652C451.255 414.516 452.113 411.616 452.268 407.952C452.486 402.822 451.488 397.519 449.273 392.042C447.059 386.564 443.953 381.905 439.956 378.065C436.214 373.991 431.656 371.84 426.283 371.612C421.153 371.394 416.674 373.162 412.844 376.914C409.269 380.433 405.621 385.661 401.9 392.6C398.435 399.304 394.184 407.199 389.149 416.283C383.054 427.281 377.159 436.451 371.464 443.795C365.779 450.895 359.791 456.513 353.497 460.65C347.459 464.554 340.373 467.19 332.24 468.557C324.351 469.935 315.033 470.396 304.286 469.94ZM505.226 561.056L488.532 513.366C509.849 506.93 527.167 499.59 540.486 491.346C554.05 483.113 564.097 474.119 570.629 464.364C577.404 454.619 581.021 444.372 581.477 433.625C581.767 426.786 581.091 419.661 579.448 412.25C577.815 404.595 575.344 396.538 572.032 388.077C568.965 379.627 565.181 370.78 560.68 361.535L609.656 340.491C617.51 357.219 623.442 373.131 627.45 388.228C631.702 403.335 633.554 417.361 633.004 430.307C632.496 442.276 630.421 453.688 626.779 464.545C623.381 475.412 618.305 485.474 611.55 494.731C605.028 504.242 596.701 513.064 586.568 521.198C576.435 529.333 564.623 536.661 551.132 543.185C537.631 549.953 522.329 555.91 505.226 561.056ZM597.32 302.528C589.748 302.207 583.384 299.367 578.228 294.009C573.317 288.662 571.022 282.203 571.343 274.631C571.665 267.059 574.504 260.695 579.862 255.539C585.464 250.393 592.05 247.981 599.622 248.303C606.95 248.614 613.065 251.565 617.966 257.157C623.111 262.758 625.523 269.345 625.202 276.917C624.88 284.489 621.924 290.726 616.333 295.627C610.985 300.539 604.648 302.839 597.32 302.528ZM670.166 568.059L661.719 516.314C679.154 514.852 694.412 512.808 707.493 510.182C720.563 507.801 731.609 504.11 740.63 499.11C749.652 494.109 756.558 487.062 761.348 477.967C766.149 468.627 768.866 456.508 769.499 441.608C770.111 427.197 768.4 415.623 764.366 406.888C760.333 398.152 754.652 393.629 747.324 393.317C742.195 393.1 737.842 394.75 734.267 398.269C730.702 401.543 727.961 405.587 726.044 410.399C724.382 414.978 723.473 419.099 723.317 422.763C723.224 424.961 723.736 427.308 724.853 429.802C725.971 432.297 728.57 434.487 732.649 436.373C736.729 438.259 743.161 439.511 751.943 440.129C760.971 440.757 773.22 440.42 788.691 439.119L850.244 441.733C859.526 442.127 866.017 444.849 869.718 449.901C873.673 454.718 875.5 460.668 875.2 467.752C874.878 475.323 872.044 481.565 866.697 486.477C861.36 491.144 853.928 493.276 844.402 492.871L743.646 488.593C728.258 487.94 715.146 485.548 704.31 481.418C693.474 477.287 685.296 471.067 679.776 462.758C674.266 454.204 671.802 443.088 672.382 429.41C672.849 418.418 675.148 407.504 679.278 396.668C683.653 385.843 689.452 376.056 696.675 367.309C703.908 358.318 712.158 351.327 721.423 346.337C730.943 341.113 741.077 338.729 751.825 339.186C766.48 339.808 779.112 344.871 789.72 354.375C800.328 363.879 808.368 376.211 813.842 391.37C819.56 406.539 822.046 422.917 821.299 440.504C820.128 468.105 813.27 491.305 800.726 510.103C788.183 528.902 770.818 543.091 748.633 552.671C726.438 562.496 700.282 567.625 670.166 568.059ZM844.92 492.893L850.762 441.755L903.155 443.979C908.285 444.197 912.814 444.145 916.743 443.822C920.682 443.255 923.904 442.291 926.409 440.929C929.158 439.578 931.19 437.829 932.504 435.682C933.819 433.536 934.538 430.997 934.663 428.066C934.787 425.135 933.397 420.426 930.491 413.941C927.84 407.221 921.704 399.008 912.084 389.301C906.917 384.188 901.273 378.81 895.15 373.166C889.282 367.289 883.643 361.789 878.233 356.665C872.833 351.297 868.383 346.581 864.886 342.518C861.388 338.454 859.675 335.567 859.748 333.857C859.903 330.194 860.318 326.174 860.994 321.798C861.669 317.422 862.573 313.423 863.705 309.8C865.082 306.188 866.784 303.569 868.811 301.942C873.129 298.21 879.427 293.951 887.705 289.164C896.238 284.143 906.374 278.823 918.114 273.203C929.864 267.34 942.967 261.29 957.424 255.052C972.136 248.58 987.825 242.15 1004.49 235.762L1023.48 281.347C1009.79 286.639 996.849 291.84 984.642 296.95C972.445 301.815 960.981 306.712 950.25 311.64C939.774 316.333 930.03 321.058 921.019 325.815C912.262 330.337 904.483 334.9 897.681 339.506L903.595 312.595C923.683 329.353 939.563 344.342 951.237 357.562C963.155 370.793 971.954 382.545 977.636 392.819C983.327 402.848 986.984 411.812 988.606 419.712C990.239 427.367 990.931 434.125 990.682 439.987C990.433 445.85 988.698 452.138 985.476 458.853C982.509 465.334 977.233 471.472 969.646 477.267C962.303 483.073 952.076 487.655 938.964 491.013C925.853 494.372 909.16 495.621 888.887 494.76L844.92 492.893Z" fill="#0FB9FD"/>
</g>
<defs>
<clipPath id="clip0_468_1236">
<rect width="1024" height="1024" fill="white"/>
</clipPath>
</defs>
</svg>
