<svg width="1024" height="1024" viewBox="0 0 1024 1024" fill="none" xmlns="http://www.w3.org/2000/svg">
<path d="M292.367 592.885L318.552 597.413H449.63L456.692 587.328L473.147 602.225H492.808L479.7 615.56C472.761 631.881 464.434 659.371 449.63 677.032C434.826 694.693 393.198 713.71 370.067 721.446L345.282 714.723L329.476 705.949V696.043C347.081 692.458 391.03 686.145 414.162 670.522C437.293 654.899 438.193 638.429 440.377 625.976H318.552L300.463 622.014V602.225L292.367 592.885Z" fill="white"/>
<path d="M503.528 540.584L528.21 546.48H651.762L658.419 533.348L673.929 552.746H692.462L680.107 570.11C673.566 591.363 665.717 634.189 651.762 657.187C637.808 680.184 593.602 700.3 571.798 710.374L548.437 701.618L536.664 691.519V678.62C553.259 673.952 596.527 662.024 618.33 641.681C640.134 621.337 640.982 599.889 643.041 583.673H528.21L511.16 578.514V552.746L503.528 540.584Z" fill="white"/>
<path d="M493.208 546.843L482.889 536.523H279.666L296.336 546.05V556.369L301.893 565.102H458.279L465.424 572.246H493.208V546.843Z" fill="white"/>
<path d="M753.788 536.834H697.225L717.914 546.718V705.589L711.691 720.598H766.289L748.663 709.616V630.18L828.831 657.635L837.982 654.707L845.304 639.698L862.344 636.546L747.565 596.137V546.718L753.788 536.834Z" fill="white"/>
<path d="M0.753418 309.761L22.9771 328.582V341.939L40.3083 355.296H216.722L229.258 439.079L216.722 521.648H40.7683L18.7033 539.255L14.4295 556.862L0.753418 575.683L37.8195 561.663L216.722 556.862V575.683L253.191 587.218L265.158 568.397V338.967L287.398 319.475H258.98L0.753418 309.761Z" fill="#0FB9FD"/>
<path d="M456.257 320.68L314.62 315.157L333.952 330.149V351.454H441.265C437.451 356.451 425.089 374.494 406.151 406.688C387.214 438.881 331.454 464.289 305.941 472.969L313.416 498.717L333.952 504.531C342.5 499.271 362.359 487.014 373.405 480.07C384.452 473.127 411.149 449.034 423.116 437.856L485.452 504.531L515.249 492.903L518.156 467.57L507.546 472.969C484.926 453.505 441.265 413 447.577 406.688C453.89 400.375 475.457 361.185 485.452 342.379H502.417L467.698 315.157L456.257 320.68Z" fill="#0FB9FD"/>
<path d="M632.363 329.277C615.433 325.515 573.391 318.341 550.965 315.157L542.659 322.633V342.567L550.965 347.966C563.978 349.627 595.485 354.029 617.412 358.348C639.34 362.667 684.69 376.206 704.624 382.435L710.438 358.348L704.624 347.966C689.674 344.366 651.051 333.43 632.363 329.277Z" fill="#0FB9FD"/>
<path d="M620.734 472.969C603.804 469.207 561.763 462.033 539.337 458.849L531.031 466.324V486.259L539.337 491.657C552.349 493.319 583.856 497.721 605.784 502.04C627.711 506.359 673.062 519.897 692.996 526.127L698.81 502.04L692.996 491.657C678.045 488.058 639.423 477.122 620.734 472.969Z" fill="#0FB9FD"/>
<path d="M620.258 396.555C605.926 392.792 570.336 385.618 551.352 382.435L544.321 389.91V409.844L551.352 415.243C562.367 416.904 589.039 421.306 607.602 425.625C626.164 429.944 664.555 443.483 681.43 449.712L686.351 425.625L681.43 415.243C668.773 411.644 636.078 400.708 620.258 396.555Z" fill="#0FB9FD"/>
<path d="M796.683 371.937C835.751 339.38 848.038 318.45 848.425 302.753H915.482L876.331 316.706V332.985H968.77L991.443 309.185L993.187 331.241L1024 353.914C1020.9 357.209 1004.81 365.542 1004.81 365.542C1004.81 365.542 958.305 471.933 922.26 512.629C894.32 544.174 843.067 565.676 807.991 580.21L771.946 559.862V544.165C799.076 531.762 847.754 518.586 881.564 485.305C918.771 448.678 941.445 396.354 946.096 371.937H853.076C845.518 380.464 824.008 395.773 811.799 406.819C803.78 414.075 789.707 422.516 765.87 435.888L733.313 430.655L729.825 417.865C738.352 410.889 757.615 404.494 796.683 371.937Z" fill="#0FB9FD"/>
</svg>
