<svg width="1024" height="1024" viewBox="0 0 1024 1024" fill="none" xmlns="http://www.w3.org/2000/svg">
<g clip-path="url(#clip0_468_1236)">
<path d="M189.929 472.954C183.87 494.442 174.411 519.463 168.546 541.023C118.774 545.244 72.5614 546.624 22.9144 552.159C15.1883 545.527 7.54156 538.78 -0.0257568 531.919C13.8155 472.195 28.1956 412.609 43.1147 353.162C37.9242 344.806 35.3375 340.501 30.147 332C89.1426 338.499 148.223 344.052 207.389 348.658C212.494 355.622 215.183 359.059 220.374 365.859C215.495 382.572 210.668 399.303 205.891 416.052C182.259 415.533 158.627 414.985 134.995 414.406C138.398 401.648 141.875 388.897 145.427 376.151L110.097 373.981C97.8445 419.669 85.9319 465.448 74.3597 511.318L110.097 508.966C113.127 497.632 116.178 486.303 119.253 474.98C142.783 474.257 166.342 473.582 189.929 472.954Z" fill="#0FB9FD"/>
<path d="M223.524 495.981C216.344 490.671 212.808 487.966 205.588 482.471C216.652 443.424 227.989 404.481 239.598 365.643C235.58 360.29 233.463 357.599 229.364 352.132C275.926 355.406 322.519 357.936 369.143 359.72C373.309 364.39 375.398 366.71 379.564 371.323C367.794 406.716 356.185 442.185 344.737 477.73C336.887 482.499 332.949 484.848 325.099 489.831C291.245 491.501 257.387 493.552 223.524 495.981ZM292.469 378.513C282.896 408.885 273.519 439.338 264.339 469.871C273.733 469.491 283.11 469.121 292.469 468.76C301.586 438.948 310.874 409.193 320.331 379.495C311.035 379.182 301.747 378.855 292.469 378.513Z" fill="#0FB9FD"/>
<path d="M528.561 406.806C509.862 406.806 491.162 406.782 472.463 406.735C475.088 398.696 477.718 390.652 480.352 382.603C471.056 382.546 461.764 382.465 452.477 382.361C448.905 392.688 445.333 403.005 441.761 413.312C465.283 413.388 488.8 413.431 512.313 413.44C516.332 417.711 518.261 419.918 522.212 424.246C515.273 444.557 508.335 464.878 501.396 485.208C461.961 485.427 422.548 486.172 383.157 487.443C376.098 482.646 372.575 480.225 365.529 475.342C368.869 465.224 372.227 455.107 375.602 444.989C394.132 444.771 412.658 444.595 431.179 444.462L424.293 465.262L452.517 464.892C455.973 454.642 459.442 444.391 462.925 434.141C442.547 434.141 422.168 434.212 401.79 434.354C394.342 429.343 390.605 426.823 383.157 421.712C388.595 405.026 394.078 388.355 399.606 371.698C395.588 367.199 393.565 364.935 389.533 360.394C436.166 361.817 482.804 362.505 529.446 362.458L539.653 373.235L528.561 406.806Z" fill="#0FB9FD"/>
<path d="M524.03 485.187C536.657 447.839 549.257 410.482 561.831 373.115L551.718 362.366C575.24 362.147 598.757 361.753 622.27 361.184C626.369 365.555 628.418 367.733 632.504 372.132L634.192 438.903C649.248 412.536 664.081 386.023 678.69 359.362C700.685 358.469 722.671 357.425 744.648 356.229C748.747 360.771 750.783 363.049 754.882 367.619C742.451 408.507 729.699 449.282 716.625 489.942C698.095 489.06 679.57 488.286 661.049 487.622C671.319 456.301 681.45 424.899 691.443 393.416C674.27 424.794 656.753 455.959 638.893 486.91C627.981 486.578 617.064 486.298 606.142 486.07L604.133 413.149C596.007 437.313 587.831 461.459 579.606 485.586C561.085 485.377 542.56 485.244 524.03 485.187Z" fill="#0FB9FD"/>
<path d="M739.454 491.007C752.367 449.682 764.949 408.234 777.202 366.662C773.183 361.921 771.267 359.544 767.303 354.888C785.815 353.731 804.318 352.473 822.812 351.116C826.978 355.985 829.054 358.448 833.207 363.416C820.883 407.266 808.14 450.973 794.977 494.538C776.483 493.257 757.975 492.08 739.454 491.007Z" fill="#0FB9FD"/>
<path d="M994.502 470.961C988.632 491.78 979.467 518.213 973.784 539.102C925.561 543.191 880.787 542.339 832.684 547.701C825.199 541.275 817.79 534.739 810.458 528.091C823.869 470.225 837.801 412.494 852.256 354.896C847.227 346.8 844.721 342.629 839.692 334.393C896.852 340.69 952.643 341.555 1009.97 346.018C1014.91 352.765 1018.97 360.609 1024 367.198C1019.27 383.391 1014.6 399.601 1009.97 415.829C987.071 415.327 964.174 414.795 941.277 414.234C944.575 401.874 947.944 389.519 951.385 377.17L917.155 375.067C905.283 419.334 893.741 463.689 882.529 508.131L917.155 505.853C920.09 494.87 923.047 483.894 926.025 472.924C948.823 472.223 971.649 471.569 994.502 470.961Z" fill="#0FB9FD"/>
<path d="M294.616 623.956L308.747 691.633H261.947L247.524 623.779H238.588L221.422 691.633H171.088L205.752 543.203L196.858 528.537H324.666L333.893 542.717L315.023 623.956H294.616ZM254.548 555.616L244.739 596.567H270.509L280.027 555.616H254.548Z" fill="white"/>
<path d="M309.124 655.153L352.764 539.832L345.722 528.537H413.557L421.18 539.832L431.452 655.153H394.725L391.494 617.765H362.972L348.791 655.153H309.124ZM371.112 596.479H389.588L386.035 557.066L371.112 596.479Z" fill="white"/>
<path d="M435.917 654.684L440.756 636.471L430.033 539.603L422.862 528.068H647.121L655.418 540.045L650.084 553.602H611.564L588.451 654.684L563.561 654.787L554.672 636.471L570.673 553.602H542.47H485.962L475.603 560.668L469.589 580.767H518.925L516.486 591.41L504.052 602.053H469.589L481.253 654.787L435.917 654.684Z" fill="white"/>
<path d="M779.555 587.1H728.586L735.738 555.292H710.44L700.643 595.843H764.88L773.891 610.122L754.959 690.565H647.484L631.446 674.529L640.622 636.394H691.135L684.852 663.326H710.522L719.947 623.082H664.432L647.484 606.871L662.448 542.639L653.271 528.537H780.381L789.723 542.815L779.555 587.1Z" fill="white"/>
</g>
<defs>
<clipPath id="clip0_468_1236">
<rect width="1024" height="1024" fill="white"/>
</clipPath>
</defs>
</svg>
