<svg width="933" height="865" viewBox="0 0 933 865" fill="none" xmlns="http://www.w3.org/2000/svg">
<g filter="url(#filter0_dii_432_882)">
<g filter="url(#filter1_i_432_882)">
<path d="M438.902 3.44617L438.9 3.44638C362.269 10.0144 287.937 35.5628 225.781 81.3423C144.795 139.424 85.7482 227.945 64.8783 325.488C52.814 374.723 51.2435 425.623 58.0801 475.701L58.7741 480.785L61.1973 476.262C69.1964 461.335 77.6132 446.698 86.0422 432.039C92.2993 421.158 98.5631 410.265 104.668 399.233L104.69 399.193L104.71 399.152C106.015 396.451 106.522 393.416 106.8 390.511C106.921 389.252 107.001 387.982 107.079 386.76C107.091 386.567 107.103 386.376 107.115 386.186C107.205 384.775 107.3 383.434 107.457 382.169L107.462 382.133L107.465 382.097C111.131 336.165 124.822 291.621 146.081 250.745L146.085 250.737L146.089 250.728C172.789 197.977 214.228 152.569 262.348 118.332C298.53 93.5644 338.752 75.2725 381.212 64.2752C437.455 50.7225 496.138 50.8946 552.3 64.777C594.016 75.8531 633.531 93.9648 669.141 118.33C705.755 144.207 737.563 176.27 763.132 213.076C796.455 263.01 818.535 319.723 823.806 379.683L823.81 379.725L823.816 379.767C824.076 381.637 824.191 383.549 824.311 385.557C824.383 386.762 824.457 388.002 824.566 389.289C824.846 392.596 825.355 396.036 826.761 399.115L826.787 399.173L826.818 399.229C832.944 410.303 839.229 421.234 845.506 432.151C853.914 446.774 862.307 461.373 870.286 476.259L872.71 480.781L873.403 475.697C880.157 426.155 878.754 375.814 866.974 327.07C854.146 267.155 827.826 210.945 790.01 162.701C736.462 93.4707 659.992 41.5428 575.402 18.3758L575.396 18.3739C530.679 6.32963 485.462 -0.474812 438.902 3.44617Z" fill="url(#paint0_linear_432_882)" stroke="url(#paint1_linear_432_882)" stroke-width="3.33"/>
<path d="M136.087 565.48L134.963 562.969L133.26 565.13C131.29 567.631 129.845 570.475 128.566 573.279C128.149 574.193 127.754 575.093 127.365 575.978C126.534 577.87 125.732 579.698 124.806 581.465L124.785 581.505L124.766 581.546C122.538 586.429 120.185 591.321 117.824 596.233C114.127 603.92 110.409 611.654 107.109 619.468L106.87 620.033L107.055 620.617C108.134 624.034 109.975 627.21 111.875 630.197C112.422 631.057 112.97 631.896 113.509 632.722C114.884 634.827 116.205 636.85 117.319 638.928L117.347 638.98L117.379 639.031C162.084 709.694 227.117 765.222 303.958 798.341C337.193 812.722 372.757 821.874 408.333 827.755L408.346 827.757C455.927 835.233 504.519 833.224 551.319 821.846C664.579 798.222 765.431 723.204 821.958 622.609L821.978 622.573L821.996 622.536C822.986 620.552 822.278 618.434 821.626 616.953C821.341 616.304 821.006 615.653 820.708 615.073C820.646 614.951 820.584 614.832 820.525 614.716C820.167 614.014 819.898 613.452 819.742 612.981L819.703 612.864L819.647 612.754C816.45 606.43 813.472 599.963 810.478 593.459C809.782 591.947 809.085 590.433 808.384 588.919C804.676 580.907 800.868 572.895 796.555 565.187L794.932 562.286L793.581 565.323C765.906 627.548 720.157 680.523 664.123 719.049C618.421 749.133 565.179 770.966 510.715 777.38L510.704 777.382L510.694 777.383C449.336 785.419 385.19 777.38 328.335 752.756L328.323 752.751L328.311 752.746C243.711 717.678 173.485 648.979 136.087 565.48Z" fill="url(#paint2_linear_432_882)" stroke="url(#paint3_linear_432_882)" stroke-width="3.33"/>
<path d="M491.762 249.948L492.883 249.976L493.228 251.043C495.714 258.731 497.976 266.232 500.231 273.711C500.353 274.113 500.474 274.515 500.595 274.918C502.973 282.802 505.358 290.673 508.01 298.757L508.031 298.82C508.065 298.924 508.084 298.98 508.092 299.007C508.093 299.011 508.1 299.034 508.108 299.065C508.139 299.165 508.249 299.513 508.614 300.65C509.274 302.031 509.944 303.498 510.593 306.894L510.747 307.696L510.183 308.285C509.234 309.276 508.44 310.15 507.643 311.026C505.363 313.531 503.065 316.057 497.109 321.412C496.961 341.468 496.865 361.549 497.108 381.604C499.019 384.469 501.438 387.073 504.038 389.665C504.808 390.434 505.6 391.206 506.398 391.985C508.369 393.907 510.377 395.865 512.193 397.89L512.596 398.339L512.598 398.941C512.661 417.469 512.653 436.002 512.645 454.534C512.639 468.902 512.632 483.269 512.659 497.634L512.664 500.26L510.34 499.038L508.645 498.147L508.509 498.075L508.389 497.978C504.153 494.565 501.87 492.85 500.074 491.501L500.033 491.471C498.857 490.587 497.877 489.851 496.694 488.895C494.399 504.844 493.112 514.365 492.087 521.938C490.576 533.112 489.638 540.046 486.886 557.134L486.871 557.225L486.846 557.313C482.716 571.906 478.942 586.607 475.165 601.323C473.291 608.623 471.416 615.927 469.497 623.223L467.956 629.08L466.434 623.218C464.882 617.239 463.351 611.256 461.821 605.274C457.716 589.23 453.614 573.198 449.121 557.289L449.103 557.225L449.09 557.159C448.84 555.865 448.599 554.616 448.365 553.407C441.837 519.614 441.546 518.109 439.099 488.831C437.893 489.747 437.025 490.454 435.991 491.295L435.813 491.44C434.12 492.816 431.953 494.569 427.316 498.063L427.173 498.171L427.011 498.244L425.487 498.926L423.242 499.931L423.258 497.472C423.365 480.022 423.349 462.619 423.332 445.209C423.317 429.808 423.302 414.402 423.373 398.954L423.376 398.352L423.778 397.904C425.583 395.894 427.578 393.945 429.537 392.031C430.347 391.24 431.15 390.455 431.932 389.675C434.532 387.076 436.951 384.465 438.863 381.593C439.023 367.943 438.848 354.732 438.671 341.346C438.588 335.114 438.506 328.845 438.456 322.475C435.151 319.595 434.97 319.409 431.925 316.227L431.883 316.183L431.845 316.136C429.884 313.743 429.121 312.947 428.38 312.176L428.361 312.157C427.574 311.338 426.796 310.529 424.881 308.195L424.282 307.465L424.641 306.591C425.487 304.527 425.949 303.268 426.322 302.252C426.362 302.142 426.401 302.035 426.44 301.93C426.835 300.857 427.164 299.995 427.795 298.667C432.958 282.451 437.728 267.223 442.593 250.92L442.933 249.78L444.122 249.79C450.346 249.841 456.603 249.815 462.871 249.789C472.498 249.749 482.154 249.708 491.762 249.948ZM507.943 300.272C507.977 300.214 508.005 300.158 508.028 300.105C508.005 300.159 507.977 300.215 507.943 300.272Z" fill="url(#paint4_linear_432_882)" stroke="url(#paint5_linear_432_882)" stroke-width="3.16545"/>
<path d="M189.696 364.177L192.386 358.97L187.44 362.115L128.388 399.663L127.999 399.91L127.804 400.328L18.529 633.986L18.0775 634.952L18.8024 635.733L49.7543 669.099L51.2622 670.724L52.3096 668.77L148.136 489.995L148.444 489.421L148.258 488.796L139.867 460.613L189.696 364.177Z" fill="url(#paint6_linear_432_882)" stroke="url(#paint7_linear_432_882)" stroke-width="3.16545"/>
<path d="M172.383 414.486L171.96 414.72L171.74 415.151L147.224 463.162L146.896 463.804L147.166 464.473L172.704 527.807L172.759 527.945L172.84 528.071L191.227 556.673L192.498 558.65L193.852 556.729L237.777 494.417L237.926 494.205L238 493.956L248.996 456.97L277.813 448.027L278.926 447.682V446.516V425.789L308.001 400.725L308.283 400.482L308.427 400.137L331.922 343.954L333.421 340.369L329.844 341.887L298.335 355.254V347.43V344.744L295.985 346.045L172.383 414.486Z" fill="url(#paint8_linear_432_882)" stroke="url(#paint9_linear_432_882)" stroke-width="3.16545"/>
<path d="M761.234 414.417L761.658 414.65L761.878 415.08L786.475 463.046L786.805 463.691L786.533 464.362L760.912 527.636L760.856 527.775L760.775 527.901L742.328 556.476L741.058 558.442L739.706 556.532L695.638 494.279L695.487 494.066L695.413 493.817L684.381 456.867L655.468 447.931L654.353 447.587V446.419V425.715L625.184 400.675L624.9 400.431L624.756 400.087L601.184 343.957L599.679 340.373L603.259 341.886L634.881 355.245V347.426V344.746L637.228 346.04L761.234 414.417Z" fill="url(#paint10_linear_432_882)" stroke="url(#paint11_linear_432_882)" stroke-width="3.16545"/>
<path d="M745.84 364.156L743.174 358.925L748.108 362.106L806.363 399.654L806.749 399.903L806.942 400.321L914.74 633.979L915.181 634.934L914.47 635.711L883.936 669.076L882.419 670.734L881.37 668.749L786.839 489.974L786.538 489.405L786.719 488.788L794.999 460.598L745.84 364.156Z" fill="url(#paint12_linear_432_882)" stroke="url(#paint13_linear_432_882)" stroke-width="3.16545"/>
<path d="M233.061 368.234L234.911 370.782L305.063 330.271V338.766V341.066L307.211 340.245L339.684 327.829L337.753 369.338L337.667 371.189L339.509 370.984L367.09 367.92L367.792 367.842L368.203 367.267L373.31 360.116L373.718 359.545L373.569 358.86L368.627 336.126L383.995 317.876H397.09L373.906 343.841L373.353 344.461L373.549 345.269L399.086 450.484L399.38 451.693H400.625H408.797H410.379V450.11V400.712L426.26 384.832L426.723 384.368V383.712V327.53V326.908L426.3 326.453L413.649 312.828L433.8 249.353L433.994 248.74L433.707 248.166L426.723 234.199V202.906V202.363L426.39 201.934L419.239 192.741L416.699 189.475L416.411 193.602L410.37 280.195L314.571 295.321L314.109 295.394L313.76 295.707L233.061 368.234Z" fill="url(#paint14_linear_432_882)" stroke="url(#paint15_linear_432_882)" stroke-width="3.16545"/>
<path d="M699.882 367.91L698.023 370.451L628.784 330.119V338.558V340.865L626.631 340.035L594.597 327.68L596.503 369.01L596.588 370.862L594.746 370.656L567.511 367.603L566.805 367.524L566.395 366.945L561.352 359.823L560.949 359.255L561.096 358.575L565.977 335.927L550.807 317.756H537.914L560.802 343.614L561.349 344.231L561.156 345.033L535.938 449.836L535.646 451.048H534.399H526.33H524.747V449.465V400.259L509.066 384.442L508.608 383.979V383.328V327.366V326.748L509.026 326.294L521.519 312.722L501.62 249.493L501.428 248.886L501.711 248.315L508.608 234.402V203.231V202.691L508.937 202.264L515.998 193.107L518.543 189.806L518.83 193.964L524.796 280.213L619.38 295.278L619.845 295.352L620.194 295.668L699.882 367.91Z" fill="url(#paint16_linear_432_882)" stroke="url(#paint17_linear_432_882)" stroke-width="3.16545"/>
<path d="M321.161 283.18L320.884 285.277L322.973 284.951L401.629 272.693L402.888 272.497L402.965 271.225L409.094 170.096L409.205 168.269L407.382 168.423L298.081 177.616L297.563 177.66L297.171 178.002L239.967 228.056L239.721 228.271L239.581 228.566L218.129 273.512L215.815 278.361L220.388 275.541L281.123 238.087L311.133 245.09L311.869 245.261L312.465 244.798L327.806 232.866L321.161 283.18Z" fill="url(#paint18_linear_432_882)" stroke="url(#paint19_linear_432_882)" stroke-width="3.16545"/>
<path d="M613.506 283.413L613.777 285.512L611.687 285.178L535.347 272.987L534.091 272.786L534.016 271.517L528.068 170.938L527.96 169.111L529.784 169.268L635.867 178.411L636.394 178.457L636.787 178.81L692.307 228.591L692.549 228.808L692.686 229.102L713.506 273.803L715.781 278.688L711.225 275.81L652.304 238.576L623.21 245.533L622.459 245.712L621.856 245.231L607.066 233.443L613.506 283.413Z" fill="url(#paint20_linear_432_882)" stroke="url(#paint21_linear_432_882)" stroke-width="3.16545"/>
<path d="M407.321 460.532H406.27L405.931 461.527L387.991 514.207L360.615 557.631L360.467 557.866L360.415 558.139L356.776 577.243L312.404 595.163L317.642 586.651L315.618 584.635L260.682 618.733L260.262 618.994L260.085 619.456L247.772 651.66L247.132 653.332L248.898 653.631L310.464 664.05L312.615 664.414L312.141 662.284L310.644 655.546H315.752L327.63 668.337L327.97 668.704L328.464 668.786L339.83 670.681L340.539 670.799L341.067 670.311L414.946 602.115L415.333 601.757L415.405 601.236L425.07 530.624L433.984 536.47L436.857 538.355L436.232 534.976L431.496 509.402L431.111 507.323L429.298 508.411L417.187 515.677L414.469 461.926L414.399 460.532H413.004H407.321Z" fill="url(#paint22_linear_432_882)" stroke="url(#paint23_linear_432_882)" stroke-width="2.93511"/>
<path d="M527.777 462.098H528.827L529.166 463.093L546.998 515.472L574.208 558.648L574.356 558.884L574.408 559.156L578.024 578.148L622.1 595.953L616.907 587.512L618.931 585.496L673.535 619.4L673.955 619.661L674.132 620.123L686.371 652.144L687.01 653.816L685.245 654.115L624.05 664.474L621.9 664.838L622.373 662.709L623.859 656.019H618.797L606.993 668.734L606.653 669.101L606.159 669.184L594.861 671.067L594.152 671.185L593.624 670.698L520.191 602.889L519.804 602.532L519.732 602.01L510.127 531.814L501.279 537.619L498.406 539.505L499.031 536.125L503.739 510.697L504.124 508.617L505.937 509.705L517.961 516.923L520.662 463.492L520.733 462.098H522.128H527.777Z" fill="url(#paint24_linear_432_882)" stroke="url(#paint25_linear_432_882)" stroke-width="2.93511"/>
</g>
</g>
<defs>
<filter id="filter0_dii_432_882" x="0.933485" y="0.669922" width="931.384" height="863.696" filterUnits="userSpaceOnUse" color-interpolation-filters="sRGB">
<feFlood flood-opacity="0" result="BackgroundImageFix"/>
<feColorMatrix in="SourceAlpha" type="matrix" values="0 0 0 0 0 0 0 0 0 0 0 0 0 0 0 0 0 0 127 0" result="hardAlpha"/>
<feOffset dy="15.2589"/>
<feGaussianBlur stdDeviation="7.62945"/>
<feComposite in2="hardAlpha" operator="out"/>
<feColorMatrix type="matrix" values="0 0 0 0 0 0 0 0 0 0 0 0 0 0 0 0 0 0 0.55 0"/>
<feBlend mode="normal" in2="BackgroundImageFix" result="effect1_dropShadow_432_882"/>
<feBlend mode="normal" in="SourceGraphic" in2="effect1_dropShadow_432_882" result="shape"/>
<feColorMatrix in="SourceAlpha" type="matrix" values="0 0 0 0 0 0 0 0 0 0 0 0 0 0 0 0 0 0 127 0" result="hardAlpha"/>
<feOffset dy="8"/>
<feGaussianBlur stdDeviation="4"/>
<feComposite in2="hardAlpha" operator="arithmetic" k2="-1" k3="1"/>
<feColorMatrix type="matrix" values="0 0 0 0 1 0 0 0 0 1 0 0 0 0 1 0 0 0 0.26 0"/>
<feBlend mode="normal" in2="shape" result="effect2_innerShadow_432_882"/>
<feColorMatrix in="SourceAlpha" type="matrix" values="0 0 0 0 0 0 0 0 0 0 0 0 0 0 0 0 0 0 127 0" result="hardAlpha"/>
<feOffset dy="-8"/>
<feComposite in2="hardAlpha" operator="arithmetic" k2="-1" k3="1"/>
<feColorMatrix type="matrix" values="0 0 0 0 0 0 0 0 0 0 0 0 0 0 0 0 0 0 0.11 0"/>
<feBlend mode="normal" in2="effect2_innerShadow_432_882" result="effect3_innerShadow_432_882"/>
</filter>
<filter id="filter1_i_432_882" x="16.1924" y="0.669922" width="900.866" height="833.178" filterUnits="userSpaceOnUse" color-interpolation-filters="sRGB">
<feFlood flood-opacity="0" result="BackgroundImageFix"/>
<feBlend mode="normal" in="SourceGraphic" in2="BackgroundImageFix" result="shape"/>
<feColorMatrix in="SourceAlpha" type="matrix" values="0 0 0 0 0 0 0 0 0 0 0 0 0 0 0 0 0 0 127 0" result="hardAlpha"/>
<feOffset/>
<feGaussianBlur stdDeviation="5.68706"/>
<feComposite in2="hardAlpha" operator="arithmetic" k2="-1" k3="1"/>
<feColorMatrix type="matrix" values="0 0 0 0 0 0 0 0 0 0 0 0 0 0 0 0 0 0 0.79 0"/>
<feBlend mode="normal" in2="shape" result="effect1_innerShadow_432_882"/>
</filter>
<linearGradient id="paint0_linear_432_882" x1="465.746" y1="4" x2="465.746" y2="475.476" gradientUnits="userSpaceOnUse">
<stop stop-color="white"/>
<stop offset="1" stop-color="#79829B"/>
</linearGradient>
<linearGradient id="paint1_linear_432_882" x1="277.421" y1="4" x2="277.421" y2="475.476" gradientUnits="userSpaceOnUse">
<stop stop-color="#252525"/>
<stop offset="1"/>
</linearGradient>
<linearGradient id="paint2_linear_432_882" x1="464.732" y1="566" x2="464.732" y2="830.518" gradientUnits="userSpaceOnUse">
<stop stop-color="white"/>
<stop offset="1" stop-color="#79829B"/>
</linearGradient>
<linearGradient id="paint3_linear_432_882" x1="301.186" y1="566" x2="301.186" y2="830.518" gradientUnits="userSpaceOnUse">
<stop stop-color="#252525"/>
<stop offset="1"/>
</linearGradient>
<linearGradient id="paint4_linear_432_882" x1="467.958" y1="251.341" x2="467.958" y2="622.82" gradientUnits="userSpaceOnUse">
<stop stop-color="white"/>
<stop offset="1" stop-color="#79829B"/>
</linearGradient>
<linearGradient id="paint5_linear_432_882" x1="487.762" y1="251.341" x2="487.762" y2="622.82" gradientUnits="userSpaceOnUse">
<stop stop-color="#252525"/>
<stop offset="1"/>
</linearGradient>
<linearGradient id="paint6_linear_432_882" x1="107.099" y1="361.693" x2="100.446" y2="669.094" gradientUnits="userSpaceOnUse">
<stop stop-color="#00C0FC"/>
<stop offset="1" stop-color="#0056BA"/>
</linearGradient>
<linearGradient id="paint7_linear_432_882" x1="69.8092" y1="360.886" x2="63.1565" y2="668.287" gradientUnits="userSpaceOnUse">
<stop stop-color="#252525"/>
<stop offset="1"/>
</linearGradient>
<linearGradient id="paint8_linear_432_882" x1="239.548" y1="343.344" x2="239.548" y2="555.817" gradientUnits="userSpaceOnUse">
<stop stop-color="#00C0FC"/>
<stop offset="1" stop-color="#0056BA"/>
</linearGradient>
<linearGradient id="paint9_linear_432_882" x1="197.792" y1="343.344" x2="197.792" y2="555.817" gradientUnits="userSpaceOnUse">
<stop stop-color="#252525"/>
<stop offset="1"/>
</linearGradient>
<linearGradient id="paint10_linear_432_882" x1="744.498" y1="393.013" x2="637.524" y2="503.613" gradientUnits="userSpaceOnUse">
<stop stop-color="#00C0FC"/>
<stop offset="1" stop-color="#0039BA"/>
</linearGradient>
<linearGradient id="paint11_linear_432_882" x1="735.747" y1="343.344" x2="735.747" y2="555.618" gradientUnits="userSpaceOnUse">
<stop stop-color="#252525"/>
<stop offset="1"/>
</linearGradient>
<linearGradient id="paint12_linear_432_882" x1="827.344" y1="361.679" x2="834.088" y2="669.076" gradientUnits="userSpaceOnUse">
<stop stop-color="#00C0FC"/>
<stop offset="1" stop-color="#0056BA"/>
</linearGradient>
<linearGradient id="paint13_linear_432_882" x1="864.13" y1="360.872" x2="870.874" y2="668.269" gradientUnits="userSpaceOnUse">
<stop stop-color="#252525"/>
<stop offset="1"/>
</linearGradient>
<linearGradient id="paint14_linear_432_882" x1="289.408" y1="374.882" x2="550.497" y2="423.837" gradientUnits="userSpaceOnUse">
<stop stop-color="#00C0FC"/>
<stop offset="1" stop-color="#0039BA"/>
</linearGradient>
<linearGradient id="paint15_linear_432_882" x1="287.696" y1="193.712" x2="287.696" y2="450.11" gradientUnits="userSpaceOnUse">
<stop stop-color="#252525"/>
<stop offset="1"/>
</linearGradient>
<linearGradient id="paint16_linear_432_882" x1="704.609" y1="291.479" x2="372.809" y2="420.21" gradientUnits="userSpaceOnUse">
<stop stop-color="#00C0FC"/>
<stop offset="1" stop-color="#0039BA"/>
</linearGradient>
<linearGradient id="paint17_linear_432_882" x1="645.913" y1="194.073" x2="645.913" y2="449.465" gradientUnits="userSpaceOnUse">
<stop stop-color="#252525"/>
<stop offset="1"/>
</linearGradient>
<linearGradient id="paint18_linear_432_882" x1="186.061" y1="282.413" x2="477.972" y2="133.738" gradientUnits="userSpaceOnUse">
<stop stop-color="#00C0FC"/>
<stop offset="1" stop-color="#0039BA"/>
</linearGradient>
<linearGradient id="paint19_linear_432_882" x1="270.373" y1="170" x2="270.373" y2="283.387" gradientUnits="userSpaceOnUse">
<stop stop-color="#252525"/>
<stop offset="1"/>
</linearGradient>
<linearGradient id="paint20_linear_432_882" x1="847.845" y1="298.731" x2="336.547" y2="213.515" gradientUnits="userSpaceOnUse">
<stop stop-color="#00C0FC"/>
<stop offset="0.666249" stop-color="#0066D0"/>
<stop offset="1" stop-color="#0039BA"/>
</linearGradient>
<linearGradient id="paint21_linear_432_882" x1="662.751" y1="170.845" x2="662.751" y2="283.615" gradientUnits="userSpaceOnUse">
<stop stop-color="#252525"/>
<stop offset="1"/>
</linearGradient>
<linearGradient id="paint22_linear_432_882" x1="341.966" y1="462" x2="341.966" y2="669.233" gradientUnits="userSpaceOnUse">
<stop stop-color="#00C0FC"/>
<stop offset="1" stop-color="#0056BA"/>
</linearGradient>
<linearGradient id="paint23_linear_432_882" x1="299.333" y1="462" x2="299.333" y2="669.233" gradientUnits="userSpaceOnUse">
<stop/>
<stop offset="1" stop-color="#252525"/>
</linearGradient>
<linearGradient id="paint24_linear_432_882" x1="592.737" y1="463.566" x2="592.737" y2="669.62" gradientUnits="userSpaceOnUse">
<stop stop-color="#00C0FC"/>
<stop offset="1" stop-color="#0056BA"/>
</linearGradient>
<linearGradient id="paint25_linear_432_882" x1="635.112" y1="463.566" x2="635.112" y2="669.62" gradientUnits="userSpaceOnUse">
<stop/>
<stop offset="1" stop-color="#252525"/>
</linearGradient>
</defs>
</svg>
