<svg width="1024" height="1024" viewBox="0 0 1024 1024" fill="none" xmlns="http://www.w3.org/2000/svg">
<g filter="url(#filter0_i_468_1236)">
<path d="M331.791 313H275.792L294.921 326.03V348.208H169.338L161.575 364.009V434.424L169.338 444.405H199.832L205.1 434.424V395.89L213.139 390.068H427.711L436.305 395.89V434.424L444.068 444.405H475.948L482.602 434.424V364.009L472.067 348.208H343.989V323.812L331.791 313Z" fill="#0FB9FD"/>
<path d="M240.307 421.118L229.218 434.424L225.337 449.395L209.813 461.87H296.029V503.453H166.565L160.744 511.493V531.176L172.11 545.037H296.029C296.861 566.291 297.804 609.797 294.921 613.789C292.037 617.781 236.981 616.191 209.813 614.898C216.651 618.132 230.715 625.1 232.268 627.096C233.82 629.092 241.047 649.366 244.466 659.254C242.987 659.808 251.008 660.363 294.921 658.145C338.833 655.927 345.93 628.574 343.989 615.175V544.205H462.919L473.453 538.384L481.77 511.77L492.305 502.067H343.989V462.147H399.712L407.751 450.226V434.424L422.998 421.118H240.307Z" fill="#0FB9FD"/>
<path d="M743.384 313.233H687.106L677.125 326.399V348.809H557.639L549.876 364.777V435.929L557.639 446.013H588.134L593.402 435.929V396.991L601.441 391.109H809.365L817.959 396.991V435.929L825.721 446.013H857.603L864.256 435.929V364.777L853.722 348.809H726.195V324.158L743.384 313.233Z" fill="#0FB9FD"/>
<path fill-rule="evenodd" clip-rule="evenodd" d="M716.492 406.235H662.709L684.333 421.082V453.577H598.669L581.758 470.104V647.704L573.164 659.75H620.847L625.56 654.708V647.704H786.909V654.708L793.285 659.75H843.464L833.761 647.704V470.104L813.8 453.577H726.195V421.082L716.492 406.235ZM625.006 497.557L631.382 491.114L684.333 491.114L691.264 497.557V530.976L684.333 538.539L631.382 538.539L625.006 530.976V497.557ZM726.195 491.114L719.819 497.557V530.976L726.195 538.539L780.533 538.539L787.463 530.976V497.557L780.533 491.114L726.195 491.114ZM719.542 575.432L725.918 568.989L780.255 568.989L787.186 575.432V612.714L780.255 620.278L725.918 620.278L719.542 612.714V575.432ZM631.105 568.989L624.729 575.432V612.714L631.105 620.278L684.056 620.278L690.987 612.714V575.432L684.056 568.989L631.105 568.989Z" fill="#0FB9FD"/>
<path d="M448.576 564.91H359.693L366.238 570.223V575.536L370.711 579.804H400.946V639.556H362.676L359.693 644.869V649.137L353.563 653.754H466.885L460.755 649.137V644.869L456.53 639.556H417.431V579.804H450.566L454.625 575.536V570.223L448.576 564.91Z" fill="white"/>
<path d="M494.922 554.258H479.593L483.077 558.264V565.755L453.812 565.058L458.428 569.5V575.597L461.128 578.558H482.903V584.394L479.593 587.529H500.758L497.709 584.394V578.558H524.013V584.394L520.79 587.529H541.519L538.297 584.394V578.558H559.2L562.423 575.597V568.716L566.516 565.058H538.297V558.264L542.39 554.258H526.277L524.013 558.264V565.058H497.709V558.264L494.922 554.258Z" fill="white"/>
<path d="M538.297 594.061H460.93L468.072 598.068V603.033L474.367 607.213H511.645C503.225 612.352 485.846 623.082 483.686 624.894C480.986 627.159 472.757 631.014 471.754 642.401C470.535 656.249 487.606 659.704 497.012 659.82H543.174C545.961 659.82 549.445 659.385 555.716 655.988C560.733 653.271 562.51 642.778 562.771 637.872L560.071 632.297L547.79 623.239C548.545 624.894 550.09 628.517 550.229 629.772C550.403 631.339 548.661 641.007 547.268 643.881C546.153 646.181 542.855 646.523 541.345 646.407C529.18 646.465 503.283 646.547 497.012 646.407C489.174 646.233 486.212 644.752 486.038 642.401C485.864 640.049 485.603 639.962 492.135 633.865C497.361 628.988 530.603 611.858 546.571 603.904L548.661 599.549L544.394 595.978L550.839 589.271L538.297 594.061Z" fill="white"/>
</g>
<defs>
<filter id="filter0_i_468_1236" x="160.744" y="313" width="703.513" height="350.546" filterUnits="userSpaceOnUse" color-interpolation-filters="sRGB">
<feFlood flood-opacity="0" result="BackgroundImageFix"/>
<feBlend mode="normal" in="SourceGraphic" in2="BackgroundImageFix" result="shape"/>
<feColorMatrix in="SourceAlpha" type="matrix" values="0 0 0 0 0 0 0 0 0 0 0 0 0 0 0 0 0 0 127 0" result="hardAlpha"/>
<feOffset dy="3.72553"/>
<feGaussianBlur stdDeviation="3.72553"/>
<feComposite in2="hardAlpha" operator="arithmetic" k2="-1" k3="1"/>
<feColorMatrix type="matrix" values="0 0 0 0 1 0 0 0 0 1 0 0 0 0 1 0 0 0 0.24 0"/>
<feBlend mode="normal" in2="shape" result="effect1_innerShadow_468_1236"/>
</filter>
</defs>
</svg>
