<svg width="1024" height="1024" viewBox="0 0 1024 1024" fill="none" xmlns="http://www.w3.org/2000/svg">
<path d="M877 396.596L806.5 382L826.288 401.673L797 588.885L819.88 613H847.712L864 531.135H892.446L955.535 613H1002.53L1014.28 599.038L933.5 505.115L1019.23 413.731L1007.48 396.596H955.535L897.393 480.365H864L877 396.596Z" fill="#0FB9FD"/>
<path d="M83 391.596L12.5 377L32.2883 396.673L3 583.885L25.8802 608H53.7117L70 526.135H98.4457L161.535 608H208.532L220.281 594.038L139.5 500.115L225.228 408.731L213.479 391.596H161.535L103.393 475.365H70L83 391.596Z" fill="#0FB9FD"/>
<path d="M224.717 520.096C218.197 515.274 214.985 512.817 208.428 507.827C218.477 472.366 228.772 437.001 239.315 401.73C235.665 396.869 233.743 394.425 230.021 389.46C272.305 392.434 314.618 394.731 356.96 396.352C360.743 400.592 362.641 402.7 366.424 406.889C355.735 439.031 345.192 471.242 334.796 503.521C327.667 507.853 324.091 509.986 316.962 514.511C286.218 516.028 255.469 517.89 224.717 520.096ZM287.329 413.418C278.635 441 270.12 468.656 261.783 496.384C270.314 496.04 278.83 495.704 287.329 495.376C295.609 468.302 304.043 441.28 312.632 414.31C304.189 414.026 295.755 413.728 287.329 413.418Z" fill="#0FB9FD"/>
<path d="M461.154 473.84C457.674 486.182 452.241 501.852 448.872 514.236C420.284 516.66 393.741 516.154 365.225 519.333C360.787 515.524 356.395 511.649 352.048 507.708C359.998 473.404 368.258 439.179 376.827 405.034C373.846 400.234 372.36 397.762 369.379 392.879C403.265 396.612 436.339 397.125 470.323 399.771C473.255 403.77 475.66 408.421 478.641 412.327C475.839 421.926 473.066 431.536 470.323 441.156C456.749 440.859 443.175 440.543 429.601 440.211C431.556 432.883 433.553 425.559 435.593 418.238L415.301 416.992C408.263 443.234 401.421 469.529 394.774 495.875L415.301 494.524C417.041 488.014 418.794 481.507 420.559 475.004C434.075 474.588 447.606 474.2 461.154 473.84Z" fill="#0FB9FD"/>
<path d="M459.351 510.294C470.818 476.377 482.261 442.451 493.679 408.516L484.495 398.755C505.856 398.556 527.213 398.199 548.567 397.682C552.289 401.651 554.15 403.629 557.861 407.624L559.393 468.262C573.066 444.317 586.537 420.239 599.805 396.027C619.779 395.216 639.745 394.268 659.704 393.182C663.426 397.307 665.275 399.375 668.997 403.525C657.709 440.658 646.128 477.687 634.255 514.613C617.427 513.811 600.603 513.109 583.784 512.505C593.11 484.061 602.31 455.544 611.385 426.953C595.79 455.449 579.883 483.751 563.663 511.859C553.753 511.557 543.839 511.303 533.92 511.096L532.096 444.873C524.716 466.818 517.291 488.746 509.822 510.656C493.002 510.467 476.178 510.346 459.351 510.294Z" fill="#0FB9FD"/>
<path d="M712.015 392.292C690.661 392.809 688.686 392.094 667.324 392.292L674.121 398.849L680.57 404.332L648 515.615C657.918 515.822 678.257 516.077 688.167 516.378C712.015 486.316 739.044 458.587 760.538 430.063C755.252 460.191 753.444 483.701 748.957 515.615C765.776 516.219 772.688 518.331 789.515 519.132C793.566 483.905 798.943 449.392 808.237 408.045C804.515 403.895 802.666 401.826 798.943 397.702C778.985 398.788 759.018 399.736 739.044 400.546C721.308 425.431 708.953 445.324 688.167 472.781L721.308 402.234C717.598 398.239 715.737 396.261 712.015 392.292Z" fill="#0FB9FD"/>
<path fill-rule="evenodd" clip-rule="evenodd" d="M286.12 618.721L271.854 675.115H230.02L258.83 551.753L251.438 539.563H357.662L365.331 551.349L343.538 618.868L286.12 618.721ZM291.233 596.104L299.385 562.07H320.561L312.65 596.104H291.233Z" fill="white"/>
<path d="M344.744 644.796L381.014 548.951L375.162 539.563H431.54L437.876 548.951L446.413 644.796H415.888L413.204 613.723H389.498L377.712 644.796H344.744ZM396.263 596.032H411.62L408.667 563.275L396.263 596.032Z" fill="white"/>
<path d="M591.858 560.396L578.559 629.27L585.948 644.492L606.634 644.407L625.843 560.396H657.859L662.291 549.128L655.396 539.174H558.829L568.418 560.396H591.858Z" fill="white"/>
<path d="M761.008 627.416C757.216 640.868 751.294 657.947 747.622 671.444C716.463 674.086 687.533 673.535 656.452 677C651.616 672.848 646.828 668.625 642.091 664.329C650.756 626.94 659.759 589.638 669.098 552.422C665.849 547.191 664.23 544.496 660.98 539.174C697.913 543.243 733.962 543.802 771.002 546.685C774.198 551.045 776.819 556.113 780.068 560.371C777.014 570.834 773.992 581.307 771.002 591.793C756.207 591.468 741.412 591.125 726.618 590.762C728.749 582.776 730.926 574.793 733.149 566.814L711.032 565.455C703.361 594.057 695.903 622.717 688.659 651.432L711.032 649.96C712.928 642.864 714.838 635.772 716.763 628.684C731.494 628.231 746.242 627.808 761.008 627.416Z" fill="white"/>
<path d="M499.296 546.354V550.858V572.498V616.102V635.513V642.246L495.115 645.034H526.893L523.827 642.246V635.522L523.763 616.04L523.62 572.736L523.548 550.973V546.354L528.566 542.173H495.115L499.296 546.354Z" fill="white"/>
<path fill-rule="evenodd" clip-rule="evenodd" d="M510.793 630.098C542.115 630.098 567.506 621.668 567.506 592.034C567.506 564.444 542.115 553.97 510.793 553.97C479.472 553.97 454.081 562.911 454.081 592.034C454.081 617.58 479.472 630.098 510.793 630.098ZM510.793 612.784C528.288 612.784 542.471 608.075 542.471 591.523C542.471 576.113 528.288 570.262 510.793 570.262C493.298 570.262 479.116 575.257 479.116 591.523C479.116 605.792 493.298 612.784 510.793 612.784Z" fill="white"/>
</svg>
