<svg width="519" height="519" viewBox="0 0 519 519" fill="none" xmlns="http://www.w3.org/2000/svg">
<path d="M259.502 306.6C285.514 306.6 306.602 285.513 306.602 259.5C306.602 233.488 285.514 212.4 259.502 212.4C233.489 212.4 212.402 233.488 212.402 259.5C212.402 285.513 233.489 306.6 259.502 306.6Z" fill="white"/>
<path d="M259.5 24C321.958 24 381.859 48.8115 426.024 92.9764C470.188 137.141 495 197.042 495 259.5C495 321.958 470.188 381.859 426.024 426.024C381.859 470.188 321.958 495 259.5 495M259.5 24C197.042 24 137.141 48.8115 92.9764 92.9764C48.8115 137.141 24 197.042 24 259.5C24 321.958 48.8115 381.859 92.9764 426.024C137.141 470.188 197.042 495 259.5 495M259.5 24C344.28 24 419.64 78.165 454.965 153.525M259.5 24C174.72 24 99.36 78.165 64.035 153.525M259.5 495C174.72 495 99.36 440.835 64.035 365.475M259.5 389.025C344.28 389.025 419.64 334.86 454.965 259.5" stroke="white" stroke-width="47.1"/>
</svg>
