<svg width="532" height="608" viewBox="0 0 532 608" fill="none" xmlns="http://www.w3.org/2000/svg">
<path d="M232.366 2.68507C236.153 0.408405 240.693 -0.269921 244.98 0.799745L358.183 29.0237C366.746 31.1591 372.096 39.5627 370.556 48.1241C449.36 85.0294 508.043 145.822 531.03 214.221C533.476 221.493 530.64 229.494 524.16 233.604C517.683 237.714 509.236 236.87 503.696 231.56C463.35 192.872 410.563 159.187 348.973 134.847L348.146 138.171C347.076 142.46 344.346 146.149 340.556 148.425C336.77 150.702 332.23 151.38 327.943 150.311L311.77 146.279L281.53 267.567C290.463 269.793 295.896 278.837 293.67 287.77L217.06 595.03C215.993 599.32 213.263 603.007 209.473 605.283C205.683 607.56 201.146 608.24 196.856 607.17L115.999 587.01C107.068 584.783 101.633 575.737 103.86 566.807L180.47 259.547C181.536 255.257 184.266 251.567 188.056 249.29C191.846 247.013 196.383 246.337 200.673 247.407L230.913 126.119L214.74 122.086C205.81 119.86 200.373 110.814 202.6 101.883L203.43 98.5594C137.622 91.1354 75.1991 96.0961 21.4121 111.314C14.0298 113.403 6.17548 110.182 2.38481 103.512C-1.40619 96.8424 -0.153852 88.4464 5.41815 83.1727C57.8258 33.5711 138.182 7.44408 225.086 11.8541C226.32 8.03041 228.9 4.76741 232.366 2.68507Z" fill="white"/>
</svg>
