<svg width="40" height="40" viewBox="0 0 40 40" fill="none" xmlns="http://www.w3.org/2000/svg">
<g filter="url(#filter0_d_810_778)">
<path d="M30.4379 14.9239C30.9164 15.8458 31.5167 16.5546 32.2386 17.0431C32.9564 17.5316 33.6337 17.8291 34.2623 17.9393C34.8909 18.0495 35.552 18.3617 36.2415 18.8759C36.9309 19.3901 37.4541 20.1393 37.815 21.1163C38.4761 22.7985 37.3649 24.9875 34.4854 27.676C31.6059 30.3645 27.8301 32.4947 23.1499 34.0704C18.2305 35.646 13.7815 36.2557 9.79073 35.9031C5.80406 35.5469 3.48019 34.5295 2.81912 32.8473C2.21889 31.3819 2.39734 29.8723 3.35852 28.3261C4.3197 26.7798 4.58737 25.2703 4.16964 23.8048C2.49062 18.5894 1.78494 14.5162 2.05667 11.5853C2.32839 8.65438 4.01959 6.04667 7.13836 3.76217C7.91703 3.1635 8.35099 2.47301 8.44426 1.68335C8.53349 0.89736 8.96744 0.364799 9.75017 0.0930095C10.468 -0.123688 11.1575 0.037917 11.8185 0.581496C12.4796 1.12508 13.3191 1.36748 14.3371 1.31606C18.2954 1.26097 21.2641 2.15714 23.2432 4.00458C25.2183 5.85568 27.6192 9.49179 30.4379 14.9239ZM22.0711 31.3819C24.7113 30.5114 27.092 29.3581 29.2212 27.9184C31.3504 26.4786 32.851 25.2446 33.7189 24.2125C34.5868 23.1804 34.9639 22.501 34.8423 22.1741C34.603 21.5754 33.8689 21.1273 32.6401 20.8298C31.4112 20.5323 29.5497 20.5176 27.0636 20.7894C24.5775 21.0612 21.771 21.7113 18.6523 22.7434C15.5943 23.7754 12.9987 24.9581 10.8695 26.2877C8.74032 27.6172 7.33303 28.7595 6.64357 29.7107C5.95412 30.662 5.69861 31.3819 5.87706 31.8704C5.99873 32.1972 6.74496 32.4947 8.12793 32.7665C9.50684 33.0383 11.5144 33.0934 14.1546 32.9281C16.7948 32.7629 19.4309 32.2487 22.0711 31.3819ZM19.2809 24.2933C19.5202 24.2382 19.8365 24.1427 20.2258 24.0068C20.6152 23.8709 20.8707 23.7754 20.9923 23.7203L21.0816 23.8011C21.5034 24.8883 21.2478 26.0159 20.3151 27.1802C19.3863 28.3481 18.052 29.2039 16.3122 29.7475C13.4327 30.7244 11.1534 30.5334 9.47439 29.1782C11.8145 27.3344 15.0833 25.7037 19.2809 24.2933Z" fill="white"/>
</g>
<defs>
<filter id="filter0_d_810_778" x="0.357241" y="0" width="39.2855" height="39.2855" filterUnits="userSpaceOnUse" color-interpolation-filters="sRGB">
<feFlood flood-opacity="0" result="BackgroundImageFix"/>
<feColorMatrix in="SourceAlpha" type="matrix" values="0 0 0 0 0 0 0 0 0 0 0 0 0 0 0 0 0 0 127 0" result="hardAlpha"/>
<feOffset dy="1.64276"/>
<feGaussianBlur stdDeviation="0.821379"/>
<feComposite in2="hardAlpha" operator="out"/>
<feColorMatrix type="matrix" values="0 0 0 0 0 0 0 0 0 0 0 0 0 0 0 0 0 0 0.25 0"/>
<feBlend mode="normal" in2="BackgroundImageFix" result="effect1_dropShadow_810_778"/>
<feBlend mode="normal" in="SourceGraphic" in2="effect1_dropShadow_810_778" result="shape"/>
</filter>
</defs>
</svg>
