<svg width="48" height="53" viewBox="0 0 48 53" fill="none" xmlns="http://www.w3.org/2000/svg">
<path d="M37.9153 21.9713C38.5534 23.3285 39.3536 24.3721 40.3161 25.0913C41.2732 25.8104 42.1762 26.2484 43.0143 26.4106C43.8525 26.5729 44.7338 27.0325 45.6531 27.7895C46.5723 28.5465 47.2698 29.6496 47.7511 31.0879C48.6324 33.5644 47.1509 36.7871 43.3117 40.7452C39.4726 44.7033 34.4385 47.8395 28.1985 50.1592C21.6396 52.4789 15.7078 53.3765 10.3871 52.8574C5.07183 52.3329 1.97349 50.8351 1.09211 48.3586C0.291842 46.2011 0.52976 43.9787 1.81127 41.7023C3.09279 39.4258 3.44966 37.2035 2.89272 35.046C0.654126 27.3677 -0.286731 21.3711 0.075553 17.0561C0.437837 12.7412 2.69265 8.90204 6.85081 5.53875C7.889 4.65737 8.46757 3.64081 8.59193 2.47826C8.71089 1.32111 9.28947 0.537065 10.3331 0.136931C11.2901 -0.182096 12.2094 0.0558223 13.0907 0.856092C13.9721 1.65636 15.0914 2.01324 16.4486 1.93754C21.7261 1.85643 25.6842 3.17579 28.3229 5.89563C30.9562 8.62087 34.1573 13.974 37.9153 21.9713ZM26.7602 46.2011C30.2803 44.9196 33.4544 43.2217 36.2932 41.1021C39.132 38.9824 41.1326 37.1656 42.2898 35.6462C43.4469 34.1268 43.9498 33.1264 43.7876 32.6452C43.4685 31.7638 42.4898 31.1041 40.8514 30.6661C39.2131 30.2281 36.7311 30.2065 33.4165 30.6067C30.1019 31.0068 26.3601 31.9639 22.2019 33.4833C18.1249 35.0027 14.6642 36.7438 11.8255 38.7013C8.98666 40.6587 7.11035 42.3403 6.19113 43.7408C5.2719 45.1413 4.93124 46.2011 5.16916 46.9202C5.33138 47.4015 6.32631 47.8395 8.17017 48.2396C10.0086 48.6397 12.6852 48.7209 16.2053 48.4775C19.7254 48.2342 23.2401 47.4772 26.7602 46.2011ZM23.04 35.7651C23.3591 35.684 23.7808 35.5434 24.2999 35.3434C24.819 35.1433 25.1597 35.0027 25.3219 34.9216L25.4409 35.0406C26.0032 36.6411 25.6625 38.3011 24.4189 40.0152C23.1806 41.7347 21.4017 42.9946 19.082 43.7949C15.2428 45.2332 12.204 44.952 9.96537 42.9568C13.0853 40.2423 17.4436 37.8415 23.04 35.7651Z" fill="url(#paint0_linear_297_2045)"/>
<defs>
<linearGradient id="paint0_linear_297_2045" x1="9" y1="-3" x2="24" y2="42.5" gradientUnits="userSpaceOnUse">
<stop stop-color="#FFE24D"/>
<stop offset="1" stop-color="#DD8500"/>
</linearGradient>
</defs>
</svg>
