<svg width="694" height="667" viewBox="0 0 694 667" fill="none" xmlns="http://www.w3.org/2000/svg">
<path d="M100.706 385.412L144.941 323.608L201.569 244.549H144.941V216.471L347.451 99.6078L549.961 216.471V290.667L592.941 230.745L636.235 291.451V166.745L347.451 0L58.6667 166.745V244.549H0L58.6667 326.588L100.706 385.412Z" fill="white"/>
<path d="M636.237 337.098L592.942 276.549L549.962 336.47L492.08 417.412H549.962V450.353L347.452 567.216L144.942 450.353V370.039L100.707 431.843L58.668 373.176V500.235L347.452 666.823L636.237 500.235V417.412H693.648L636.237 337.098Z" fill="white"/>
<path d="M252.732 476.15H441.818C449.65 476.15 455.999 469.733 455.999 461.818V299.391C455.999 291.476 449.65 285.059 441.818 285.059H427.636V242.063C427.636 197.282 391.586 160.85 347.275 160.85C302.964 160.85 266.914 197.282 266.914 242.063V285.059H252.732C244.9 285.059 238.551 291.476 238.551 299.391V461.818C238.551 469.733 244.9 476.15 252.732 476.15ZM361.456 385.368V404.491C361.456 412.405 355.107 418.822 347.275 418.822C339.443 418.822 333.094 412.405 333.094 404.491V385.368C327.357 381.006 323.639 374.071 323.639 366.272C323.639 353.101 334.242 342.386 347.275 342.386C360.308 342.386 370.911 353.101 370.911 366.272C370.911 374.071 367.193 381.006 361.456 385.368ZM295.276 242.063C295.276 213.087 318.603 189.513 347.275 189.513C375.947 189.513 399.273 213.087 399.273 242.063V285.059H295.276V242.063Z" fill="white"/>
</svg>
