<svg width="70" height="70" viewBox="0 0 70 70" fill="none" xmlns="http://www.w3.org/2000/svg">
<path d="M41.4231 21.7886L35.9668 27.2449C35.0296 28.1822 33.51 28.1822 32.5727 27.2449L27.4815 22.1538M41.4231 21.7886L46.8794 16.3323C47.8167 15.3951 47.8167 13.8755 46.8794 12.9382L36.6971 2.75589C35.7598 1.81863 34.2402 1.81864 33.3029 2.75589L22.3904 13.6685C21.4531 14.6057 21.4531 16.1253 22.3904 17.0626L27.4815 22.1538M41.4231 21.7886L48.2113 28.5769M48.2113 28.5769L53.6676 23.1206C54.6049 22.1833 56.1245 22.1833 57.0617 23.1206L67.2441 33.3029C68.1813 34.2402 68.1813 35.7598 67.2441 36.697L56.3315 47.6096C55.3942 48.5469 53.8746 48.5469 52.9374 47.6096L47.8462 42.5184M48.2113 28.5769L42.755 34.0331C41.8178 34.9704 41.8178 36.49 42.755 37.4273L47.8462 42.5184M47.8462 42.5184L42.1086 48.256M42.1086 48.256L47.1998 53.3472C48.1371 54.2844 48.1371 55.804 47.1998 56.7413L36.6971 67.244C35.7598 68.1813 34.2402 68.1813 33.3029 67.244L23.1206 57.0617C22.1833 56.1244 22.1833 54.6048 23.1206 53.6676L28.1671 48.6211M42.1086 48.256L37.0175 43.1648C36.0802 42.2276 34.5606 42.2276 33.6234 43.1648L28.1671 48.6211M28.1671 48.6211L21.3788 41.8329M21.3788 41.8329L26.8351 36.3766C27.7724 35.4394 27.7724 33.9198 26.8351 32.9825L21.744 27.8913M21.3788 41.8329L16.3324 46.8794C15.3951 47.8166 13.8755 47.8166 12.9383 46.8794L2.75593 36.697C1.81867 35.7598 1.81867 34.2402 2.75593 33.3029L13.2587 22.8002C14.1959 21.8629 15.7155 21.8629 16.6528 22.8002L21.744 27.8913M21.744 27.8913L27.4815 22.1538" stroke="url(#paint0_linear_26_432)" stroke-width="4"/>
<defs>
<linearGradient id="paint0_linear_26_432" x1="35" y1="-1" x2="35" y2="73.5" gradientUnits="userSpaceOnUse">
<stop stop-color="white"/>
<stop offset="1" stop-color="#79829B"/>
</linearGradient>
</defs>
</svg>
