<svg width="882" height="531" viewBox="0 0 882 531" fill="none" xmlns="http://www.w3.org/2000/svg">
<path d="M520.349 98.8165L483 135.316L504.359 206.338L488.165 242.957V309.299L509.487 333.741L509.488 377.73L488.165 437.29L537.438 367.617L612.983 459.489L740.911 432.719L726.108 386.036L646.107 338.444L655.245 359.34L586.056 348.118L581.487 321.348L545.383 314.965L527.088 292.023L535.097 233.628L561.483 226.759L552.446 167.601L572.905 194.17L641.538 240.558L667.945 243.151L641.539 303.042L686.71 336.795L740.349 296.592L853.435 409.49L881.539 386.212L782.611 201.153L678.474 139.667L699.229 194.17L618.694 167.601L599.276 77.9808L624.405 97.767L663.24 88.4558L740.911 139.667L713.498 77.9808L641.538 11.6389L552.446 0L520.349 48.8835L546.392 108.128L520.349 98.8165Z" fill="white"/>
<path d="M358.427 99.8179L395.49 136.038L374.294 206.517L390.365 242.856V308.69L369.205 332.945L369.205 376.598L390.365 435.702L341.469 366.562L266.502 457.731L139.552 431.167L154.242 384.84L233.631 337.612L224.563 358.348L293.222 347.212L297.756 320.647L333.584 314.312L351.739 291.546L343.791 233.598L317.608 226.782L326.576 168.076L306.273 194.442L238.165 240.475L211.96 243.049L238.164 302.481L193.338 335.976L140.11 296.081L27.8895 408.115L-3.05176e-05 385.015L98.1711 201.372L201.512 140.356L180.915 194.442L260.834 168.076L280.103 79.1416L255.167 98.7764L216.629 89.5365L139.552 140.356L166.756 79.1416L238.165 13.3072L326.576 1.75732L358.427 50.2669L332.583 109.058L358.427 99.8179Z" fill="white"/>
<path d="M410.047 136.968H468.554L488.164 205.982L471.163 242.79V316.406L492.825 338.411V376.468L441.978 530.603L386 376.468V339.81L406.348 316.406L406.348 242.79L391.983 205.982L410.047 136.968Z" fill="white"/>
</svg>
