<svg width="546" height="512" viewBox="0 0 546 512" fill="none" xmlns="http://www.w3.org/2000/svg">
<path d="M532.6 103.8L475.3 13.1C470.2 5 461.1 0 451.4 0H94.5997C84.8997 0 75.7997 5 70.6997 13.1L13.2997 103.8C-16.3003 150.6 9.89974 215.7 65.1997 223.2C69.1997 223.7 73.2997 224 77.2997 224C103.4 224 126.6 212.6 142.5 195C158.4 212.6 181.6 224 207.7 224C233.8 224 257 212.6 272.9 195C288.8 212.6 312 224 338.1 224C364.3 224 387.4 212.6 403.3 195C419.3 212.6 442.4 224 468.5 224C472.6 224 476.6 223.7 480.6 223.2C536.1 215.8 562.4 150.7 532.7 103.8H532.6ZM484.7 254.9C484.7 254.9 484.7 254.9 484.6 254.9C479.3 255.6 473.9 256 468.4 256C456 256 444.1 254.1 433 250.7V384H113V250.6C101.8 254.1 89.7997 256 77.3997 256C71.8997 256 66.3997 255.6 61.0997 254.9H60.9997C56.8997 254.3 52.8997 253.6 48.9997 252.6V384V448C48.9997 483.3 77.6997 512 113 512H433C468.3 512 497 483.3 497 448V384V252.6C493 253.6 489 254.4 484.7 254.9Z" fill="white"/>
</svg>
