<svg width="1366" height="1177" viewBox="0 0 1366 1177" fill="none" xmlns="http://www.w3.org/2000/svg">
<g style="mix-blend-mode:luminosity" opacity="0.67">
<g filter="url(#filter0_i_2348_508)">
<circle cx="575" cy="661" r="512" fill="url(#paint0_radial_2348_508)"/>
</g>
<circle cx="575" cy="661" r="512" stroke="url(#paint1_linear_2348_508)" stroke-width="8"/>
<circle cx="575" cy="650" r="415" stroke="url(#paint2_linear_2348_508)" stroke-width="2"/>
<circle cx="574.5" cy="652.5" r="337.5" stroke="url(#paint3_linear_2348_508)" stroke-width="2"/>
<circle cx="575" cy="661" r="255" stroke="url(#paint4_linear_2348_508)" stroke-width="2"/>
<circle cx="575" cy="661" r="127" stroke="url(#paint5_linear_2348_508)" stroke-width="2"/>
</g>
<mask id="path-6-inside-1_2348_508" fill="white">
<path d="M949.607 311.982C1019.54 387.043 1065.31 481.381 1080.99 582.767C1096.66 684.152 1081.52 787.909 1037.52 880.585C993.523 973.261 922.698 1050.58 834.229 1102.52C745.76 1154.47 643.727 1178.63 541.358 1171.89C438.99 1165.15 341.007 1127.81 260.113 1064.72C179.219 1001.63 119.144 915.685 87.6781 818.039C56.2119 720.394 54.805 615.547 83.6399 517.093C112.475 418.638 170.222 331.116 249.394 265.874L575 661L949.607 311.982Z"/>
</mask>
<path d="M949.607 311.982C1019.54 387.043 1065.31 481.381 1080.99 582.767C1096.66 684.152 1081.52 787.909 1037.52 880.585C993.523 973.261 922.698 1050.58 834.229 1102.52C745.76 1154.47 643.727 1178.63 541.358 1171.89C438.99 1165.15 341.007 1127.81 260.113 1064.72C179.219 1001.63 119.144 915.685 87.6781 818.039C56.2119 720.394 54.805 615.547 83.6399 517.093C112.475 418.638 170.222 331.116 249.394 265.874L575 661L949.607 311.982Z" fill="url(#paint6_linear_2348_508)" fill-opacity="0.85" stroke="url(#paint7_linear_2348_508)" stroke-width="16" mask="url(#path-6-inside-1_2348_508)"/>
<mask id="path-7-inside-2_2348_508" fill="white">
<path d="M412.136 463.487C428.763 449.777 447.055 438.221 466.578 429.093L575 661L412.136 463.487Z"/>
</mask>
<path d="M412.136 463.487C428.763 449.777 447.055 438.221 466.578 429.093L575 661L412.136 463.487Z" fill="url(#paint8_linear_2348_508)" fill-opacity="0.95" stroke="#00BE16" stroke-width="16" mask="url(#path-7-inside-2_2348_508)"/>
<mask id="path-8-inside-3_2348_508" fill="white">
<path d="M427.267 345.914C480.672 320.875 539.564 309.82 598.413 313.788L575 661L427.267 345.914Z"/>
</mask>
<path d="M427.267 345.914C480.672 320.875 539.564 309.82 598.413 313.788L575 661L427.267 345.914Z" fill="url(#paint9_linear_2348_508)" fill-opacity="0.95" stroke="#FF6A00" stroke-width="16" mask="url(#path-8-inside-3_2348_508)"/>
<mask id="path-9-inside-4_2348_508" fill="white">
<path d="M604.298 235.006C712.29 242.433 813.431 290.599 887.263 369.76L575 661L604.298 235.006Z"/>
</mask>
<path d="M604.298 235.006C712.29 242.433 813.431 290.599 887.263 369.76L575 661L604.298 235.006Z" fill="url(#paint10_linear_2348_508)" fill-opacity="0.95" stroke="#F7FF00" stroke-width="16" mask="url(#path-9-inside-4_2348_508)"/>
<circle cx="575" cy="661" r="124" fill="url(#paint11_radial_2348_508)" stroke="url(#paint12_linear_2348_508)" stroke-width="8"/>
<path d="M542.612 648.042C542.578 659.77 552.247 663.717 562.256 661.602C573.882 659.152 583.193 653.177 590.19 643.677C593.492 639.198 593.944 632.503 586.808 631.452C581.131 630.615 576.788 632.085 571.88 634.573C568.815 636.134 565.592 632.447 566.904 629.427C567.304 628.507 568.239 627.554 569.709 626.566C577.727 621.172 591.321 618.209 599.542 624.27C611.202 632.854 606.656 648.63 599.271 658.096C592.191 667.166 583.061 673.703 571.88 677.706C561.894 681.28 548.47 681.653 539.954 675.637C528.057 667.234 526.813 653.505 532.423 640.872C535.755 633.378 541.165 626.257 548.651 619.509C564.201 605.497 584.479 595.794 605.491 596.619C631.061 597.637 645.503 616.512 639.746 641.573C636.557 655.476 629.843 667.355 619.605 677.209C600.492 695.609 574.165 708.875 547.204 710.447C537.365 711.023 527.232 709.915 518.343 705.742C504.975 699.454 498.914 686.188 500.746 671.645C501.794 663.336 505.209 655.224 510.992 647.307C511.066 647.205 511.161 647.121 511.271 647.06C511.38 646.999 511.501 646.964 511.625 646.957C512.108 646.926 512.458 647.126 512.677 647.556C512.812 647.82 512.846 648.095 512.779 648.382C509.895 660.324 506.525 674.087 515.391 684.481C535.939 708.597 581.643 685.365 599.542 671.645C612.548 661.681 631.265 635.116 621.867 617.892C616.427 607.928 605.027 604.875 594.216 605.961C580.992 607.28 569.136 612.418 558.648 621.375C550.936 627.968 542.635 637.943 542.612 648.042Z" fill="url(#paint13_linear_2348_508)"/>
<path d="M48.7965 141.933C48.6426 140.381 47.9821 139.176 46.8151 138.317C45.6481 137.457 44.0642 137.028 42.0636 137.028C40.7041 137.028 39.5563 137.22 38.6201 137.605C37.6839 137.977 36.9657 138.496 36.4656 139.163C35.9782 139.83 35.7346 140.587 35.7346 141.433C35.7089 142.138 35.8564 142.754 36.177 143.28C36.5105 143.806 36.9657 144.261 37.5429 144.646C38.12 145.018 38.7869 145.345 39.5435 145.627C40.3002 145.896 41.1081 146.127 41.9674 146.319L45.507 147.166C47.2255 147.55 48.8029 148.063 50.2393 148.705C51.6757 149.346 52.9196 150.135 53.9713 151.071C55.0229 152.007 55.8373 153.11 56.4144 154.38C57.0043 155.649 57.3057 157.105 57.3185 158.746C57.3057 161.157 56.6901 163.248 55.4718 165.018C54.2662 166.775 52.5221 168.14 50.2393 169.115C47.9693 170.077 45.2313 170.558 42.0251 170.558C38.8446 170.558 36.0744 170.071 33.7147 169.096C31.3678 168.121 29.5338 166.678 28.2129 164.768C26.9048 162.844 26.2187 160.465 26.1545 157.631H34.2149C34.3046 158.952 34.683 160.054 35.3498 160.939C36.0295 161.811 36.9337 162.472 38.0623 162.921C39.2037 163.357 40.4925 163.575 41.9289 163.575C43.3396 163.575 44.5644 163.37 45.6032 162.959C46.6548 162.549 47.4692 161.978 48.0463 161.247C48.6234 160.516 48.9119 159.676 48.9119 158.727C48.9119 157.842 48.649 157.098 48.1232 156.496C47.6102 155.893 46.8536 155.38 45.8532 154.957C44.8657 154.533 43.6538 154.149 42.2175 153.802L37.9276 152.725C34.606 151.917 31.9834 150.654 30.0597 148.935C28.136 147.217 27.1805 144.902 27.1933 141.991C27.1805 139.606 27.8153 137.522 29.0978 135.739C30.3931 133.956 32.1693 132.565 34.4265 131.564C36.6836 130.564 39.2485 130.064 42.1213 130.064C45.0453 130.064 47.5974 130.564 49.7776 131.564C51.9706 132.565 53.6763 133.956 54.8946 135.739C56.113 137.522 56.7414 139.586 56.7799 141.933H48.7965ZM76.2333 170.577C73.1939 170.577 70.5776 169.962 68.3846 168.73C66.2044 167.486 64.5244 165.729 63.3445 163.459C62.1646 161.177 61.5747 158.477 61.5747 155.361C61.5747 152.321 62.1646 149.654 63.3445 147.358C64.5244 145.062 66.1852 143.273 68.3269 141.991C70.4814 140.708 73.0079 140.067 75.9063 140.067C77.8556 140.067 79.6703 140.381 81.3503 141.01C83.0432 141.625 84.518 142.555 85.7749 143.799C87.0445 145.043 88.032 146.608 88.7374 148.493C89.4427 150.365 89.7954 152.558 89.7954 155.072V157.323H64.845V152.244H82.0814C82.0814 151.064 81.8249 150.019 81.3119 149.109C80.7989 148.198 80.0871 147.486 79.1766 146.973C78.2788 146.447 77.2336 146.185 76.0409 146.185C74.7969 146.185 73.694 146.473 72.7322 147.05C71.7831 147.615 71.0393 148.378 70.5007 149.339C69.962 150.288 69.6863 151.347 69.6735 152.514V157.342C69.6735 158.804 69.9428 160.067 70.4814 161.132C71.0329 162.196 71.8088 163.017 72.8091 163.594C73.8094 164.171 74.9957 164.46 76.368 164.46C77.2785 164.46 78.1121 164.331 78.8688 164.075C79.6254 163.819 80.2731 163.434 80.8117 162.921C81.3503 162.408 81.7607 161.779 82.0429 161.036L89.6223 161.536C89.2375 163.357 88.4488 164.947 87.2561 166.306C86.0762 167.653 84.5501 168.705 82.6777 169.461C80.8181 170.205 78.67 170.577 76.2333 170.577ZM108.609 170.577C105.57 170.577 102.954 169.962 100.76 168.73C98.5803 167.486 96.9003 165.729 95.7204 163.459C94.5405 161.177 93.9506 158.477 93.9506 155.361C93.9506 152.321 94.5405 149.654 95.7204 147.358C96.9003 145.062 98.5611 143.273 100.703 141.991C102.857 140.708 105.384 140.067 108.282 140.067C110.232 140.067 112.046 140.381 113.726 141.01C115.419 141.625 116.894 142.555 118.151 143.799C119.42 145.043 120.408 146.608 121.113 148.493C121.819 150.365 122.171 152.558 122.171 155.072V157.323H97.2209V152.244H114.457C114.457 151.064 114.201 150.019 113.688 149.109C113.175 148.198 112.463 147.486 111.552 146.973C110.655 146.447 109.61 146.185 108.417 146.185C107.173 146.185 106.07 146.473 105.108 147.05C104.159 147.615 103.415 148.378 102.877 149.339C102.338 150.288 102.062 151.347 102.049 152.514V157.342C102.049 158.804 102.319 160.067 102.857 161.132C103.409 162.196 104.185 163.017 105.185 163.594C106.185 164.171 107.372 164.46 108.744 164.46C109.654 164.46 110.488 164.331 111.245 164.075C112.001 163.819 112.649 163.434 113.188 162.921C113.726 162.408 114.137 161.779 114.419 161.036L121.998 161.536C121.613 163.357 120.825 164.947 119.632 166.306C118.452 167.653 116.926 168.705 115.054 169.461C113.194 170.205 111.046 170.577 108.609 170.577ZM138.407 170.481C136.163 170.481 134.13 169.904 132.309 168.75C130.501 167.583 129.065 165.87 128 163.613C126.948 161.343 126.423 158.56 126.423 155.264C126.423 151.879 126.968 149.064 128.058 146.819C129.148 144.562 130.597 142.876 132.405 141.76C134.226 140.631 136.221 140.067 138.388 140.067C140.042 140.067 141.421 140.349 142.524 140.914C143.64 141.465 144.538 142.158 145.217 142.991C145.91 143.812 146.436 144.62 146.795 145.415H147.045V130.603H155.22V170H147.141V165.268H146.795C146.41 166.088 145.865 166.903 145.16 167.711C144.467 168.506 143.563 169.166 142.447 169.692C141.344 170.218 139.998 170.481 138.407 170.481ZM141.004 163.96C142.325 163.96 143.441 163.6 144.352 162.882C145.275 162.151 145.98 161.132 146.468 159.824C146.968 158.516 147.218 156.983 147.218 155.226C147.218 153.469 146.974 151.943 146.487 150.648C146 149.352 145.294 148.352 144.371 147.647C143.447 146.941 142.325 146.589 141.004 146.589C139.658 146.589 138.523 146.954 137.599 147.685C136.676 148.416 135.977 149.429 135.503 150.725C135.028 152.02 134.791 153.52 134.791 155.226C134.791 156.944 135.028 158.464 135.503 159.785C135.99 161.093 136.689 162.119 137.599 162.863C138.523 163.594 139.658 163.96 141.004 163.96Z" fill="white"/>
<path d="M26.73 228.289V225.971L40.6546 203.765H42.3628V207.654H41.0969L29.9176 225.529V225.727H48.1736V228.289H26.73ZM41.3104 235V227.557V226.49V203.765H44.0252V235H41.3104ZM70.1624 229.204V227.786C70.1624 226.617 70.3963 225.564 70.864 224.629C71.3317 223.683 71.9977 222.936 72.8619 222.387C73.7262 221.838 74.7531 221.563 75.9427 221.563C77.1425 221.563 78.1695 221.838 79.0235 222.387C79.8776 222.936 80.5334 223.683 80.991 224.629C81.4485 225.564 81.6773 226.617 81.6773 227.786V229.204C81.6773 230.374 81.4434 231.426 80.9757 232.361C80.5182 233.297 79.8624 234.044 79.0083 234.603C78.1542 235.153 77.1324 235.427 75.9427 235.427C74.7328 235.427 73.6957 235.153 72.8314 234.603C71.9774 234.044 71.3165 233.297 70.8487 232.361C70.3912 231.426 70.1624 230.374 70.1624 229.204ZM72.5569 227.786V229.204C72.5569 230.353 72.8365 231.335 73.3957 232.148C73.9651 232.951 74.8141 233.353 75.9427 233.353C77.0409 233.353 77.8695 232.951 78.4287 232.148C78.988 231.335 79.2676 230.353 79.2676 229.204V227.786C79.2676 226.637 78.993 225.661 78.444 224.858C77.8949 224.044 77.0612 223.638 75.9427 223.638C74.8345 223.638 73.9906 224.044 73.411 224.858C72.8416 225.661 72.5569 226.637 72.5569 227.786ZM54.4229 210.979V209.561C54.4229 208.391 54.6568 207.339 55.1245 206.403C55.5922 205.468 56.2582 204.726 57.1224 204.177C57.9867 203.618 59.0136 203.338 60.2032 203.338C61.403 203.338 62.4299 203.618 63.284 204.177C64.1381 204.726 64.7939 205.468 65.2515 206.403C65.709 207.339 65.9378 208.391 65.9378 209.561V210.979C65.9378 212.148 65.7039 213.206 65.2362 214.151C64.7787 215.087 64.1228 215.829 63.2688 216.378C62.4147 216.927 61.3928 217.202 60.2032 217.202C58.9933 217.202 57.9562 216.927 57.0919 216.378C56.2378 215.829 55.5769 215.087 55.1092 214.151C54.6517 213.206 54.4229 212.148 54.4229 210.979ZM56.8174 209.561V210.979C56.8174 212.128 57.097 213.109 57.6562 213.922C58.2256 214.726 59.0746 215.127 60.2032 215.127C61.3013 215.127 62.13 214.726 62.6892 213.922C63.2484 213.109 63.528 212.128 63.528 210.979V209.561C63.528 208.412 63.2535 207.435 62.7045 206.632C62.1554 205.819 61.3217 205.412 60.2032 205.412C59.0949 205.412 58.251 205.819 57.6715 206.632C57.1021 207.435 56.8174 208.412 56.8174 209.561ZM55.826 235L77.2849 203.765H79.9844L58.5255 235H55.826Z" fill="white"/>
<path d="M456.667 482.5C456.667 485.446 459.054 487.833 462 487.833C464.946 487.833 467.333 485.446 467.333 482.5C467.333 479.554 464.946 477.167 462 477.167C459.054 477.167 456.667 479.554 456.667 482.5ZM0.666667 190.5C0.666667 193.446 3.05448 195.833 6 195.833C8.94552 195.833 11.3333 193.446 11.3333 190.5C11.3333 187.554 8.94552 185.167 6 185.167C3.05448 185.167 0.666667 187.554 0.666667 190.5ZM273.044 218.504L272.231 219.086L273.044 218.504ZM462.813 481.918L273.857 217.922L272.231 219.086L461.187 483.082L462.813 481.918ZM218.562 189.5H6V191.5H218.562V189.5ZM273.857 217.922C261.089 200.083 240.499 189.5 218.562 189.5V191.5C239.854 191.5 259.838 201.772 272.231 219.086L273.857 217.922Z" fill="#37FF00"/>
<path d="M228.924 20.4702V13.6026H261.28V20.4702H249.219V53H240.985V20.4702H228.924ZM275.636 53.5771C272.597 53.5771 269.98 52.9615 267.787 51.7304C265.607 50.4864 263.927 48.7294 262.747 46.4594C261.567 44.1766 260.977 41.477 260.977 38.3606C260.977 35.3212 261.567 32.6537 262.747 30.358C263.927 28.0624 265.588 26.2734 267.73 24.9909C269.884 23.7084 272.411 23.0672 275.309 23.0672C277.258 23.0672 279.073 23.3814 280.753 24.0098C282.446 24.6254 283.921 25.5552 285.178 26.7992C286.447 28.0432 287.435 29.6078 288.14 31.493C288.845 33.3654 289.198 35.5584 289.198 38.0721V40.3228H264.248V35.2442H281.484C281.484 34.0644 281.228 33.0192 280.715 32.1086C280.202 31.1981 279.49 30.4863 278.579 29.9733C277.682 29.4475 276.636 29.1846 275.444 29.1846C274.2 29.1846 273.097 29.4731 272.135 30.0502C271.186 30.6145 270.442 31.3776 269.903 32.3394C269.365 33.2885 269.089 34.3465 269.076 35.5136V40.342C269.076 41.8041 269.345 43.0673 269.884 44.1317C270.436 45.1962 271.211 46.017 272.212 46.5941C273.212 47.1712 274.398 47.4597 275.771 47.4597C276.681 47.4597 277.515 47.3315 278.271 47.075C279.028 46.8185 279.676 46.4338 280.214 45.9208C280.753 45.4078 281.163 44.7794 281.446 44.0356L289.025 44.5357C288.64 46.3568 287.851 47.9471 286.659 49.3065C285.479 50.6531 283.953 51.7047 282.08 52.4614C280.221 53.2052 278.073 53.5771 275.636 53.5771ZM302.972 53.5579C301.087 53.5579 299.407 53.2308 297.932 52.5768C296.457 51.9099 295.29 50.9288 294.431 49.6335C293.584 48.3254 293.161 46.6967 293.161 44.7473C293.161 43.1058 293.462 41.7271 294.065 40.6114C294.668 39.4956 295.489 38.5979 296.527 37.9182C297.566 37.2385 298.746 36.7255 300.067 36.3792C301.401 36.033 302.799 35.7893 304.261 35.6482C305.979 35.4687 307.364 35.3019 308.416 35.1481C309.467 34.9813 310.231 34.7377 310.705 34.417C311.18 34.0964 311.417 33.6219 311.417 32.9935V32.8781C311.417 31.6597 311.032 30.7171 310.263 30.0502C309.506 29.3834 308.429 29.0499 307.031 29.0499C305.556 29.0499 304.382 29.3769 303.51 30.031C302.638 30.6722 302.061 31.4802 301.779 32.4549L294.2 31.8393C294.584 30.0438 295.341 28.492 296.47 27.1839C297.598 25.863 299.054 24.8498 300.836 24.1445C302.632 23.4263 304.71 23.0672 307.069 23.0672C308.711 23.0672 310.282 23.2596 311.782 23.6443C313.296 24.0291 314.636 24.6254 315.803 25.4334C316.983 26.2413 317.913 27.2801 318.592 28.5498C319.272 29.8066 319.612 31.3135 319.612 33.0705V53H311.84V48.9025H311.609C311.135 49.8259 310.5 50.6403 309.705 51.3456C308.91 52.0381 307.954 52.5832 306.838 52.9808C305.723 53.3655 304.434 53.5579 302.972 53.5579ZM305.319 47.9022C306.524 47.9022 307.589 47.6649 308.512 47.1904C309.435 46.7031 310.16 46.049 310.686 45.2282C311.212 44.4075 311.475 43.4777 311.475 42.4389V39.3032C311.218 39.47 310.865 39.6239 310.416 39.7649C309.98 39.8932 309.487 40.015 308.935 40.1304C308.384 40.233 307.832 40.3292 307.281 40.419C306.729 40.4959 306.229 40.5665 305.78 40.6306C304.819 40.7717 303.979 40.9961 303.26 41.3039C302.542 41.6117 301.984 42.0285 301.587 42.5543C301.189 43.0673 300.99 43.7085 300.99 44.478C300.99 45.5937 301.394 46.4466 302.202 47.0365C303.023 47.6136 304.062 47.9022 305.319 47.9022ZM325.97 53V23.4519H333.78V28.6652H334.126C334.742 26.9338 335.768 25.568 337.204 24.5677C338.64 23.5674 340.359 23.0672 342.36 23.0672C344.386 23.0672 346.111 23.5738 347.534 24.5869C348.958 25.5873 349.907 26.9467 350.381 28.6652H350.689C351.292 26.9723 352.382 25.6193 353.959 24.6062C355.55 23.5802 357.429 23.0672 359.596 23.0672C362.353 23.0672 364.591 23.9457 366.31 25.7027C368.041 27.4468 368.907 29.922 368.907 33.1282V53H360.731V34.7441C360.731 33.1025 360.295 31.8713 359.423 31.0506C358.551 30.2298 357.461 29.8194 356.152 29.8194C354.665 29.8194 353.504 30.2939 352.671 31.2429C351.837 32.1791 351.42 33.4167 351.42 34.9557V53H343.475V34.5709C343.475 33.1218 343.058 31.9675 342.225 31.1083C341.404 30.249 340.32 29.8194 338.974 29.8194C338.063 29.8194 337.243 30.0502 336.512 30.5119C335.793 30.9608 335.223 31.5956 334.799 32.4164C334.376 33.2244 334.165 34.1734 334.165 35.2635V53H325.97Z" fill="white"/>
<path d="M240.132 115.427C238.139 115.427 236.364 115.051 234.809 114.298C233.253 113.546 232.033 112.519 231.148 111.218C230.264 109.906 229.822 108.427 229.822 106.779C229.822 105.488 230.091 104.283 230.63 103.165C231.169 102.036 231.911 101.091 232.857 100.328C233.802 99.5553 234.865 99.052 236.044 98.8182V98.6504C234.509 98.203 233.273 97.3235 232.338 96.0119C231.403 94.6901 230.94 93.1904 230.95 91.5127C230.94 89.9571 231.337 88.5641 232.14 87.3338C232.943 86.1035 234.036 85.1325 235.419 84.4208C236.812 83.6989 238.383 83.3379 240.132 83.3379C241.87 83.3379 243.431 83.6989 244.814 84.4208C246.197 85.1325 247.29 86.1035 248.093 87.3338C248.906 88.5641 249.318 89.9571 249.328 91.5127C249.318 93.1802 248.845 94.6799 247.91 96.0119C246.974 97.3337 245.744 98.2132 244.219 98.6504V98.8182C245.398 99.0419 246.456 99.5401 247.391 100.313C248.327 101.086 249.069 102.036 249.618 103.165C250.167 104.283 250.442 105.488 250.442 106.779C250.442 108.427 249.994 109.906 249.099 111.218C248.215 112.519 246.995 113.546 245.439 114.298C243.894 115.051 242.124 115.427 240.132 115.427ZM240.132 112.865C241.616 112.865 242.917 112.6 244.036 112.072C245.165 111.533 246.044 110.796 246.674 109.86C247.315 108.925 247.635 107.852 247.635 106.642C247.635 105.392 247.305 104.278 246.644 103.302C245.983 102.316 245.088 101.538 243.96 100.969C242.831 100.389 241.555 100.099 240.132 100.099C238.708 100.099 237.427 100.389 236.288 100.969C235.16 101.538 234.265 102.316 233.604 103.302C232.953 104.278 232.628 105.392 232.628 106.642C232.628 107.852 232.938 108.925 233.558 109.86C234.189 110.796 235.068 111.533 236.197 112.072C237.335 112.6 238.647 112.865 240.132 112.865ZM240.132 97.6591C241.352 97.6591 242.445 97.3998 243.411 96.8812C244.377 96.3627 245.139 95.656 245.698 94.7613C246.268 93.8564 246.557 92.8294 246.568 91.6805C246.557 90.5417 246.273 89.5351 245.714 88.6607C245.154 87.7761 244.392 87.0898 243.426 86.6017C242.47 86.1035 241.372 85.8544 240.132 85.8544C238.891 85.8544 237.783 86.1035 236.807 86.6017C235.841 87.0898 235.078 87.7761 234.519 88.6607C233.97 89.5351 233.7 90.5417 233.711 91.6805C233.7 92.8294 233.975 93.8564 234.534 94.7613C235.104 95.656 235.871 96.3627 236.837 96.8812C237.813 97.3998 238.911 97.6591 240.132 97.6591ZM272.575 109.204V107.786C272.575 106.617 272.809 105.564 273.277 104.629C273.745 103.683 274.411 102.936 275.275 102.387C276.139 101.838 277.166 101.563 278.356 101.563C279.555 101.563 280.582 101.838 281.436 102.387C282.29 102.936 282.946 103.683 283.404 104.629C283.861 105.564 284.09 106.617 284.09 107.786V109.204C284.09 110.374 283.856 111.426 283.389 112.361C282.931 113.297 282.275 114.044 281.421 114.603C280.567 115.153 279.545 115.427 278.356 115.427C277.146 115.427 276.109 115.153 275.244 114.603C274.39 114.044 273.729 113.297 273.262 112.361C272.804 111.426 272.575 110.374 272.575 109.204ZM274.97 107.786V109.204C274.97 110.353 275.249 111.335 275.809 112.148C276.378 112.951 277.227 113.353 278.356 113.353C279.454 113.353 280.282 112.951 280.842 112.148C281.401 111.335 281.68 110.353 281.68 109.204V107.786C281.68 106.637 281.406 105.661 280.857 104.858C280.308 104.044 279.474 103.638 278.356 103.638C277.247 103.638 276.403 104.044 275.824 104.858C275.254 105.661 274.97 106.637 274.97 107.786ZM256.836 90.9789V89.5605C256.836 88.3912 257.07 87.3389 257.537 86.4035C258.005 85.468 258.671 84.7258 259.535 84.1767C260.399 83.6175 261.426 83.3379 262.616 83.3379C263.816 83.3379 264.843 83.6175 265.697 84.1767C266.551 84.7258 267.207 85.468 267.664 86.4035C268.122 87.3389 268.351 88.3912 268.351 89.5605V90.9789C268.351 92.1482 268.117 93.2056 267.649 94.1512C267.191 95.0866 266.536 95.8289 265.682 96.3779C264.827 96.927 263.806 97.2015 262.616 97.2015C261.406 97.2015 260.369 96.927 259.505 96.3779C258.651 95.8289 257.99 95.0866 257.522 94.1512C257.064 93.2056 256.836 92.1482 256.836 90.9789ZM259.23 89.5605V90.9789C259.23 92.1279 259.51 93.109 260.069 93.9224C260.638 94.7257 261.487 95.1273 262.616 95.1273C263.714 95.1273 264.543 94.7257 265.102 93.9224C265.661 93.109 265.941 92.1279 265.941 90.9789V89.5605C265.941 88.4116 265.666 87.4355 265.117 86.6322C264.568 85.8188 263.734 85.4121 262.616 85.4121C261.508 85.4121 260.664 85.8188 260.084 86.6322C259.515 87.4355 259.23 88.4116 259.23 89.5605ZM258.239 115L279.698 83.765H282.397L260.938 115H258.239Z" fill="white"/>
<path d="M531.167 364C531.167 366.946 533.554 369.333 536.5 369.333C539.446 369.333 541.833 366.946 541.833 364C541.833 361.054 539.446 358.667 536.5 358.667C533.554 358.667 531.167 361.054 531.167 364ZM211.167 71C211.167 73.9455 213.554 76.3333 216.5 76.3333C219.446 76.3333 221.833 73.9455 221.833 71C221.833 68.0545 219.446 65.6667 216.5 65.6667C213.554 65.6667 211.167 68.0545 211.167 71ZM401.72 87.8418L402.618 87.4032L401.72 87.8418ZM537.399 363.561L402.618 87.4032L400.821 88.2804L535.601 364.439L537.399 363.561ZM374.759 70H216.5V72H374.759V70ZM402.618 87.4032C397.421 76.7546 386.609 70 374.759 70V72C385.844 72 395.959 78.3188 400.821 88.2804L402.618 87.4032Z" fill="#FF5500"/>
<path d="M929.151 96.9332C928.997 95.3814 928.337 94.1759 927.17 93.3166C926.003 92.4574 924.419 92.0278 922.418 92.0278C921.059 92.0278 919.911 92.2201 918.975 92.6049C918.038 92.9768 917.32 93.4962 916.82 94.1631C916.333 94.83 916.089 95.5866 916.089 96.433C916.063 97.1384 916.211 97.754 916.531 98.2798C916.865 98.8056 917.32 99.2609 917.897 99.6456C918.474 100.018 919.141 100.345 919.898 100.627C920.655 100.896 921.463 101.127 922.322 101.319L925.861 102.166C927.58 102.55 929.157 103.063 930.594 103.705C932.03 104.346 933.274 105.135 934.326 106.071C935.377 107.007 936.192 108.11 936.769 109.38C937.359 110.649 937.66 112.105 937.673 113.746C937.66 116.157 937.045 118.248 935.826 120.018C934.621 121.775 932.877 123.14 930.594 124.115C928.324 125.077 925.586 125.558 922.38 125.558C919.199 125.558 916.429 125.071 914.069 124.096C911.722 123.121 909.888 121.678 908.567 119.768C907.259 117.844 906.573 115.465 906.509 112.631H914.569C914.659 113.952 915.037 115.054 915.704 115.939C916.384 116.811 917.288 117.472 918.417 117.921C919.558 118.357 920.847 118.575 922.283 118.575C923.694 118.575 924.919 118.37 925.958 117.959C927.009 117.549 927.824 116.978 928.401 116.247C928.978 115.516 929.266 114.676 929.266 113.727C929.266 112.842 929.003 112.098 928.478 111.496C927.965 110.893 927.208 110.38 926.208 109.957C925.22 109.533 924.008 109.149 922.572 108.802L918.282 107.725C914.96 106.917 912.338 105.654 910.414 103.935C908.49 102.217 907.535 99.9021 907.548 96.9909C907.535 94.6055 908.17 92.5215 909.452 90.7389C910.748 88.9562 912.524 87.5648 914.781 86.5644C917.038 85.5641 919.603 85.064 922.476 85.064C925.4 85.064 927.952 85.5641 930.132 86.5644C932.325 87.5648 934.031 88.9562 935.249 90.7389C936.467 92.5215 937.096 94.5863 937.134 96.9332H929.151ZM976.229 85.6026V125H969.034L951.894 100.203H951.605V125H943.276V85.6026H950.586L967.591 110.38H967.938V85.6026H976.229ZM1004.48 96.9332C1004.33 95.3814 1003.67 94.1759 1002.5 93.3166C1001.33 92.4574 999.751 92.0278 997.75 92.0278C996.391 92.0278 995.243 92.2201 994.307 92.6049C993.371 92.9768 992.652 93.4962 992.152 94.1631C991.665 94.83 991.421 95.5866 991.421 96.433C991.396 97.1384 991.543 97.754 991.864 98.2798C992.197 98.8056 992.652 99.2609 993.229 99.6456C993.807 100.018 994.473 100.345 995.23 100.627C995.987 100.896 996.795 101.127 997.654 101.319L1001.19 102.166C1002.91 102.55 1004.49 103.063 1005.93 103.705C1007.36 104.346 1008.61 105.135 1009.66 106.071C1010.71 107.007 1011.52 108.11 1012.1 109.38C1012.69 110.649 1012.99 112.105 1013.01 113.746C1012.99 116.157 1012.38 118.248 1011.16 120.018C1009.95 121.775 1008.21 123.14 1005.93 124.115C1003.66 125.077 1000.92 125.558 997.712 125.558C994.531 125.558 991.761 125.071 989.401 124.096C987.054 123.121 985.22 121.678 983.9 119.768C982.591 117.844 981.905 115.465 981.841 112.631H989.901C989.991 113.952 990.37 115.054 991.036 115.939C991.716 116.811 992.62 117.472 993.749 117.921C994.89 118.357 996.179 118.575 997.615 118.575C999.026 118.575 1000.25 118.37 1001.29 117.959C1002.34 117.549 1003.16 116.978 1003.73 116.247C1004.31 115.516 1004.6 114.676 1004.6 113.727C1004.6 112.842 1004.34 112.098 1003.81 111.496C1003.3 110.893 1002.54 110.38 1001.54 109.957C1000.55 109.533 999.34 109.149 997.904 108.802L993.614 107.725C990.293 106.917 987.67 105.654 985.746 103.935C983.823 102.217 982.867 99.9021 982.88 96.9909C982.867 94.6055 983.502 92.5215 984.784 90.7389C986.08 88.9562 987.856 87.5648 990.113 86.5644C992.37 85.5641 994.935 85.064 997.808 85.064C1000.73 85.064 1003.28 85.5641 1005.46 86.5644C1007.66 87.5648 1009.36 88.9562 1010.58 90.7389C1011.8 92.5215 1012.43 94.5863 1012.47 96.9332H1004.48ZM1052.52 96.9332C1052.36 95.3814 1051.7 94.1759 1050.54 93.3166C1049.37 92.4574 1047.79 92.0278 1045.78 92.0278C1044.43 92.0278 1043.28 92.2201 1042.34 92.6049C1041.41 92.9768 1040.69 93.4962 1040.19 94.1631C1039.7 94.83 1039.46 95.5866 1039.46 96.433C1039.43 97.1384 1039.58 97.754 1039.9 98.2798C1040.23 98.8056 1040.69 99.2609 1041.26 99.6456C1041.84 100.018 1042.51 100.345 1043.26 100.627C1044.02 100.896 1044.83 101.127 1045.69 101.319L1049.23 102.166C1050.95 102.55 1052.52 103.063 1053.96 103.705C1055.4 104.346 1056.64 105.135 1057.69 106.071C1058.74 107.007 1059.56 108.11 1060.14 109.38C1060.73 110.649 1061.03 112.105 1061.04 113.746C1061.03 116.157 1060.41 118.248 1059.19 120.018C1057.99 121.775 1056.24 123.14 1053.96 124.115C1051.69 125.077 1048.95 125.558 1045.75 125.558C1042.57 125.558 1039.8 125.071 1037.44 124.096C1035.09 123.121 1033.26 121.678 1031.93 119.768C1030.63 117.844 1029.94 115.465 1029.88 112.631H1037.94C1038.03 113.952 1038.4 115.054 1039.07 115.939C1039.75 116.811 1040.66 117.472 1041.78 117.921C1042.93 118.357 1044.21 118.575 1045.65 118.575C1047.06 118.575 1048.29 118.37 1049.32 117.959C1050.38 117.549 1051.19 116.978 1051.77 116.247C1052.34 115.516 1052.63 114.676 1052.63 113.727C1052.63 112.842 1052.37 112.098 1051.84 111.496C1051.33 110.893 1050.57 110.38 1049.57 109.957C1048.59 109.533 1047.38 109.149 1045.94 108.802L1041.65 107.725C1038.33 106.917 1035.7 105.654 1033.78 103.935C1031.86 102.217 1030.9 99.9021 1030.91 96.9909C1030.9 94.6055 1031.54 92.5215 1032.82 90.7389C1034.11 88.9562 1035.89 87.5648 1038.15 86.5644C1040.41 85.5641 1042.97 85.064 1045.84 85.064C1048.77 85.064 1051.32 85.5641 1053.5 86.5644C1055.69 87.5648 1057.4 88.9562 1058.62 90.7389C1059.83 92.5215 1060.46 94.5863 1060.5 96.9332H1052.52ZM1072.32 125L1064.28 95.4519H1072.57L1077.15 115.305H1077.42L1082.19 95.4519H1090.32L1095.17 115.189H1095.42L1099.92 95.4519H1108.19L1100.17 125H1091.5L1086.42 106.417H1086.05L1080.97 125H1072.32ZM1120.99 125.558C1119.11 125.558 1117.43 125.231 1115.95 124.577C1114.48 123.91 1113.31 122.929 1112.45 121.634C1111.6 120.325 1111.18 118.697 1111.18 116.747C1111.18 115.106 1111.48 113.727 1112.09 112.611C1112.69 111.496 1113.51 110.598 1114.55 109.918C1115.59 109.238 1116.77 108.725 1118.09 108.379C1119.42 108.033 1120.82 107.789 1122.28 107.648C1124 107.469 1125.38 107.302 1126.44 107.148C1127.49 106.981 1128.25 106.738 1128.73 106.417C1129.2 106.096 1129.44 105.622 1129.44 104.994V104.878C1129.44 103.66 1129.05 102.717 1128.28 102.05C1127.53 101.383 1126.45 101.05 1125.05 101.05C1123.58 101.05 1122.4 101.377 1121.53 102.031C1120.66 102.672 1120.08 103.48 1119.8 104.455L1112.22 103.839C1112.6 102.044 1113.36 100.492 1114.49 99.1839C1115.62 97.863 1117.07 96.8498 1118.86 96.1445C1120.65 95.4263 1122.73 95.0672 1125.09 95.0672C1126.73 95.0672 1128.3 95.2596 1129.8 95.6443C1131.32 96.0291 1132.66 96.6254 1133.82 97.4334C1135 98.2413 1135.93 99.2801 1136.61 100.55C1137.29 101.807 1137.63 103.313 1137.63 105.07V125H1129.86V120.903H1129.63C1129.15 121.826 1128.52 122.64 1127.73 123.346C1126.93 124.038 1125.97 124.583 1124.86 124.981C1123.74 125.366 1122.45 125.558 1120.99 125.558ZM1123.34 119.902C1124.54 119.902 1125.61 119.665 1126.53 119.19C1127.46 118.703 1128.18 118.049 1128.71 117.228C1129.23 116.407 1129.49 115.478 1129.49 114.439V111.303C1129.24 111.47 1128.89 111.624 1128.44 111.765C1128 111.893 1127.51 112.015 1126.96 112.13C1126.4 112.233 1125.85 112.329 1125.3 112.419C1124.75 112.496 1124.25 112.566 1123.8 112.631C1122.84 112.772 1122 112.996 1121.28 113.304C1120.56 113.612 1120 114.028 1119.61 114.554C1119.21 115.067 1119.01 115.709 1119.01 116.478C1119.01 117.594 1119.41 118.447 1120.22 119.037C1121.04 119.614 1122.08 119.902 1123.34 119.902ZM1143.99 136.081V95.4519H1152.07V100.415H1152.43C1152.79 99.62 1153.31 98.812 1153.99 97.9912C1154.69 97.1576 1155.58 96.4651 1156.69 95.9136C1157.8 95.3494 1159.19 95.0672 1160.84 95.0672C1163 95.0672 1164.98 95.6315 1166.81 96.7601C1168.63 97.8758 1170.08 99.5623 1171.17 101.819C1172.26 104.064 1172.81 106.879 1172.81 110.264C1172.81 113.56 1172.27 116.343 1171.21 118.613C1170.16 120.87 1168.72 122.583 1166.9 123.75C1165.09 124.904 1163.07 125.481 1160.82 125.481C1159.23 125.481 1157.88 125.218 1156.76 124.692C1155.66 124.166 1154.76 123.506 1154.05 122.711C1153.35 121.903 1152.81 121.088 1152.43 120.268H1152.18V136.081H1143.99ZM1152.01 110.226C1152.01 111.983 1152.26 113.516 1152.74 114.824C1153.23 116.132 1153.94 117.151 1154.86 117.882C1155.78 118.6 1156.9 118.96 1158.23 118.96C1159.56 118.96 1160.69 118.594 1161.61 117.863C1162.53 117.119 1163.23 116.093 1163.71 114.785C1164.2 113.464 1164.44 111.944 1164.44 110.226C1164.44 108.52 1164.2 107.02 1163.73 105.725C1163.25 104.429 1162.55 103.416 1161.63 102.685C1160.71 101.954 1159.57 101.589 1158.23 101.589C1156.89 101.589 1155.76 101.941 1154.84 102.647C1153.93 103.352 1153.23 104.352 1152.74 105.648C1152.26 106.943 1152.01 108.469 1152.01 110.226Z" fill="white"/>
<path d="M1108.43 164.765V196H1105.58V167.754H1105.39L1098.07 172.619V169.661L1105.45 164.765H1108.43ZM1117.91 196V193.911L1128.12 182.441C1129.45 180.937 1130.52 179.65 1131.33 178.583C1132.15 177.515 1132.74 176.529 1133.1 175.624C1133.48 174.719 1133.67 173.779 1133.67 172.802C1133.67 171.613 1133.39 170.576 1132.83 169.691C1132.28 168.796 1131.52 168.1 1130.56 167.602C1129.59 167.104 1128.5 166.854 1127.29 166.854C1126.01 166.854 1124.89 167.129 1123.92 167.678C1122.97 168.227 1122.22 168.979 1121.7 169.935C1121.17 170.891 1120.9 171.989 1120.9 173.23H1118.17C1118.17 171.501 1118.57 169.971 1119.36 168.639C1120.17 167.297 1121.26 166.244 1122.64 165.482C1124.03 164.719 1125.61 164.338 1127.37 164.338C1129.11 164.338 1130.65 164.714 1132.01 165.467C1133.36 166.209 1134.42 167.22 1135.19 168.502C1135.97 169.783 1136.35 171.216 1136.35 172.802C1136.35 173.951 1136.15 175.065 1135.74 176.143C1135.35 177.22 1134.66 178.42 1133.68 179.742C1132.71 181.064 1131.36 182.68 1129.63 184.592L1121.88 193.239V193.438H1137.33V196H1117.91ZM1159.93 190.204V188.786C1159.93 187.617 1160.16 186.564 1160.63 185.629C1161.1 184.683 1161.76 183.936 1162.63 183.387C1163.49 182.838 1164.52 182.563 1165.71 182.563C1166.91 182.563 1167.93 182.838 1168.79 183.387C1169.64 183.936 1170.3 184.683 1170.76 185.629C1171.21 186.564 1171.44 187.617 1171.44 188.786V190.204C1171.44 191.374 1171.21 192.426 1170.74 193.361C1170.28 194.297 1169.63 195.044 1168.77 195.603C1167.92 196.153 1166.9 196.427 1165.71 196.427C1164.5 196.427 1163.46 196.153 1162.6 195.603C1161.74 195.044 1161.08 194.297 1160.61 193.361C1160.16 192.426 1159.93 191.374 1159.93 190.204ZM1162.32 188.786V190.204C1162.32 191.353 1162.6 192.335 1163.16 193.148C1163.73 193.951 1164.58 194.353 1165.71 194.353C1166.81 194.353 1167.63 193.951 1168.19 193.148C1168.75 192.335 1169.03 191.353 1169.03 190.204V188.786C1169.03 187.637 1168.76 186.661 1168.21 185.858C1167.66 185.044 1166.83 184.638 1165.71 184.638C1164.6 184.638 1163.76 185.044 1163.18 185.858C1162.61 186.661 1162.32 187.637 1162.32 188.786ZM1144.19 171.979V170.561C1144.19 169.391 1144.42 168.339 1144.89 167.403C1145.36 166.468 1146.02 165.726 1146.89 165.177C1147.75 164.618 1148.78 164.338 1149.97 164.338C1151.17 164.338 1152.2 164.618 1153.05 165.177C1153.9 165.726 1154.56 166.468 1155.02 167.403C1155.47 168.339 1155.7 169.391 1155.7 170.561V171.979C1155.7 173.148 1155.47 174.206 1155 175.151C1154.54 176.087 1153.89 176.829 1153.03 177.378C1152.18 177.927 1151.16 178.202 1149.97 178.202C1148.76 178.202 1147.72 177.927 1146.86 177.378C1146 176.829 1145.34 176.087 1144.87 175.151C1144.42 174.206 1144.19 173.148 1144.19 171.979ZM1146.58 170.561V171.979C1146.58 173.128 1146.86 174.109 1147.42 174.922C1147.99 175.726 1148.84 176.127 1149.97 176.127C1151.07 176.127 1151.9 175.726 1152.45 174.922C1153.01 174.109 1153.29 173.128 1153.29 171.979V170.561C1153.29 169.412 1153.02 168.435 1152.47 167.632C1151.92 166.819 1151.09 166.412 1149.97 166.412C1148.86 166.412 1148.02 166.819 1147.44 167.632C1146.87 168.435 1146.58 169.412 1146.58 170.561ZM1145.59 196L1167.05 164.765H1169.75L1148.29 196H1145.59Z" fill="white"/>
<path d="M738.667 321C738.667 323.946 741.054 326.333 744 326.333C746.946 326.333 749.333 323.946 749.333 321C749.333 318.054 746.946 315.667 744 315.667C741.054 315.667 738.667 318.054 738.667 321ZM1174.67 144.5C1174.67 147.446 1177.05 149.833 1180 149.833C1182.95 149.833 1185.33 147.446 1185.33 144.5C1185.33 141.554 1182.95 139.167 1180 139.167C1177.05 139.167 1174.67 141.554 1174.67 144.5ZM872.797 151.984L873.592 152.59L872.797 151.984ZM744.795 321.606L873.592 152.59L872.002 151.378L743.205 320.394L744.795 321.606ZM887.909 145.5H1180V143.5H887.909V145.5ZM873.592 152.59C876.997 148.122 882.292 145.5 887.909 145.5V143.5C881.668 143.5 875.785 146.414 872.002 151.378L873.592 152.59Z" fill="#FFD400"/>
<path d="M1109.92 978.47V971.603H1142.28V978.47H1130.22V1011H1121.99V978.47H1109.92ZM1144.39 1011V981.452H1152.33V986.607H1152.64C1153.18 984.774 1154.08 983.388 1155.35 982.452C1156.62 981.503 1158.08 981.029 1159.74 981.029C1160.15 981.029 1160.59 981.054 1161.07 981.106C1161.54 981.157 1161.96 981.228 1162.32 981.317V988.589C1161.93 988.473 1161.4 988.371 1160.72 988.281C1160.04 988.191 1159.42 988.146 1158.85 988.146C1157.65 988.146 1156.57 988.409 1155.62 988.935C1154.69 989.448 1153.94 990.166 1153.39 991.09C1152.85 992.013 1152.58 993.078 1152.58 994.283V1011H1144.39ZM1178.64 1011.58C1175.6 1011.58 1172.99 1010.96 1170.79 1009.73C1168.61 1008.49 1166.93 1006.73 1165.75 1004.46C1164.57 1002.18 1163.98 999.477 1163.98 996.361C1163.98 993.321 1164.57 990.654 1165.75 988.358C1166.93 986.062 1168.59 984.273 1170.74 982.991C1172.89 981.708 1175.42 981.067 1178.32 981.067C1180.27 981.067 1182.08 981.381 1183.76 982.01C1185.45 982.625 1186.93 983.555 1188.18 984.799C1189.45 986.043 1190.44 987.608 1191.15 989.493C1191.85 991.365 1192.21 993.558 1192.21 996.072V998.323H1167.25V993.244H1184.49C1184.49 992.064 1184.23 991.019 1183.72 990.109C1183.21 989.198 1182.5 988.486 1181.59 987.973C1180.69 987.447 1179.64 987.185 1178.45 987.185C1177.21 987.185 1176.1 987.473 1175.14 988.05C1174.19 988.615 1173.45 989.378 1172.91 990.339C1172.37 991.288 1172.1 992.347 1172.08 993.514V998.342C1172.08 999.804 1172.35 1001.07 1172.89 1002.13C1173.44 1003.2 1174.22 1004.02 1175.22 1004.59C1176.22 1005.17 1177.41 1005.46 1178.78 1005.46C1179.69 1005.46 1180.52 1005.33 1181.28 1005.07C1182.04 1004.82 1182.68 1004.43 1183.22 1003.92C1183.76 1003.41 1184.17 1002.78 1184.45 1002.04L1192.03 1002.54C1191.65 1004.36 1190.86 1005.95 1189.67 1007.31C1188.49 1008.65 1186.96 1009.7 1185.09 1010.46C1183.23 1011.21 1181.08 1011.58 1178.64 1011.58ZM1205.98 1011.56C1204.09 1011.56 1202.41 1011.23 1200.94 1010.58C1199.46 1009.91 1198.3 1008.93 1197.44 1007.63C1196.59 1006.33 1196.17 1004.7 1196.17 1002.75C1196.17 1001.11 1196.47 999.727 1197.07 998.611C1197.67 997.496 1198.5 996.598 1199.53 995.918C1200.57 995.238 1201.75 994.725 1203.07 994.379C1204.41 994.033 1205.81 993.789 1207.27 993.648C1208.99 993.469 1210.37 993.302 1211.42 993.148C1212.47 992.981 1213.24 992.738 1213.71 992.417C1214.19 992.096 1214.42 991.622 1214.42 990.994V990.878C1214.42 989.66 1214.04 988.717 1213.27 988.05C1212.51 987.383 1211.44 987.05 1210.04 987.05C1208.56 987.05 1207.39 987.377 1206.52 988.031C1205.65 988.672 1205.07 989.48 1204.79 990.455L1197.21 989.839C1197.59 988.044 1198.35 986.492 1199.48 985.184C1200.61 983.863 1202.06 982.85 1203.84 982.144C1205.64 981.426 1207.72 981.067 1210.08 981.067C1211.72 981.067 1213.29 981.26 1214.79 981.644C1216.3 982.029 1217.64 982.625 1218.81 983.433C1219.99 984.241 1220.92 985.28 1221.6 986.55C1222.28 987.807 1222.62 989.313 1222.62 991.07V1011H1214.85V1006.9H1214.62C1214.14 1007.83 1213.51 1008.64 1212.71 1009.35C1211.92 1010.04 1210.96 1010.58 1209.85 1010.98C1208.73 1011.37 1207.44 1011.56 1205.98 1011.56ZM1208.33 1005.9C1209.53 1005.9 1210.6 1005.66 1211.52 1005.19C1212.44 1004.7 1213.17 1004.05 1213.69 1003.23C1214.22 1002.41 1214.48 1001.48 1214.48 1000.44V997.303C1214.23 997.47 1213.87 997.624 1213.42 997.765C1212.99 997.893 1212.49 998.015 1211.94 998.13C1211.39 998.233 1210.84 998.329 1210.29 998.419C1209.74 998.496 1209.24 998.566 1208.79 998.631C1207.83 998.772 1206.99 998.996 1206.27 999.304C1205.55 999.612 1204.99 1000.03 1204.59 1000.55C1204.2 1001.07 1204 1001.71 1204 1002.48C1204 1003.59 1204.4 1004.45 1205.21 1005.04C1206.03 1005.61 1207.07 1005.9 1208.33 1005.9ZM1253.56 989.878L1246.06 990.339C1245.93 989.698 1245.66 989.121 1245.23 988.608C1244.81 988.082 1244.25 987.666 1243.56 987.358C1242.88 987.037 1242.06 986.877 1241.12 986.877C1239.85 986.877 1238.77 987.146 1237.9 987.685C1237.03 988.211 1236.59 988.916 1236.59 989.801C1236.59 990.506 1236.88 991.103 1237.44 991.59C1238.01 992.077 1238.97 992.468 1240.35 992.763L1245.69 993.841C1248.57 994.431 1250.71 995.38 1252.12 996.688C1253.53 997.996 1254.23 999.714 1254.23 1001.84C1254.23 1003.78 1253.66 1005.48 1252.52 1006.94C1251.39 1008.4 1249.84 1009.54 1247.87 1010.37C1245.91 1011.17 1243.64 1011.58 1241.08 1011.58C1237.17 1011.58 1234.05 1010.76 1231.73 1009.13C1229.42 1007.49 1228.07 1005.26 1227.67 1002.44L1235.73 1002.02C1235.97 1003.21 1236.56 1004.12 1237.5 1004.75C1238.43 1005.36 1239.63 1005.67 1241.1 1005.67C1242.53 1005.67 1243.69 1005.4 1244.56 1004.84C1245.44 1004.28 1245.89 1003.56 1245.91 1002.67C1245.89 1001.93 1245.58 1001.32 1244.96 1000.84C1244.35 1000.36 1243.4 999.984 1242.12 999.727L1237 998.708C1234.11 998.13 1231.96 997.13 1230.55 995.707C1229.16 994.283 1228.46 992.468 1228.46 990.262C1228.46 988.364 1228.97 986.729 1230 985.357C1231.04 983.985 1232.49 982.927 1234.36 982.183C1236.25 981.439 1238.45 981.067 1240.98 981.067C1244.71 981.067 1247.65 981.856 1249.79 983.433C1251.95 985.011 1253.2 987.159 1253.56 989.878ZM1278.34 998.419V981.452H1286.54V1011H1278.67V1005.63H1278.36C1277.7 1007.36 1276.59 1008.76 1275.03 1009.81C1273.5 1010.86 1271.62 1011.38 1269.4 1011.38C1267.42 1011.38 1265.69 1010.94 1264.19 1010.04C1262.68 1009.14 1261.51 1007.86 1260.66 1006.21C1259.83 1004.56 1259.41 1002.57 1259.4 1000.27V981.452H1267.59V998.804C1267.6 1000.55 1268.07 1001.93 1268.99 1002.94C1269.92 1003.95 1271.16 1004.46 1272.71 1004.46C1273.69 1004.46 1274.62 1004.23 1275.48 1003.79C1276.34 1003.32 1277.03 1002.64 1277.56 1001.75C1278.09 1000.85 1278.36 999.74 1278.34 998.419ZM1293.09 1011V981.452H1301.04V986.607H1301.35C1301.89 984.774 1302.79 983.388 1304.06 982.452C1305.33 981.503 1306.79 981.029 1308.44 981.029C1308.86 981.029 1309.3 981.054 1309.77 981.106C1310.25 981.157 1310.66 981.228 1311.02 981.317V988.589C1310.64 988.473 1310.11 988.371 1309.43 988.281C1308.75 988.191 1308.12 988.146 1307.56 988.146C1306.35 988.146 1305.28 988.409 1304.33 988.935C1303.39 989.448 1302.65 990.166 1302.1 991.09C1301.56 992.013 1301.29 993.078 1301.29 994.283V1011H1293.09ZM1321.22 1022.08C1320.18 1022.08 1319.2 1022 1318.29 1021.83C1317.4 1021.68 1316.65 1021.48 1316.06 1021.23L1317.91 1015.12C1318.87 1015.41 1319.74 1015.57 1320.51 1015.6C1321.29 1015.62 1321.96 1015.44 1322.53 1015.06C1323.1 1014.67 1323.57 1014.02 1323.93 1013.1L1324.41 1011.85L1313.81 981.452H1322.43L1328.55 1003.15H1328.86L1335.03 981.452H1343.71L1332.22 1014.19C1331.67 1015.78 1330.92 1017.17 1329.97 1018.35C1329.03 1019.54 1327.85 1020.46 1326.41 1021.1C1324.98 1021.75 1323.24 1022.08 1321.22 1022.08Z" fill="white"/>
<path d="M1258.38 1082L1272.61 1053.53V1053.33H1256.21V1050.76H1275.6V1053.45L1261.38 1082H1258.38ZM1290.84 1082.43C1289.55 1082.42 1288.29 1082.16 1287.06 1081.65C1285.83 1081.13 1284.72 1080.3 1283.74 1079.16C1282.75 1078.01 1281.97 1076.5 1281.39 1074.62C1280.81 1072.74 1280.52 1070.42 1280.52 1067.68C1280.52 1065.14 1280.74 1062.81 1281.19 1060.69C1281.64 1058.58 1282.31 1056.75 1283.2 1055.2C1284.1 1053.66 1285.22 1052.46 1286.56 1051.62C1287.9 1050.76 1289.47 1050.34 1291.27 1050.34C1292.96 1050.34 1294.45 1050.69 1295.74 1051.39C1297.03 1052.08 1298.08 1053.05 1298.88 1054.29C1299.68 1055.53 1300.19 1056.96 1300.39 1058.57H1297.58C1297.3 1056.93 1296.62 1055.57 1295.56 1054.5C1294.49 1053.43 1293.06 1052.9 1291.27 1052.9C1288.71 1052.9 1286.73 1054.09 1285.32 1056.47C1283.92 1058.84 1283.21 1062.2 1283.2 1066.57H1283.4C1283.9 1065.64 1284.54 1064.84 1285.32 1064.17C1286.12 1063.49 1287.02 1062.96 1288.02 1062.58C1289.03 1062.2 1290.09 1062.01 1291.19 1062.01C1292.93 1062.01 1294.52 1062.45 1295.97 1063.33C1297.41 1064.21 1298.57 1065.41 1299.43 1066.95C1300.29 1068.47 1300.73 1070.22 1300.73 1072.18C1300.73 1074.04 1300.31 1075.75 1299.49 1077.32C1298.68 1078.88 1297.53 1080.13 1296.04 1081.05C1294.57 1081.98 1292.84 1082.44 1290.84 1082.43ZM1290.84 1079.86C1292.21 1079.86 1293.42 1079.52 1294.49 1078.83C1295.57 1078.14 1296.42 1077.21 1297.04 1076.05C1297.66 1074.88 1297.97 1073.59 1297.97 1072.18C1297.97 1070.76 1297.66 1069.48 1297.04 1068.33C1296.42 1067.19 1295.57 1066.27 1294.49 1065.59C1293.42 1064.91 1292.21 1064.57 1290.84 1064.57C1289.81 1064.57 1288.84 1064.78 1287.95 1065.21C1287.05 1065.62 1286.27 1066.2 1285.61 1066.93C1284.96 1067.65 1284.46 1068.48 1284.12 1069.42C1283.78 1070.35 1283.66 1071.33 1283.74 1072.36C1283.85 1073.79 1284.22 1075.08 1284.85 1076.22C1285.49 1077.35 1286.32 1078.24 1287.35 1078.89C1288.39 1079.54 1289.55 1079.86 1290.84 1079.86ZM1322.98 1076.2V1074.79C1322.98 1073.62 1323.21 1072.56 1323.68 1071.63C1324.15 1070.68 1324.81 1069.94 1325.68 1069.39C1326.54 1068.84 1327.57 1068.56 1328.76 1068.56C1329.96 1068.56 1330.99 1068.84 1331.84 1069.39C1332.69 1069.94 1333.35 1070.68 1333.81 1071.63C1334.26 1072.56 1334.49 1073.62 1334.49 1074.79V1076.2C1334.49 1077.37 1334.26 1078.43 1333.79 1079.36C1333.33 1080.3 1332.68 1081.04 1331.82 1081.6C1330.97 1082.15 1329.95 1082.43 1328.76 1082.43C1327.55 1082.43 1326.51 1082.15 1325.65 1081.6C1324.79 1081.04 1324.13 1080.3 1323.66 1079.36C1323.21 1078.43 1322.98 1077.37 1322.98 1076.2ZM1325.37 1074.79V1076.2C1325.37 1077.35 1325.65 1078.33 1326.21 1079.15C1326.78 1079.95 1327.63 1080.35 1328.76 1080.35C1329.86 1080.35 1330.69 1079.95 1331.24 1079.15C1331.8 1078.33 1332.08 1077.35 1332.08 1076.2V1074.79C1332.08 1073.64 1331.81 1072.66 1331.26 1071.86C1330.71 1071.04 1329.88 1070.64 1328.76 1070.64C1327.65 1070.64 1326.81 1071.04 1326.23 1071.86C1325.66 1072.66 1325.37 1073.64 1325.37 1074.79ZM1307.24 1057.98V1056.56C1307.24 1055.39 1307.47 1054.34 1307.94 1053.4C1308.41 1052.47 1309.07 1051.73 1309.94 1051.18C1310.8 1050.62 1311.83 1050.34 1313.02 1050.34C1314.22 1050.34 1315.25 1050.62 1316.1 1051.18C1316.95 1051.73 1317.61 1052.47 1318.07 1053.4C1318.53 1054.34 1318.75 1055.39 1318.75 1056.56V1057.98C1318.75 1059.15 1318.52 1060.21 1318.05 1061.15C1317.59 1062.09 1316.94 1062.83 1316.08 1063.38C1315.23 1063.93 1314.21 1064.2 1313.02 1064.2C1311.81 1064.2 1310.77 1063.93 1309.91 1063.38C1309.05 1062.83 1308.39 1062.09 1307.93 1061.15C1307.47 1060.21 1307.24 1059.15 1307.24 1057.98ZM1309.63 1056.56V1057.98C1309.63 1059.13 1309.91 1060.11 1310.47 1060.92C1311.04 1061.73 1311.89 1062.13 1313.02 1062.13C1314.12 1062.13 1314.95 1061.73 1315.51 1060.92C1316.06 1060.11 1316.34 1059.13 1316.34 1057.98V1056.56C1316.34 1055.41 1316.07 1054.44 1315.52 1053.63C1314.97 1052.82 1314.14 1052.41 1313.02 1052.41C1311.91 1052.41 1311.07 1052.82 1310.49 1053.63C1309.92 1054.44 1309.63 1055.41 1309.63 1056.56ZM1308.64 1082L1330.1 1050.76H1332.8L1311.34 1082H1308.64Z" fill="white"/>
<path d="M932.167 935.5C932.167 938.446 934.554 940.833 937.5 940.833C940.446 940.833 942.833 938.446 942.833 935.5C942.833 932.554 940.446 930.167 937.5 930.167C934.554 930.167 932.167 932.554 932.167 935.5ZM1354.67 1032.5C1354.67 1035.45 1357.05 1037.83 1360 1037.83C1362.95 1037.83 1365.33 1035.45 1365.33 1032.5C1365.33 1029.55 1362.95 1027.17 1360 1027.17C1357.05 1027.17 1354.67 1029.55 1354.67 1032.5ZM936.887 936.29L1043.76 1019.22L1044.98 1017.64L938.113 934.71L936.887 936.29ZM1085.45 1033.5H1360V1031.5H1085.45V1033.5ZM1043.76 1019.22C1055.68 1028.48 1070.35 1033.5 1085.45 1033.5V1031.5C1070.79 1031.5 1056.56 1026.62 1044.98 1017.64L1043.76 1019.22Z" fill="url(#paint14_linear_2348_508)"/>
<defs>
<filter id="filter0_i_2348_508" x="59" y="145" width="1032" height="1032" filterUnits="userSpaceOnUse" color-interpolation-filters="sRGB">
<feFlood flood-opacity="0" result="BackgroundImageFix"/>
<feBlend mode="normal" in="SourceGraphic" in2="BackgroundImageFix" result="shape"/>
<feColorMatrix in="SourceAlpha" type="matrix" values="0 0 0 0 0 0 0 0 0 0 0 0 0 0 0 0 0 0 127 0" result="hardAlpha"/>
<feOffset/>
<feGaussianBlur stdDeviation="44"/>
<feComposite in2="hardAlpha" operator="arithmetic" k2="-1" k3="1"/>
<feColorMatrix type="matrix" values="0 0 0 0 0 0 0 0 0 0 0 0 0 0 0 0 0 0 1 0"/>
<feBlend mode="normal" in2="shape" result="effect1_innerShadow_2348_508"/>
</filter>
<radialGradient id="paint0_radial_2348_508" cx="0" cy="0" r="1" gradientUnits="userSpaceOnUse" gradientTransform="translate(575 661) rotate(90) scale(512)">
<stop stop-opacity="0.1"/>
<stop offset="1" stop-color="#2B2B2B" stop-opacity="0.5"/>
</radialGradient>
<linearGradient id="paint1_linear_2348_508" x1="575" y1="149" x2="575" y2="1173" gradientUnits="userSpaceOnUse">
<stop stop-color="#2BAFE7"/>
<stop offset="1" stop-color="#2564C2"/>
</linearGradient>
<linearGradient id="paint2_linear_2348_508" x1="575" y1="234" x2="575" y2="1066" gradientUnits="userSpaceOnUse">
<stop stop-color="#2BACE6"/>
<stop offset="1" stop-color="#2668C4"/>
</linearGradient>
<linearGradient id="paint3_linear_2348_508" x1="574.5" y1="314" x2="574.5" y2="991" gradientUnits="userSpaceOnUse">
<stop stop-color="#2BACE6"/>
<stop offset="1" stop-color="#2668C4"/>
</linearGradient>
<linearGradient id="paint4_linear_2348_508" x1="575" y1="405" x2="575" y2="917" gradientUnits="userSpaceOnUse">
<stop stop-color="#2BACE6"/>
<stop offset="1" stop-color="#2668C4"/>
</linearGradient>
<linearGradient id="paint5_linear_2348_508" x1="575" y1="533" x2="575" y2="789" gradientUnits="userSpaceOnUse">
<stop stop-color="#2BACE6"/>
<stop offset="1" stop-color="#2668C4"/>
</linearGradient>
<linearGradient id="paint6_linear_2348_508" x1="575" y1="149" x2="575" y2="1173" gradientUnits="userSpaceOnUse">
<stop stop-color="#004FAF"/>
<stop offset="1" stop-color="#011833" stop-opacity="0.79"/>
</linearGradient>
<linearGradient id="paint7_linear_2348_508" x1="575" y1="149" x2="575" y2="1173" gradientUnits="userSpaceOnUse">
<stop stop-color="#2BAFE7"/>
<stop offset="1" stop-color="#2564C2"/>
</linearGradient>
<linearGradient id="paint8_linear_2348_508" x1="429.5" y1="445" x2="551.5" y2="631.5" gradientUnits="userSpaceOnUse">
<stop stop-color="#00BE16" stop-opacity="0.5"/>
<stop offset="1" stop-color="#00BE16"/>
</linearGradient>
<linearGradient id="paint9_linear_2348_508" x1="520.5" y1="349" x2="565.5" y2="607.5" gradientUnits="userSpaceOnUse">
<stop stop-color="#FF6A00" stop-opacity="0.24"/>
<stop offset="0.822547" stop-color="#FF6A00"/>
</linearGradient>
<linearGradient id="paint10_linear_2348_508" x1="761" y1="289.5" x2="617" y2="594.5" gradientUnits="userSpaceOnUse">
<stop stop-color="#F6FF00" stop-opacity="0.13"/>
<stop offset="1" stop-color="#F6FF00" stop-opacity="0.85"/>
</linearGradient>
<radialGradient id="paint11_radial_2348_508" cx="0" cy="0" r="1" gradientUnits="userSpaceOnUse" gradientTransform="translate(575 661) rotate(90) scale(128)">
<stop stop-color="#1C1C1C"/>
<stop offset="1" stop-color="#202020"/>
</radialGradient>
<linearGradient id="paint12_linear_2348_508" x1="575" y1="533" x2="575" y2="789" gradientUnits="userSpaceOnUse">
<stop stop-color="#2BAFE7"/>
<stop offset="1" stop-color="#2564C2"/>
</linearGradient>
<linearGradient id="paint13_linear_2348_508" x1="574.475" y1="589.955" x2="574.475" y2="703.973" gradientUnits="userSpaceOnUse">
<stop stop-color="#2CC1F0"/>
<stop offset="1" stop-color="#2564C2"/>
</linearGradient>
<linearGradient id="paint14_linear_2348_508" x1="1160.25" y1="904" x2="1160.25" y2="1032.5" gradientUnits="userSpaceOnUse">
<stop stop-color="#5FA7FF"/>
<stop offset="1" stop-color="#0073FF"/>
</linearGradient>
</defs>
</svg>
