<svg width="30" height="28" viewBox="0 0 30 28" fill="none" xmlns="http://www.w3.org/2000/svg">
<path fill-rule="evenodd" clip-rule="evenodd" d="M23.6513 0H6.10162V2.03597L1.08303 2.03597C0.48489 2.03597 0 2.52086 0 3.11901V11.5859C0 15.2767 4.11897 18.3139 8.16129 18.6298C9.48833 20.0517 11.8225 21.0845 13.8999 21.5248V24.0209C11.9133 24.6311 8.36469 26.0648 8.16129 27.6268H21.7951C21.5897 26.0648 17.6796 24.6291 15.6891 24.0209V21.5248C17.7744 21.0845 20.2132 20.0517 21.5422 18.6298C25.5826 18.3139 29.5202 15.2767 29.5202 11.5859V3.11901C29.5202 2.52086 29.0354 2.03597 28.4372 2.03597H23.6513V0ZM1.87367 3.84561H5.95944V12.0717C5.95944 13.6949 6.37809 15.2392 7.11467 16.6294C4.05775 15.6559 1.87367 13.1479 1.87367 10.2134V3.84561ZM17.8775 13.8786L14.8277 12.1981L11.7747 13.8786L12.3576 10.324L9.8892 7.80818L13.2996 7.28882L14.8277 4.05812L16.3526 7.28882L19.763 7.80818L17.2962 10.324L17.8775 13.8786ZM22.4092 16.8921C23.1497 15.4386 23.5743 13.8312 23.5743 12.1309V3.89865H27.6699V10.1897C27.6699 13.2565 25.4759 15.8751 22.4092 16.8921Z" fill="url(#paint0_linear_164_481)"/>
<defs>
<linearGradient id="paint0_linear_164_481" x1="13.6515" y1="0.0684108" x2="13.6515" y2="17.2983" gradientUnits="userSpaceOnUse">
<stop stop-color="#FFCD4D"/>
<stop offset="1" stop-color="#DD8500"/>
</linearGradient>
</defs>
</svg>
