<svg width="114" height="131" viewBox="0 0 114 131" fill="none" xmlns="http://www.w3.org/2000/svg">
<path d="M57 4.78578C55.2951 4.78578 54.2518 4.07328 53.0558 3.23355C51.3763 2.08846 49.3661 0.714355 44.7857 0.714355C37.0246 0.714355 31.5536 11.8344 27.9911 23.4635C15.9549 25.6773 8.14286 29.2652 8.14286 33.2858C8.14286 36.9246 14.5045 40.1818 24.5813 42.4211C24.4795 43.4389 24.4286 44.4568 24.4286 45.5001C24.4286 49.826 25.2683 53.9483 26.7951 57.7144H11.5527C9.66964 57.7144 8.14286 59.2411 8.14286 61.1242C8.14286 61.5568 8.2192 61.9894 8.39732 62.3965L18.2705 87.0541C7.17589 95.3242 0 108.556 0 123.442C0 127.616 3.38438 131 7.55759 131H106.442C110.616 131 114 127.616 114 123.442C114 108.556 106.824 95.3496 95.7549 87.0541L105.603 62.3965C105.755 61.9894 105.857 61.5568 105.857 61.1242C105.857 59.2411 104.33 57.7144 102.447 57.7144H87.2049C88.7317 53.9483 89.5714 49.826 89.5714 45.5001C89.5714 44.4568 89.5205 43.4389 89.4188 42.4211C99.4955 40.1818 105.857 36.9246 105.857 33.2858C105.857 29.2652 98.0451 25.6773 86.0089 23.4635C82.4464 11.8344 76.9755 0.714355 69.2143 0.714355C64.6339 0.714355 62.6237 2.08846 60.9442 3.23355C59.7228 4.07328 58.7049 4.78578 57 4.78578ZM71.25 57.7144H68.0946C63.896 57.7144 60.1808 55.017 58.8576 51.0474C58.2723 49.2661 55.7531 49.2661 55.1679 51.0474C53.8446 55.017 50.104 57.7144 45.9308 57.7144H42.75C37.1263 57.7144 32.5714 53.1594 32.5714 47.5358V43.8715C39.7473 44.9148 48.0938 45.5001 57 45.5001C65.9063 45.5001 74.2527 44.9148 81.4286 43.8715V47.5358C81.4286 53.1594 76.8737 57.7144 71.25 57.7144ZM48.8571 82.1429L52.9286 90.2858L44.7857 122.857L32.5714 74.0001L48.8571 82.1429ZM81.4286 74.0001L69.2143 122.857L61.0714 90.2858L65.1429 82.1429L81.4286 74.0001Z" fill="white"/>
</svg>
