<svg width="973" height="753" viewBox="0 0 973 753" fill="none" xmlns="http://www.w3.org/2000/svg">
<g filter="url(#filter0_i_2383_1036)">
<circle cx="424.958" cy="395.219" r="352.219" fill="url(#paint0_radial_2383_1036)"/>
</g>
<circle cx="424.958" cy="395.219" r="352.219" stroke="url(#paint1_linear_2383_1036)" stroke-width="5.50343"/>
<circle cx="424.956" cy="387.654" r="285.49" stroke="url(#paint2_linear_2383_1036)" stroke-width="1.37586"/>
<circle cx="424.953" cy="395.219" r="175.422" stroke="url(#paint3_linear_2383_1036)" stroke-width="1.37586"/>
<circle cx="421.516" cy="395.219" r="131.394" stroke="url(#paint4_linear_2383_1036)" stroke-width="1.37586"/>
<circle cx="424.61" cy="389.373" r="232.176" stroke="url(#paint5_linear_2383_1036)" stroke-width="1.37586"/>
<circle cx="424.961" cy="395.218" r="87.3669" stroke="url(#paint6_linear_2383_1036)" stroke-width="1.37586"/>
<g filter="url(#filter1_d_2383_1036)">
<mask id="path-7-inside-1_2383_1036" fill="white">
<path d="M772.133 395.435C772.133 440.802 763.165 485.725 745.741 527.638C728.317 569.552 702.778 607.636 670.583 639.715C638.387 671.795 600.166 697.242 558.1 714.603C516.035 731.964 470.95 740.9 425.418 740.9C379.887 740.9 334.802 731.964 292.736 714.603C250.671 697.242 212.449 671.795 180.254 639.715C148.058 607.636 122.519 569.552 105.095 527.638C87.6712 485.725 78.7031 440.802 78.7031 395.435L425.418 395.435L772.133 395.435Z"/>
</mask>
<path d="M772.133 395.435C772.133 440.802 763.165 485.725 745.741 527.638C728.317 569.552 702.778 607.636 670.583 639.715C638.387 671.795 600.166 697.242 558.1 714.603C516.035 731.964 470.95 740.9 425.418 740.9C379.887 740.9 334.802 731.964 292.736 714.603C250.671 697.242 212.449 671.795 180.254 639.715C148.058 607.636 122.519 569.552 105.095 527.638C87.6712 485.725 78.7031 440.802 78.7031 395.435L425.418 395.435L772.133 395.435Z" fill="url(#paint7_radial_2383_1036)" shape-rendering="crispEdges"/>
<path d="M772.133 395.435C772.133 440.802 763.165 485.725 745.741 527.638C728.317 569.552 702.778 607.636 670.583 639.715C638.387 671.795 600.166 697.242 558.1 714.603C516.035 731.964 470.95 740.9 425.418 740.9C379.887 740.9 334.802 731.964 292.736 714.603C250.671 697.242 212.449 671.795 180.254 639.715C148.058 607.636 122.519 569.552 105.095 527.638C87.6712 485.725 78.7031 440.802 78.7031 395.435L425.418 395.435L772.133 395.435Z" stroke="#2BC900" stroke-width="13.3352" shape-rendering="crispEdges" mask="url(#path-7-inside-1_2383_1036)"/>
</g>
<g filter="url(#filter2_d_2383_1036)">
<mask id="path-8-inside-2_2383_1036" fill="white">
<path d="M138.852 396.533C138.852 344.331 151.587 293.033 175.799 247.717C200.011 202.4 234.858 164.636 276.894 138.16C318.93 111.685 366.696 97.4157 415.467 96.7654C464.237 96.1152 512.321 109.106 554.96 134.453L418.956 396.533L138.852 396.533Z"/>
</mask>
<path d="M138.852 396.533C138.852 344.331 151.587 293.033 175.799 247.717C200.011 202.4 234.858 164.636 276.894 138.16C318.93 111.685 366.696 97.4157 415.467 96.7654C464.237 96.1152 512.321 109.106 554.96 134.453L418.956 396.533L138.852 396.533Z" fill="url(#paint8_radial_2383_1036)" shape-rendering="crispEdges"/>
<path d="M138.852 396.533C138.852 344.331 151.587 293.033 175.799 247.717C200.011 202.4 234.858 164.636 276.894 138.16C318.93 111.685 366.696 97.4157 415.467 96.7654C464.237 96.1152 512.321 109.106 554.96 134.453L418.956 396.533L138.852 396.533Z" stroke="#FF5500" stroke-width="14.5222" shape-rendering="crispEdges" mask="url(#path-8-inside-2_2383_1036)"/>
</g>
<g filter="url(#filter3_d_2383_1036)">
<mask id="path-9-inside-3_2383_1036" fill="white">
<path d="M555.465 133.686C603.455 159.553 643.547 197.641 671.569 243.989C699.592 290.336 714.52 343.25 714.803 397.224L408.829 398.783L555.465 133.686Z"/>
</mask>
<path d="M555.465 133.686C603.455 159.553 643.547 197.641 671.569 243.989C699.592 290.336 714.52 343.25 714.803 397.224L408.829 398.783L555.465 133.686Z" fill="url(#paint9_linear_2383_1036)" shape-rendering="crispEdges"/>
<path d="M555.465 133.686C603.455 159.553 643.547 197.641 671.569 243.989C699.592 290.336 714.52 343.25 714.803 397.224L408.829 398.783L555.465 133.686Z" stroke="#FFD400" stroke-width="14.4191" shape-rendering="crispEdges" mask="url(#path-9-inside-3_2383_1036)"/>
</g>
<circle cx="424.961" cy="395.214" r="85.3032" fill="url(#paint10_radial_2383_1036)" stroke="url(#paint11_linear_2383_1036)" stroke-width="5.50343"/>
<g filter="url(#filter4_d_2383_1036)">
<path d="M429.488 368.997C428.505 368.997 427.433 369.496 426.3 370.479C425.763 370.944 425.298 371.442 424.949 371.842C424.95 371.843 424.95 371.843 424.951 371.844C424.952 371.843 424.953 371.842 424.953 371.842C424.953 371.842 425.503 372.436 426.109 373.071C426.435 372.687 426.906 372.164 427.448 371.694C428.455 370.82 429.113 370.637 429.488 370.637C430.9 370.637 432.049 371.746 432.049 373.109C432.049 374.465 430.9 375.573 429.486 375.582C429.421 375.582 429.339 375.574 429.237 375.551C429.649 375.728 430.091 375.855 430.513 375.855C433.102 375.855 433.608 374.182 433.643 374.064C433.72 373.757 433.76 373.438 433.76 373.109C433.76 370.842 431.843 368.997 429.488 368.997Z" fill="url(#paint12_linear_2383_1036)"/>
<path d="M420.441 377.219C421.423 377.219 422.495 376.721 423.628 375.738C424.165 375.272 424.63 374.774 424.979 374.374C424.978 374.374 424.978 374.373 424.977 374.372C424.976 374.373 424.976 374.374 424.976 374.374C424.976 374.374 424.425 373.78 423.819 373.145C423.493 373.529 423.022 374.053 422.48 374.522C421.473 375.396 420.815 375.58 420.441 375.58C419.028 375.58 417.879 374.47 417.879 373.107C417.879 371.751 419.029 370.643 420.442 370.635C420.507 370.635 420.59 370.642 420.692 370.665C420.28 370.488 419.837 370.361 419.415 370.361C416.826 370.361 416.32 372.034 416.285 372.153C416.209 372.459 416.168 372.778 416.168 373.107C416.168 375.375 418.085 377.219 420.441 377.219Z" fill="url(#paint13_linear_2383_1036)"/>
<path d="M430.51 375.813C429.184 375.781 427.806 374.746 427.525 374.489C426.799 373.824 425.123 372.024 424.991 371.883C423.763 370.521 422.098 368.997 420.444 368.997H420.442H420.44C418.429 369.007 416.739 370.355 416.289 372.155C416.324 372.036 416.984 370.332 419.417 370.391C420.743 370.423 422.127 371.472 422.408 371.729C423.134 372.394 424.811 374.194 424.942 374.336C426.17 375.697 427.835 377.221 429.489 377.221H429.492H429.494C431.505 377.211 433.195 375.862 433.644 374.063C433.61 374.181 432.943 375.872 430.51 375.813Z" fill="#29ABE2"/>
<path d="M366.043 416.461C368.634 413.546 368.634 413.546 369.281 412.81C372.106 402.843 374.999 392.903 377.962 382.99C376.937 381.623 376.396 380.936 375.35 379.541C387.235 380.377 399.128 381.022 411.028 381.478C412.092 382.67 412.625 383.262 413.688 384.44C410.684 393.474 407.721 402.527 404.799 411.6C402.795 412.817 401.79 413.416 399.786 414.688C391.145 415.115 374.686 415.841 366.043 416.461ZM391.457 386.275C389.014 394.027 386.621 401.8 384.277 409.594C386.675 409.497 389.069 409.402 391.457 409.31C393.785 401.701 396.155 394.106 398.569 386.525C396.196 386.445 393.826 386.362 391.457 386.275Z" fill="url(#paint14_linear_2383_1036)"/>
<path d="M366.098 416.434C368.651 413.561 368.654 413.558 369.299 412.825L369.301 412.827L369.304 412.816C372.128 402.849 375.021 392.909 377.984 382.996L377.988 382.985L377.981 382.976C377.481 382.309 377.096 381.805 376.712 381.301L376.682 381.262C376.296 380.755 375.907 380.245 375.399 379.568C387.264 380.401 399.137 381.046 411.018 381.501C412.074 382.684 412.607 383.277 413.662 384.445C410.66 393.472 407.699 402.519 404.779 411.584C404.474 411.77 404.193 411.941 403.927 412.102C402.452 412.996 401.472 413.591 399.779 414.666C397.934 414.757 395.734 414.861 393.329 414.976C384.493 415.396 372.903 415.947 366.098 416.434ZM391.458 386.252L391.441 386.251L391.435 386.268C388.992 394.02 386.599 401.793 384.255 409.587L384.246 409.618L384.278 409.617C386.676 409.52 389.07 409.425 391.458 409.333L391.475 409.333L391.48 409.317C393.807 401.708 396.177 394.113 398.591 386.532L398.6 386.503L398.57 386.502C396.197 386.422 393.827 386.339 391.458 386.252Z" stroke="#979797" stroke-opacity="0.28" stroke-width="0.0461179"/>
<path d="M404.109 420.715L416.285 384.177L413.545 381.1L436.435 380.58L433.184 383.571L445.75 420.715L435.06 412.516L429.282 403.328H420.308L414.55 412.516L404.109 420.715ZM422.595 398.098H427.224L425.077 388.352L422.595 398.098Z" fill="url(#paint15_linear_2383_1036)"/>
<path d="M404.156 420.65L416.307 384.184L416.311 384.172L416.302 384.162L413.595 381.122L436.374 380.605L433.168 383.554L433.157 383.565L433.162 383.579L445.704 420.651L435.077 412.5L429.302 403.316L429.295 403.305H429.282H420.308H420.296L420.289 403.316L414.533 412.5L404.156 420.65ZM422.572 398.092L422.565 398.121H422.595H427.224H427.253L427.247 398.093L425.1 388.347L425.055 388.347L422.572 398.092Z" stroke="#979797" stroke-opacity="0.28" stroke-width="0.0461179"/>
<path fill-rule="evenodd" clip-rule="evenodd" d="M439.032 380.882L435.824 383.9L445.448 412.069L450.794 415.087L481.447 416.764L485.012 413.411L475.388 382.559L469.329 379.541L439.032 380.882ZM467.933 410.78C465.338 402.71 462.689 394.661 459.983 386.634C457.361 386.724 454.736 386.811 452.109 386.894C454.782 394.743 457.406 402.607 459.983 410.486C462.628 410.582 465.278 410.679 467.933 410.78Z" fill="url(#paint16_linear_2383_1036)" stroke="#979797" stroke-opacity="0.28" stroke-width="0.0461179"/>
</g>
<path d="M811.554 623.802C811.447 622.721 810.987 621.881 810.174 621.282C809.36 620.684 808.257 620.384 806.863 620.384C805.916 620.384 805.116 620.518 804.464 620.786C803.812 621.045 803.311 621.407 802.963 621.872C802.623 622.337 802.453 622.864 802.453 623.454C802.435 623.945 802.538 624.374 802.762 624.74C802.994 625.107 803.311 625.424 803.713 625.692C804.115 625.951 804.58 626.179 805.107 626.375C805.634 626.563 806.197 626.724 806.796 626.858L809.262 627.448C810.46 627.716 811.559 628.073 812.559 628.52C813.56 628.967 814.427 629.516 815.16 630.169C815.892 630.821 816.46 631.589 816.862 632.474C817.273 633.359 817.483 634.373 817.492 635.517C817.483 637.196 817.054 638.653 816.205 639.886C815.365 641.11 814.15 642.062 812.559 642.741C810.978 643.411 809.07 643.746 806.836 643.746C804.62 643.746 802.69 643.407 801.046 642.727C799.411 642.048 798.133 641.043 797.213 639.712C796.301 638.371 795.823 636.714 795.779 634.739H801.394C801.457 635.659 801.721 636.428 802.185 637.044C802.659 637.652 803.289 638.112 804.075 638.425C804.87 638.729 805.768 638.881 806.769 638.881C807.752 638.881 808.605 638.738 809.329 638.452C810.062 638.166 810.629 637.768 811.031 637.259C811.434 636.75 811.635 636.164 811.635 635.503C811.635 634.887 811.451 634.368 811.085 633.948C810.728 633.528 810.2 633.171 809.503 632.876C808.815 632.581 807.971 632.313 806.97 632.072L803.981 631.321C801.667 630.758 799.84 629.878 798.499 628.681C797.159 627.484 796.493 625.871 796.502 623.842C796.493 622.18 796.936 620.728 797.829 619.486C798.732 618.244 799.969 617.275 801.542 616.578C803.115 615.881 804.902 615.532 806.903 615.532C808.941 615.532 810.719 615.881 812.238 616.578C813.766 617.275 814.954 618.244 815.803 619.486C816.652 620.728 817.09 622.167 817.116 623.802H811.554ZM844.355 615.908V643.357H839.342L827.4 626.081H827.199V643.357H821.395V615.908H826.489L838.337 633.171H838.578V615.908H844.355ZM864.041 623.802C863.934 622.721 863.474 621.881 862.661 621.282C861.848 620.684 860.744 620.384 859.35 620.384C858.403 620.384 857.603 620.518 856.951 620.786C856.299 621.045 855.798 621.407 855.45 621.872C855.11 622.337 854.94 622.864 854.94 623.454C854.923 623.945 855.025 624.374 855.249 624.74C855.481 625.107 855.798 625.424 856.2 625.692C856.602 625.951 857.067 626.179 857.594 626.375C858.122 626.563 858.684 626.724 859.283 626.858L861.749 627.448C862.947 627.716 864.046 628.073 865.047 628.52C866.047 628.967 866.914 629.516 867.647 630.169C868.379 630.821 868.947 631.589 869.349 632.474C869.76 633.359 869.97 634.373 869.979 635.517C869.97 637.196 869.541 638.653 868.692 639.886C867.852 641.11 866.637 642.062 865.047 642.741C863.465 643.411 861.557 643.746 859.323 643.746C857.107 643.746 855.177 643.407 853.533 642.727C851.898 642.048 850.62 641.043 849.7 639.712C848.788 638.371 848.31 636.714 848.266 634.739H853.882C853.944 635.659 854.208 636.428 854.672 637.044C855.146 637.652 855.776 638.112 856.562 638.425C857.358 638.729 858.256 638.881 859.256 638.881C860.239 638.881 861.093 638.738 861.816 638.452C862.549 638.166 863.116 637.768 863.519 637.259C863.921 636.75 864.122 636.164 864.122 635.503C864.122 634.887 863.939 634.368 863.572 633.948C863.215 633.528 862.688 633.171 861.991 632.876C861.303 632.581 860.458 632.313 859.457 632.072L856.468 631.321C854.154 630.758 852.327 629.878 850.987 628.681C849.646 627.484 848.98 625.871 848.989 623.842C848.98 622.18 849.423 620.728 850.316 619.486C851.219 618.244 852.456 617.275 854.029 616.578C855.602 615.881 857.389 615.532 859.39 615.532C861.428 615.532 863.206 615.881 864.725 616.578C866.253 617.275 867.441 618.244 868.29 619.486C869.139 620.728 869.577 622.167 869.604 623.802H864.041ZM897.509 623.802C897.402 622.721 896.942 621.881 896.129 621.282C895.316 620.684 894.212 620.384 892.818 620.384C891.871 620.384 891.071 620.518 890.419 620.786C889.767 621.045 889.266 621.407 888.918 621.872C888.578 622.337 888.408 622.864 888.408 623.454C888.391 623.945 888.493 624.374 888.717 624.74C888.949 625.107 889.266 625.424 889.668 625.692C890.07 625.951 890.535 626.179 891.062 626.375C891.589 626.563 892.152 626.724 892.751 626.858L895.217 627.448C896.415 627.716 897.514 628.073 898.514 628.52C899.515 628.967 900.382 629.516 901.115 630.169C901.847 630.821 902.415 631.589 902.817 632.474C903.228 633.359 903.438 634.373 903.447 635.517C903.438 637.196 903.009 638.653 902.16 639.886C901.32 641.11 900.105 642.062 898.514 642.741C896.933 643.411 895.025 643.746 892.791 643.746C890.575 643.746 888.645 643.407 887.001 642.727C885.366 642.048 884.088 641.043 883.168 639.712C882.256 638.371 881.778 636.714 881.734 634.739H887.35C887.412 635.659 887.676 636.428 888.14 637.044C888.614 637.652 889.244 638.112 890.03 638.425C890.825 638.729 891.723 638.881 892.724 638.881C893.707 638.881 894.56 638.738 895.284 638.452C896.017 638.166 896.584 637.768 896.986 637.259C897.389 636.75 897.59 636.164 897.59 635.503C897.59 634.887 897.406 634.368 897.04 633.948C896.683 633.528 896.155 633.171 895.459 632.876C894.77 632.581 893.926 632.313 892.925 632.072L889.936 631.321C887.622 630.758 885.795 629.878 884.454 628.681C883.114 627.484 882.448 625.871 882.457 623.842C882.448 622.18 882.891 620.728 883.784 619.486C884.687 618.244 885.924 617.275 887.497 616.578C889.07 615.881 890.857 615.532 892.858 615.532C894.896 615.532 896.674 615.881 898.193 616.578C899.721 617.275 900.909 618.244 901.758 619.486C902.607 620.728 903.045 622.167 903.072 623.802H897.509ZM913.114 643.746C911.8 643.746 910.63 643.518 909.602 643.063C908.575 642.598 907.762 641.914 907.163 641.012C906.573 640.1 906.278 638.966 906.278 637.607C906.278 636.464 906.488 635.503 906.908 634.726C907.328 633.948 907.9 633.323 908.624 632.849C909.348 632.376 910.17 632.018 911.09 631.777C912.019 631.536 912.993 631.366 914.012 631.268C915.209 631.143 916.174 631.026 916.907 630.919C917.64 630.803 918.171 630.633 918.502 630.41C918.833 630.186 918.998 629.856 918.998 629.418V629.338C918.998 628.489 918.73 627.832 918.194 627.367C917.667 626.903 916.916 626.67 915.942 626.67C914.914 626.67 914.097 626.898 913.489 627.354C912.882 627.801 912.48 628.364 912.283 629.043L907.002 628.614C907.27 627.363 907.797 626.282 908.584 625.37C909.37 624.45 910.384 623.744 911.626 623.253C912.877 622.752 914.325 622.502 915.969 622.502C917.113 622.502 918.207 622.636 919.253 622.904C920.307 623.172 921.241 623.588 922.054 624.151C922.876 624.713 923.524 625.437 923.997 626.322C924.471 627.198 924.708 628.247 924.708 629.472V643.357H919.293V640.503H919.132C918.801 641.146 918.359 641.713 917.805 642.205C917.251 642.687 916.585 643.067 915.808 643.344C915.031 643.612 914.133 643.746 913.114 643.746ZM914.749 639.806C915.589 639.806 916.331 639.64 916.974 639.31C917.617 638.97 918.122 638.514 918.489 637.943C918.855 637.371 919.038 636.723 919.038 635.999V633.814C918.859 633.93 918.614 634.038 918.301 634.136C917.997 634.225 917.653 634.31 917.269 634.391C916.885 634.462 916.5 634.529 916.116 634.592C915.732 634.645 915.384 634.694 915.071 634.739C914.401 634.837 913.815 634.994 913.315 635.208C912.815 635.423 912.426 635.713 912.149 636.079C911.872 636.437 911.733 636.884 911.733 637.42C911.733 638.197 912.015 638.791 912.578 639.202C913.15 639.605 913.873 639.806 914.749 639.806ZM934.847 615.908V643.357H929.138V615.908H934.847ZM948.803 643.76C946.686 643.76 944.863 643.331 943.335 642.473C941.816 641.606 940.645 640.382 939.823 638.8C939.001 637.21 938.59 635.329 938.59 633.158C938.59 631.04 939.001 629.181 939.823 627.582C940.645 625.982 941.802 624.736 943.295 623.842C944.796 622.949 946.556 622.502 948.576 622.502C949.934 622.502 951.198 622.721 952.369 623.159C953.548 623.588 954.576 624.235 955.451 625.102C956.336 625.969 957.024 627.059 957.516 628.373C958.007 629.677 958.253 631.205 958.253 632.956V634.525H940.869V630.986H952.878C952.878 630.164 952.699 629.436 952.342 628.801C951.984 628.167 951.489 627.671 950.854 627.314C950.229 626.947 949.5 626.764 948.669 626.764C947.803 626.764 947.034 626.965 946.364 627.367C945.703 627.761 945.185 628.292 944.809 628.962C944.434 629.624 944.242 630.361 944.233 631.174V634.538C944.233 635.557 944.421 636.437 944.796 637.179C945.18 637.92 945.721 638.492 946.418 638.894C947.115 639.296 947.941 639.497 948.897 639.497C949.532 639.497 950.113 639.408 950.64 639.229C951.167 639.051 951.618 638.782 951.993 638.425C952.369 638.068 952.655 637.63 952.851 637.112L958.132 637.46C957.864 638.729 957.315 639.837 956.484 640.784C955.661 641.722 954.598 642.455 953.294 642.982C951.998 643.5 950.501 643.76 948.803 643.76Z" fill="white"/>
<path d="M14.1997 14.3351V9.55014H36.744V14.3351H28.3401V37H22.6035V14.3351H14.1997ZM46.7462 37.4021C44.6284 37.4021 42.8056 36.9732 41.2776 36.1154C39.7586 35.2486 38.588 34.0245 37.766 32.4429C36.9439 30.8524 36.5329 28.9715 36.5329 26.8001C36.5329 24.6824 36.9439 22.8238 37.766 21.2244C38.588 19.6249 39.7452 18.3784 41.2374 17.4849C42.7386 16.5913 44.4989 16.1445 46.5183 16.1445C47.8765 16.1445 49.1409 16.3635 50.3114 16.8013C51.4909 17.2302 52.5185 17.878 53.3942 18.7448C54.2788 19.6115 54.9668 20.7016 55.4583 22.0152C55.9497 23.3197 56.1954 24.8477 56.1954 26.5991V28.1673H38.8114V24.6288H50.8207C50.8207 23.8067 50.642 23.0785 50.2846 22.4441C49.9272 21.8096 49.4313 21.3137 48.7968 20.9563C48.1714 20.59 47.4431 20.4068 46.6121 20.4068C45.7454 20.4068 44.9769 20.6078 44.3068 21.0099C43.6455 21.4031 43.1273 21.9347 42.752 22.6049C42.3767 23.2661 42.1846 24.0033 42.1756 24.8164V28.1807C42.1756 29.1993 42.3633 30.0795 42.7386 30.8211C43.1228 31.5627 43.6634 32.1346 44.3604 32.5367C45.0573 32.9388 45.8839 33.1399 46.84 33.1399C47.4744 33.1399 48.0552 33.0505 48.5824 32.8718C49.1096 32.6931 49.5608 32.425 49.9361 32.0676C50.3114 31.7102 50.5974 31.2723 50.7939 30.7541L56.0748 31.1026C55.8067 32.3714 55.2572 33.4794 54.4262 34.4266C53.6041 35.3648 52.5408 36.0975 51.2362 36.6247C49.9406 37.143 48.4439 37.4021 46.7462 37.4021ZM65.7922 37.3887C64.4787 37.3887 63.3081 37.1608 62.2805 36.7051C61.2529 36.2405 60.4398 35.5569 59.8411 34.6544C59.2514 33.743 58.9565 32.6082 58.9565 31.25C58.9565 30.1063 59.1665 29.1457 59.5865 28.3683C60.0064 27.5909 60.5783 26.9654 61.3021 26.4918C62.0259 26.0183 62.8479 25.6608 63.7683 25.4196C64.6976 25.1783 65.6715 25.0086 66.6902 24.9103C67.8875 24.7852 68.8526 24.669 69.5853 24.5618C70.318 24.4456 70.8497 24.2758 71.1803 24.0525C71.5109 23.8291 71.6762 23.4985 71.6762 23.0606V22.9802C71.6762 22.1313 71.4081 21.4746 70.872 21.0099C70.3448 20.5453 69.5942 20.3129 68.6203 20.3129C67.5927 20.3129 66.7751 20.5408 66.1675 20.9965C65.5598 21.4433 65.1578 22.0062 64.9612 22.6853L59.6803 22.2564C59.9484 21.0055 60.4755 19.9243 61.2619 19.0128C62.0482 18.0925 63.0624 17.3866 64.3044 16.8951C65.5554 16.3947 67.0029 16.1445 68.6471 16.1445C69.7908 16.1445 70.8854 16.2786 71.9309 16.5466C72.9853 16.8147 73.919 17.2302 74.7321 17.7931C75.5542 18.3561 76.202 19.0799 76.6756 19.9645C77.1492 20.8401 77.386 21.8901 77.386 23.1142V37H71.9711V34.1451H71.8102C71.4796 34.7885 71.0373 35.3559 70.4833 35.8473C69.9293 36.3298 69.2636 36.7096 68.4862 36.9866C67.7088 37.2547 66.8108 37.3887 65.7922 37.3887ZM67.4274 33.4481C68.2673 33.4481 69.009 33.2828 69.6523 32.9522C70.2957 32.6127 70.8005 32.157 71.1669 31.5851C71.5332 31.0132 71.7164 30.3654 71.7164 29.6416V27.4569C71.5377 27.573 71.292 27.6803 70.9792 27.7786C70.6754 27.8679 70.3314 27.9528 69.9472 28.0332C69.563 28.1047 69.1787 28.1717 68.7945 28.2343C68.4103 28.2879 68.0618 28.337 67.749 28.3817C67.0789 28.48 66.4936 28.6364 65.9932 28.8508C65.4928 29.0653 65.1041 29.3557 64.8271 29.722C64.5501 30.0795 64.4116 30.5262 64.4116 31.0624C64.4116 31.8397 64.6931 32.434 65.256 32.845C65.8279 33.2471 66.5517 33.4481 67.4274 33.4481ZM81.8158 37V16.4126H87.2575V20.0449H87.4987C87.9276 18.8386 88.6425 17.887 89.6433 17.19C90.644 16.493 91.8414 16.1445 93.2353 16.1445C94.6471 16.1445 95.849 16.4975 96.8408 17.2034C97.8326 17.9004 98.4939 18.8475 98.8245 20.0449H99.0389C99.4589 18.8654 100.218 17.9227 101.317 17.2168C102.425 16.502 103.735 16.1445 105.245 16.1445C107.166 16.1445 108.725 16.7566 109.922 17.9808C111.129 19.196 111.732 20.9206 111.732 23.1544V37H106.035V24.2803C106.035 23.1366 105.732 22.2788 105.124 21.7069C104.516 21.135 103.757 20.8491 102.845 20.8491C101.809 20.8491 101 21.1797 100.419 21.8409C99.8387 22.4932 99.5483 23.3555 99.5483 24.4277V37H94.0127V24.1597C94.0127 23.15 93.7223 22.3458 93.1415 21.7471C92.5696 21.1484 91.8146 20.8491 90.8764 20.8491C90.2419 20.8491 89.6701 21.0099 89.1607 21.3316C88.6604 21.6443 88.2627 22.0866 87.9679 22.6585C87.673 23.2215 87.5255 23.8827 87.5255 24.6422V37H81.8158Z" fill="white"/>
<path d="M842.41 75.9407C842.302 74.8596 841.842 74.0196 841.029 73.4209C840.216 72.8223 839.112 72.5229 837.718 72.5229C836.771 72.5229 835.972 72.6569 835.319 72.925C834.667 73.1841 834.167 73.546 833.818 74.0107C833.479 74.4753 833.309 75.0025 833.309 75.5923C833.291 76.0837 833.394 76.5126 833.617 76.879C833.849 77.2453 834.167 77.5625 834.569 77.8306C834.971 78.0897 835.435 78.3176 835.963 78.5142C836.49 78.7018 837.053 78.8627 837.651 78.9967L840.118 79.5864C841.315 79.8545 842.414 80.2119 843.415 80.6587C844.416 81.1055 845.282 81.655 846.015 82.3073C846.748 82.9596 847.315 83.728 847.717 84.6127C848.128 85.4973 848.338 86.5114 848.347 87.6552C848.338 89.3351 847.909 90.7916 847.061 92.0247C846.221 93.2488 845.005 94.2004 843.415 94.8795C841.833 95.5497 839.926 95.8848 837.692 95.8848C835.476 95.8848 833.546 95.5452 831.901 94.8661C830.266 94.187 828.988 93.1818 828.068 91.8504C827.157 90.5101 826.679 88.8525 826.634 86.8778H832.25C832.312 87.7982 832.576 88.5666 833.041 89.1832C833.514 89.7908 834.144 90.251 834.931 90.5637C835.726 90.8675 836.624 91.0194 837.625 91.0194C838.608 91.0194 839.461 90.8764 840.185 90.5905C840.917 90.3046 841.485 89.9069 841.887 89.3976C842.289 88.8883 842.49 88.303 842.49 87.6418C842.49 87.0252 842.307 86.507 841.94 86.087C841.583 85.667 841.056 85.3096 840.359 85.0147C839.671 84.7199 838.826 84.4518 837.826 84.2106L834.837 83.46C832.522 82.897 830.695 82.0169 829.355 80.8195C828.015 79.6222 827.349 78.0093 827.358 75.981C827.349 74.319 827.791 72.8669 828.685 71.6249C829.587 70.3829 830.825 69.4134 832.397 68.7164C833.97 68.0194 835.757 67.6709 837.759 67.6709C839.796 67.6709 841.574 68.0194 843.093 68.7164C844.621 69.4134 845.81 70.3829 846.658 71.6249C847.507 72.8669 847.945 74.3055 847.972 75.9407H842.41ZM861.526 95.8982C859.408 95.8982 857.585 95.4693 856.057 94.6115C854.538 93.7447 853.368 92.5206 852.546 90.939C851.724 89.3485 851.313 87.4675 851.313 85.2962C851.313 83.1785 851.724 81.3199 852.546 79.7205C853.368 78.121 854.525 76.8745 856.017 75.981C857.518 75.0874 859.279 74.6406 861.298 74.6406C862.656 74.6406 863.921 74.8596 865.091 75.2974C866.271 75.7263 867.298 76.3741 868.174 77.2409C869.059 78.1076 869.747 79.1977 870.238 80.5113C870.73 81.8158 870.975 83.3438 870.975 85.0952V86.6633H853.591V83.1249H865.601C865.601 82.3028 865.422 81.5746 865.064 80.9402C864.707 80.3057 864.211 79.8098 863.577 79.4524C862.951 79.086 862.223 78.9029 861.392 78.9029C860.525 78.9029 859.757 79.1039 859.087 79.506C858.425 79.8992 857.907 80.4308 857.532 81.101C857.157 81.7622 856.964 82.4994 856.955 83.3125V86.6768C856.955 87.6954 857.143 88.5755 857.518 89.3172C857.903 90.0588 858.443 90.6307 859.14 91.0328C859.837 91.4349 860.664 91.636 861.62 91.636C862.254 91.636 862.835 91.5466 863.362 91.3679C863.889 91.1892 864.341 90.9211 864.716 90.5637C865.091 90.2063 865.377 89.7684 865.574 89.2502L870.855 89.5987C870.587 90.8675 870.037 91.9755 869.206 92.9227C868.384 93.8609 867.321 94.5936 866.016 95.1208C864.72 95.6391 863.224 95.8982 861.526 95.8982ZM884.084 95.8982C881.966 95.8982 880.143 95.4693 878.615 94.6115C877.096 93.7447 875.926 92.5206 875.103 90.939C874.281 89.3485 873.87 87.4675 873.87 85.2962C873.87 83.1785 874.281 81.3199 875.103 79.7205C875.926 78.121 877.083 76.8745 878.575 75.981C880.076 75.0874 881.836 74.6406 883.856 74.6406C885.214 74.6406 886.478 74.8596 887.649 75.2974C888.828 75.7263 889.856 76.3741 890.732 77.2409C891.616 78.1076 892.304 79.1977 892.796 80.5113C893.287 81.8158 893.533 83.3438 893.533 85.0952V86.6633H876.149V83.1249H888.158C888.158 82.3028 887.98 81.5746 887.622 80.9402C887.265 80.3057 886.769 79.8098 886.134 79.4524C885.509 79.086 884.781 78.9029 883.95 78.9029C883.083 78.9029 882.314 79.1039 881.644 79.506C880.983 79.8992 880.465 80.4308 880.09 81.101C879.714 81.7622 879.522 82.4994 879.513 83.3125V86.6768C879.513 87.6954 879.701 88.5755 880.076 89.3172C880.46 90.0588 881.001 90.6307 881.698 91.0328C882.395 91.4349 883.221 91.636 884.177 91.636C884.812 91.636 885.393 91.5466 885.92 91.3679C886.447 91.1892 886.898 90.9211 887.274 90.5637C887.649 90.2063 887.935 89.7684 888.131 89.2502L893.412 89.5987C893.144 90.8675 892.595 91.9755 891.764 92.9227C890.942 93.8609 889.878 94.5936 888.574 95.1208C887.278 95.6391 885.781 95.8982 884.084 95.8982ZM904.845 95.8312C903.282 95.8312 901.865 95.4291 900.596 94.6249C899.337 93.8118 898.336 92.6189 897.594 91.0462C896.861 89.4646 896.495 87.5256 896.495 85.2292C896.495 82.8702 896.875 80.9089 897.634 79.3452C898.394 77.7725 899.404 76.5975 900.663 75.8201C901.932 75.0338 903.322 74.6406 904.832 74.6406C905.985 74.6406 906.945 74.8372 907.714 75.2304C908.491 75.6146 909.116 76.0971 909.59 76.6779C910.073 77.2498 910.439 77.8127 910.689 78.3667H910.863V68.0462H916.56V95.4961H910.93V92.1989H910.689C910.421 92.7708 910.041 93.3382 909.55 93.9011C909.067 94.4551 908.437 94.9153 907.66 95.2816C906.892 95.648 905.953 95.8312 904.845 95.8312ZM906.655 91.2875C907.575 91.2875 908.352 91.0373 908.987 90.5369C909.63 90.0276 910.122 89.3172 910.461 88.4058C910.81 87.4944 910.984 86.4266 910.984 85.2024C910.984 83.9782 910.814 82.9149 910.475 82.0124C910.135 81.1099 909.644 80.413 909 79.9215C908.357 79.4301 907.575 79.1843 906.655 79.1843C905.717 79.1843 904.926 79.439 904.282 79.9483C903.639 80.4576 903.152 81.1635 902.821 82.066C902.491 82.9685 902.325 84.014 902.325 85.2024C902.325 86.3998 902.491 87.4586 902.821 88.379C903.161 89.2904 903.648 90.0052 904.282 90.5235C904.926 91.0328 905.717 91.2875 906.655 91.2875Z" fill="white"/>
<path d="M883.377 703.473C881.849 703.473 880.482 703.165 879.276 702.548C878.079 701.923 877.123 701.065 876.408 699.975C875.702 698.885 875.327 697.638 875.282 696.235H877.708C877.788 697.692 878.36 698.889 879.423 699.827C880.487 700.757 881.805 701.221 883.377 701.221C884.602 701.221 885.692 700.931 886.648 700.35C887.604 699.76 888.35 698.956 888.886 697.937C889.431 696.91 889.704 695.753 889.704 694.466C889.695 693.126 889.404 691.946 888.833 690.928C888.261 689.9 887.483 689.096 886.5 688.515C885.526 687.934 884.432 687.644 883.217 687.644C882.296 687.635 881.394 687.787 880.509 688.099C879.625 688.412 878.887 688.814 878.298 689.306L875.791 688.984L877.44 675.648H891.004V677.9H879.544L878.445 687.081H878.579C879.187 686.571 879.924 686.156 880.791 685.834C881.666 685.513 882.591 685.352 883.565 685.352C885.182 685.352 886.634 685.74 887.921 686.518C889.217 687.295 890.24 688.367 890.991 689.735C891.75 691.093 892.13 692.657 892.13 694.426C892.13 696.159 891.75 697.71 890.991 699.077C890.24 700.435 889.203 701.507 887.881 702.293C886.567 703.08 885.066 703.473 883.377 703.473ZM906.357 703.473C904.427 703.473 902.779 702.919 901.412 701.811C900.053 700.694 899.008 699.081 898.275 696.972C897.551 694.864 897.19 692.33 897.19 689.373C897.19 686.424 897.551 683.9 898.275 681.8C899.008 679.691 900.058 678.078 901.425 676.961C902.801 675.835 904.445 675.273 906.357 675.273C908.27 675.273 909.909 675.835 911.276 676.961C912.652 678.078 913.702 679.691 914.426 681.8C915.159 683.9 915.525 686.424 915.525 689.373C915.525 692.33 915.159 694.864 914.426 696.972C913.702 699.081 912.657 700.694 911.29 701.811C909.932 702.919 908.287 703.473 906.357 703.473ZM906.357 701.221C908.475 701.221 910.128 700.189 911.317 698.125C912.505 696.052 913.099 693.135 913.099 689.373C913.099 686.871 912.827 684.735 912.282 682.966C911.745 681.188 910.973 679.83 909.963 678.891C908.962 677.953 907.76 677.484 906.357 677.484C904.257 677.484 902.609 678.529 901.412 680.62C900.214 682.702 899.616 685.62 899.616 689.373C899.616 691.875 899.884 694.01 900.42 695.779C900.965 697.549 901.738 698.898 902.738 699.827C903.748 700.757 904.954 701.221 906.357 701.221ZM934.866 698.004V696.758C934.866 695.73 935.072 694.806 935.483 693.983C935.894 693.152 936.479 692.496 937.238 692.013C937.998 691.531 938.9 691.289 939.946 691.289C941 691.289 941.903 691.531 942.653 692.013C943.404 692.496 943.98 693.152 944.382 693.983C944.784 694.806 944.986 695.73 944.986 696.758V698.004C944.986 699.032 944.78 699.957 944.369 700.779C943.967 701.601 943.391 702.258 942.64 702.749C941.889 703.232 940.991 703.473 939.946 703.473C938.883 703.473 937.971 703.232 937.212 702.749C936.461 702.258 935.88 701.601 935.469 700.779C935.067 699.957 934.866 699.032 934.866 698.004ZM936.97 696.758V698.004C936.97 699.014 937.216 699.876 937.708 700.591C938.208 701.297 938.954 701.65 939.946 701.65C940.911 701.65 941.639 701.297 942.131 700.591C942.622 699.876 942.868 699.014 942.868 698.004V696.758C942.868 695.748 942.627 694.89 942.144 694.184C941.662 693.47 940.929 693.112 939.946 693.112C938.972 693.112 938.23 693.47 937.721 694.184C937.221 694.89 936.97 695.748 936.97 696.758ZM921.034 681.988V680.741C921.034 679.713 921.239 678.789 921.65 677.967C922.061 677.144 922.647 676.492 923.406 676.01C924.166 675.518 925.068 675.273 926.114 675.273C927.168 675.273 928.071 675.518 928.821 676.01C929.572 676.492 930.148 677.144 930.55 677.967C930.952 678.789 931.153 679.713 931.153 680.741V681.988C931.153 683.015 930.948 683.944 930.537 684.775C930.135 685.597 929.558 686.25 928.808 686.732C928.057 687.215 927.159 687.456 926.114 687.456C925.05 687.456 924.139 687.215 923.379 686.732C922.629 686.25 922.048 685.597 921.637 684.775C921.235 683.944 921.034 683.015 921.034 681.988ZM923.138 680.741V681.988C923.138 682.997 923.384 683.86 923.875 684.574C924.376 685.28 925.122 685.633 926.114 685.633C927.079 685.633 927.807 685.28 928.298 684.574C928.79 683.86 929.036 682.997 929.036 681.988V680.741C929.036 679.731 928.794 678.874 928.312 678.168C927.829 677.453 927.097 677.095 926.114 677.095C925.14 677.095 924.398 677.453 923.889 678.168C923.388 678.874 923.138 679.731 923.138 680.741ZM922.267 703.098L941.125 675.648H943.498L924.639 703.098H922.267Z" fill="#C6C6C6"/>
<path d="M27.1683 90.0843C25.4795 90.0843 23.9694 89.7805 22.638 89.1729C21.3066 88.5563 20.2522 87.703 19.4749 86.6128C18.6975 85.5227 18.2864 84.2673 18.2418 82.8465H20.775C20.8196 83.8473 21.1279 84.723 21.6998 85.4736C22.2717 86.2152 23.0312 86.796 23.9783 87.216C24.9255 87.627 25.9799 87.8325 27.1415 87.8325C28.4104 87.8325 29.5273 87.5957 30.4923 87.1222C31.4663 86.6486 32.2258 86.0008 32.7709 85.1787C33.3249 84.3477 33.6019 83.4095 33.6019 82.364C33.6019 81.256 33.3204 80.2776 32.7575 79.4287C32.1945 78.5798 31.3859 77.9186 30.3315 77.445C29.286 76.9714 28.0351 76.7346 26.5786 76.7346H24.9702V74.4829H26.5786C27.767 74.4829 28.8169 74.2684 29.7283 73.8395C30.6487 73.4017 31.3725 72.7896 31.8997 72.0033C32.4269 71.217 32.6905 70.2921 32.6905 69.2288C32.6905 68.2191 32.4626 67.33 32.0069 66.5616C31.5512 65.7931 30.9078 65.19 30.0768 64.7521C29.2548 64.3143 28.2942 64.0954 27.1951 64.0954C26.1318 64.0954 25.1578 64.3009 24.2732 64.7119C23.3886 65.1229 22.6738 65.7038 22.1287 66.4543C21.5926 67.2049 21.3066 68.094 21.2709 69.1216H18.8449C18.8806 67.6919 19.2738 66.4365 20.0244 65.3553C20.7839 64.2651 21.7892 63.4163 23.0401 62.8087C24.3 62.1921 25.694 61.8838 27.2219 61.8838C28.8393 61.8838 30.2377 62.2144 31.4172 62.8757C32.5966 63.5369 33.5081 64.417 34.1514 65.5161C34.8037 66.6062 35.1299 67.8081 35.1299 69.1216C35.1299 70.6853 34.7054 72.0256 33.8565 73.1426C33.0077 74.2506 31.8639 75.019 30.4253 75.4479V75.6222C32.1767 75.9706 33.5527 76.748 34.5535 77.9543C35.5632 79.1517 36.0681 80.6216 36.0681 82.364C36.0681 83.8294 35.6839 85.1474 34.9154 86.318C34.147 87.4796 33.0926 88.3999 31.7522 89.079C30.4208 89.7492 28.8929 90.0843 27.1683 90.0843ZM50.9055 90.0843C49.2167 90.0843 47.7066 89.7805 46.3752 89.1729C45.0438 88.5563 43.9894 87.703 43.212 86.6128C42.4346 85.5227 42.0236 84.2673 41.9789 82.8465H44.5121C44.5568 83.8473 44.8651 84.723 45.437 85.4736C46.0088 86.2152 46.7683 86.796 47.7155 87.216C48.6627 87.627 49.7171 87.8325 50.8787 87.8325C52.1475 87.8325 53.2645 87.5957 54.2295 87.1222C55.2035 86.6486 55.963 86.0008 56.508 85.1787C57.062 84.3477 57.339 83.4095 57.339 82.364C57.339 81.256 57.0576 80.2776 56.4946 79.4287C55.9317 78.5798 55.123 77.9186 54.0687 77.445C53.0232 76.9714 51.7722 76.7346 50.3157 76.7346H48.7074V74.4829H50.3157C51.5042 74.4829 52.5541 74.2684 53.4655 73.8395C54.3859 73.4017 55.1096 72.7896 55.6368 72.0033C56.164 71.217 56.4276 70.2921 56.4276 69.2288C56.4276 68.2191 56.1998 67.33 55.7441 66.5616C55.2883 65.7931 54.645 65.19 53.814 64.7521C52.9919 64.3143 52.0314 64.0954 50.9323 64.0954C49.869 64.0954 48.895 64.3009 48.0104 64.7119C47.1258 65.1229 46.4109 65.7038 45.8659 66.4543C45.3297 67.2049 45.0438 68.094 45.0081 69.1216H42.5821C42.6178 67.6919 43.011 66.4365 43.7616 65.3553C44.5211 64.2651 45.5263 63.4163 46.7773 62.8087C48.0372 62.1921 49.4311 61.8838 50.9591 61.8838C52.5764 61.8838 53.9748 62.2144 55.1543 62.8757C56.3338 63.5369 57.2452 64.417 57.8886 65.5161C58.5409 66.6062 58.867 67.8081 58.867 69.1216C58.867 70.6853 58.4426 72.0256 57.5937 73.1426C56.7448 74.2506 55.6011 75.019 54.1625 75.4479V75.6222C55.9138 75.9706 57.2899 76.748 58.2907 77.9543C59.3004 79.1517 59.8052 80.6216 59.8052 82.364C59.8052 83.8294 59.421 85.1474 58.6526 86.318C57.8841 87.4796 56.8297 88.3999 55.4894 89.079C54.158 89.7492 52.63 90.0843 50.9055 90.0843ZM79.6153 84.6157V83.3692C79.6153 82.3417 79.8208 81.4168 80.2318 80.5948C80.6428 79.7638 81.2281 79.107 81.9876 78.6245C82.7471 78.142 83.6496 77.9007 84.6951 77.9007C85.7495 77.9007 86.652 78.142 87.4025 78.6245C88.1531 79.107 88.7295 79.7638 89.1316 80.5948C89.5337 81.4168 89.7347 82.3417 89.7347 83.3692V84.6157C89.7347 85.6433 89.5292 86.5682 89.1182 87.3902C88.7161 88.2123 88.1397 88.869 87.3891 89.3605C86.6386 89.843 85.7405 90.0843 84.6951 90.0843C83.6318 90.0843 82.7203 89.843 81.9608 89.3605C81.2102 88.869 80.6294 88.2123 80.2184 87.3902C79.8163 86.5682 79.6153 85.6433 79.6153 84.6157ZM81.7196 83.3692V84.6157C81.7196 85.6255 81.9653 86.4877 82.4567 87.2026C82.9571 87.9085 83.7032 88.2614 84.6951 88.2614C85.6601 88.2614 86.3884 87.9085 86.8798 87.2026C87.3713 86.4877 87.617 85.6255 87.617 84.6157V83.3692C87.617 82.3595 87.3757 81.5017 86.8932 80.7958C86.4107 80.081 85.678 79.7236 84.6951 79.7236C83.7211 79.7236 82.9795 80.081 82.4701 80.7958C81.9698 81.5017 81.7196 82.3595 81.7196 83.3692ZM65.7831 68.5989V67.3524C65.7831 66.3248 65.9886 65.4 66.3996 64.5779C66.8107 63.7558 67.396 63.1035 68.1555 62.621C68.915 62.1296 69.8175 61.8838 70.8629 61.8838C71.9173 61.8838 72.8198 62.1296 73.5704 62.621C74.321 63.1035 74.8973 63.7558 75.2994 64.5779C75.7015 65.4 75.9026 66.3248 75.9026 67.3524V68.5989C75.9026 69.6264 75.697 70.5557 75.286 71.3867C74.8839 72.2088 74.3076 72.8611 73.557 73.3436C72.8064 73.8261 71.9084 74.0674 70.8629 74.0674C69.7996 74.0674 68.8882 73.8261 68.1287 73.3436C67.3781 72.8611 66.7973 72.2088 66.3862 71.3867C65.9841 70.5557 65.7831 69.6264 65.7831 68.5989ZM67.8874 67.3524V68.5989C67.8874 69.6086 68.1331 70.4708 68.6246 71.1857C69.125 71.8916 69.8711 72.2445 70.8629 72.2445C71.828 72.2445 72.5562 71.8916 73.0477 71.1857C73.5391 70.4708 73.7848 69.6086 73.7848 68.5989V67.3524C73.7848 66.3426 73.5436 65.4848 73.0611 64.7789C72.5785 64.0641 71.8458 63.7067 70.8629 63.7067C69.889 63.7067 69.1473 64.0641 68.638 64.7789C68.1376 65.4848 67.8874 66.3426 67.8874 67.3524ZM67.0162 89.709L85.8746 62.2591H88.2469L69.3886 89.709H67.0162Z" fill="#C6C6C6"/>
<path d="M862.449 120.328V147.778H859.942V122.955H859.781L853.348 127.231V124.631L859.835 120.328H862.449ZM871.576 147.778L884.082 122.754V122.58H869.673V120.328H886.709V122.687L874.217 147.778H871.576ZM905.939 142.685V141.439C905.939 140.411 906.144 139.486 906.555 138.664C906.966 137.833 907.552 137.176 908.311 136.694C909.071 136.211 909.973 135.97 911.019 135.97C912.073 135.97 912.976 136.211 913.726 136.694C914.477 137.176 915.053 137.833 915.455 138.664C915.857 139.486 916.058 140.411 916.058 141.439V142.685C916.058 143.713 915.853 144.637 915.442 145.46C915.04 146.282 914.463 146.938 913.713 147.43C912.962 147.912 912.064 148.154 911.019 148.154C909.955 148.154 909.044 147.912 908.284 147.43C907.534 146.938 906.953 146.282 906.542 145.46C906.14 144.637 905.939 143.713 905.939 142.685ZM908.043 141.439V142.685C908.043 143.695 908.289 144.557 908.78 145.272C909.281 145.978 910.027 146.331 911.019 146.331C911.984 146.331 912.712 145.978 913.203 145.272C913.695 144.557 913.941 143.695 913.941 142.685V141.439C913.941 140.429 913.699 139.571 913.217 138.865C912.734 138.15 912.002 137.793 911.019 137.793C910.045 137.793 909.303 138.15 908.794 138.865C908.293 139.571 908.043 140.429 908.043 141.439ZM892.107 126.668V125.422C892.107 124.394 892.312 123.469 892.723 122.647C893.134 121.825 893.72 121.173 894.479 120.69C895.239 120.199 896.141 119.953 897.187 119.953C898.241 119.953 899.143 120.199 899.894 120.69C900.645 121.173 901.221 121.825 901.623 122.647C902.025 123.469 902.226 124.394 902.226 125.422V126.668C902.226 127.696 902.021 128.625 901.61 129.456C901.208 130.278 900.631 130.93 899.881 131.413C899.13 131.895 898.232 132.137 897.187 132.137C896.123 132.137 895.212 131.895 894.452 131.413C893.702 130.93 893.121 130.278 892.71 129.456C892.308 128.625 892.107 127.696 892.107 126.668ZM894.211 125.422V126.668C894.211 127.678 894.457 128.54 894.948 129.255C895.449 129.961 896.195 130.314 897.187 130.314C898.152 130.314 898.88 129.961 899.371 129.255C899.863 128.54 900.108 127.678 900.108 126.668V125.422C900.108 124.412 899.867 123.554 899.385 122.848C898.902 122.133 898.169 121.776 897.187 121.776C896.213 121.776 895.471 122.133 894.962 122.848C894.461 123.554 894.211 124.412 894.211 125.422ZM893.34 147.778L912.198 120.328H914.571L895.712 147.778H893.34Z" fill="#C6C6C6"/>
<path d="M660.243 586.348C660.243 588.374 658.601 590.017 656.574 590.017C654.548 590.017 652.906 588.374 652.906 586.348C652.906 584.321 654.548 582.679 656.574 582.679C658.601 582.679 660.243 584.321 660.243 586.348ZM972.122 658.58C972.122 660.606 970.479 662.249 968.453 662.249C966.427 662.249 964.784 660.606 964.784 658.58C964.784 656.554 966.427 654.911 968.453 654.911C970.479 654.911 972.122 656.554 972.122 658.58ZM754.336 650.944L754.715 650.37L754.336 650.944ZM656.954 585.774L754.715 650.37L753.956 651.518L656.195 586.922L656.954 585.774ZM779.745 657.892H968.453V659.268H779.745V657.892ZM754.715 650.37C762.141 655.276 770.845 657.892 779.745 657.892V659.268C770.575 659.268 761.607 656.573 753.956 651.518L754.715 650.37Z" fill="url(#paint17_linear_2383_1036)"/>
<path d="M277.49 178.861C277.49 176.835 279.133 175.192 281.159 175.192C283.186 175.192 284.828 176.835 284.828 178.861C284.828 180.888 283.186 182.53 281.159 182.53C279.133 182.53 277.49 180.888 277.49 178.861ZM0.331046 52.3081C0.331046 50.2818 1.97369 48.6392 4 48.6392C6.02631 48.6392 7.66895 50.2818 7.66895 52.3081C7.66895 54.3344 6.02631 55.9771 4 55.9771C1.97369 55.9771 0.331046 54.3344 0.331046 52.3081ZM280.602 179.265L202.722 71.7625L203.837 70.9553L281.716 178.458L280.602 179.265ZM165.954 52.9961H4V51.6202H165.954V52.9961ZM202.722 71.7625C194.183 59.9748 180.51 52.9961 165.954 52.9961V51.6202C180.951 51.6202 195.038 58.8105 203.837 70.9553L202.722 71.7625Z" fill="url(#paint18_linear_2383_1036)"/>
<path d="M635.8 234.546C635.8 236.572 634.158 238.215 632.131 238.215C630.105 238.215 628.462 236.572 628.462 234.546C628.462 232.519 630.105 230.877 632.131 230.877C634.158 230.877 635.8 232.519 635.8 234.546ZM935.591 111.367C935.591 113.393 933.948 115.036 931.922 115.036C929.896 115.036 928.253 113.393 928.253 111.367C928.253 109.341 929.896 107.698 931.922 107.698C933.948 107.698 935.591 109.341 935.591 111.367ZM753.922 123.412L754.386 123.92L753.922 123.412ZM631.668 234.037L753.459 122.903L754.386 123.92L632.595 235.054L631.668 234.037ZM784.99 110.679H931.922V112.055H784.99V110.679ZM753.459 122.903C762.077 115.039 773.323 110.679 784.99 110.679V112.055C773.666 112.055 762.751 116.287 754.386 123.92L753.459 122.903Z" fill="url(#paint19_linear_2383_1036)"/>
<defs>
<filter id="filter0_i_2383_1036" x="69.9883" y="40.248" width="709.941" height="709.943" filterUnits="userSpaceOnUse" color-interpolation-filters="sRGB">
<feFlood flood-opacity="0" result="BackgroundImageFix"/>
<feBlend mode="normal" in="SourceGraphic" in2="BackgroundImageFix" result="shape"/>
<feColorMatrix in="SourceAlpha" type="matrix" values="0 0 0 0 0 0 0 0 0 0 0 0 0 0 0 0 0 0 127 0" result="hardAlpha"/>
<feOffset/>
<feGaussianBlur stdDeviation="30.2689"/>
<feComposite in2="hardAlpha" operator="arithmetic" k2="-1" k3="1"/>
<feColorMatrix type="matrix" values="0 0 0 0 0 0 0 0 0 0 0 0 0 0 0 0 0 0 1 0"/>
<feBlend mode="normal" in2="shape" result="effect1_innerShadow_2383_1036"/>
</filter>
<filter id="filter1_d_2383_1036" x="66.8681" y="383.6" width="717.1" height="369.136" filterUnits="userSpaceOnUse" color-interpolation-filters="sRGB">
<feFlood flood-opacity="0" result="BackgroundImageFix"/>
<feColorMatrix in="SourceAlpha" type="matrix" values="0 0 0 0 0 0 0 0 0 0 0 0 0 0 0 0 0 0 127 0" result="hardAlpha"/>
<feOffset/>
<feGaussianBlur stdDeviation="5.91749"/>
<feComposite in2="hardAlpha" operator="out"/>
<feColorMatrix type="matrix" values="0 0 0 0 0.168627 0 0 0 0 0.788235 0 0 0 0 0 0 0 0 1 0"/>
<feBlend mode="normal" in2="BackgroundImageFix" result="effect1_dropShadow_2383_1036"/>
<feBlend mode="normal" in="SourceGraphic" in2="effect1_dropShadow_2383_1036" result="shape"/>
</filter>
<filter id="filter2_d_2383_1036" x="125.963" y="83.8537" width="441.886" height="325.567" filterUnits="userSpaceOnUse" color-interpolation-filters="sRGB">
<feFlood flood-opacity="0" result="BackgroundImageFix"/>
<feColorMatrix in="SourceAlpha" type="matrix" values="0 0 0 0 0 0 0 0 0 0 0 0 0 0 0 0 0 0 127 0" result="hardAlpha"/>
<feOffset/>
<feGaussianBlur stdDeviation="6.44424"/>
<feComposite in2="hardAlpha" operator="out"/>
<feColorMatrix type="matrix" values="0 0 0 0 1 0 0 0 0 0.333333 0 0 0 0 0 0 0 0 1 0"/>
<feBlend mode="normal" in2="BackgroundImageFix" result="effect1_dropShadow_2383_1036"/>
<feBlend mode="normal" in="SourceGraphic" in2="effect1_dropShadow_2383_1036" result="shape"/>
</filter>
<filter id="filter3_d_2383_1036" x="391.766" y="116.624" width="340.098" height="299.221" filterUnits="userSpaceOnUse" color-interpolation-filters="sRGB">
<feFlood flood-opacity="0" result="BackgroundImageFix"/>
<feColorMatrix in="SourceAlpha" type="matrix" values="0 0 0 0 0 0 0 0 0 0 0 0 0 0 0 0 0 0 127 0" result="hardAlpha"/>
<feOffset/>
<feGaussianBlur stdDeviation="8.53128"/>
<feComposite in2="hardAlpha" operator="out"/>
<feColorMatrix type="matrix" values="0 0 0 0 1 0 0 0 0 0.831373 0 0 0 0 0 0 0 0 1 0"/>
<feBlend mode="normal" in2="BackgroundImageFix" result="effect1_dropShadow_2383_1036"/>
<feBlend mode="normal" in="SourceGraphic" in2="effect1_dropShadow_2383_1036" result="shape"/>
</filter>
<filter id="filter4_d_2383_1036" x="328.28" y="331.838" width="194.523" height="127.245" filterUnits="userSpaceOnUse" color-interpolation-filters="sRGB">
<feFlood flood-opacity="0" result="BackgroundImageFix"/>
<feColorMatrix in="SourceAlpha" type="matrix" values="0 0 0 0 0 0 0 0 0 0 0 0 0 0 0 0 0 0 127 0" result="hardAlpha"/>
<feOffset dy="0.604215"/>
<feGaussianBlur stdDeviation="18.8817"/>
<feComposite in2="hardAlpha" operator="out"/>
<feColorMatrix type="matrix" values="0 0 0 0 0 0 0 0 0 0.633333 0 0 0 0 1 0 0 0 0.25 0"/>
<feBlend mode="normal" in2="BackgroundImageFix" result="effect1_dropShadow_2383_1036"/>
<feBlend mode="normal" in="SourceGraphic" in2="effect1_dropShadow_2383_1036" result="shape"/>
</filter>
<radialGradient id="paint0_radial_2383_1036" cx="0" cy="0" r="1" gradientUnits="userSpaceOnUse" gradientTransform="translate(424.958 395.219) rotate(90) scale(352.219)">
<stop stop-opacity="0.1"/>
<stop offset="1" stop-color="#2B2B2B" stop-opacity="0.5"/>
</radialGradient>
<linearGradient id="paint1_linear_2383_1036" x1="424.958" y1="43" x2="424.958" y2="747.439" gradientUnits="userSpaceOnUse">
<stop stop-color="#2BAFE7"/>
<stop offset="1" stop-color="#2564C2"/>
</linearGradient>
<linearGradient id="paint2_linear_2383_1036" x1="424.956" y1="101.476" x2="424.956" y2="673.832" gradientUnits="userSpaceOnUse">
<stop stop-color="#2BACE6"/>
<stop offset="1" stop-color="#2668C4"/>
</linearGradient>
<linearGradient id="paint3_linear_2383_1036" x1="424.953" y1="219.109" x2="424.953" y2="571.329" gradientUnits="userSpaceOnUse">
<stop stop-color="#2BACE6"/>
<stop offset="1" stop-color="#2668C4"/>
</linearGradient>
<linearGradient id="paint4_linear_2383_1036" x1="421.516" y1="263.137" x2="421.516" y2="527.301" gradientUnits="userSpaceOnUse">
<stop stop-color="#2BACE6"/>
<stop offset="1" stop-color="#2668C4"/>
</linearGradient>
<linearGradient id="paint5_linear_2383_1036" x1="424.61" y1="156.509" x2="424.61" y2="622.237" gradientUnits="userSpaceOnUse">
<stop stop-color="#2BACE6"/>
<stop offset="1" stop-color="#2668C4"/>
</linearGradient>
<linearGradient id="paint6_linear_2383_1036" x1="424.961" y1="307.163" x2="424.961" y2="483.273" gradientUnits="userSpaceOnUse">
<stop stop-color="#2BACE6"/>
<stop offset="1" stop-color="#2668C4"/>
</linearGradient>
<radialGradient id="paint7_radial_2383_1036" cx="0" cy="0" r="1" gradientUnits="userSpaceOnUse" gradientTransform="translate(360.409 493.365) rotate(130.821) scale(295.159 296.227)">
<stop stop-color="#156300" stop-opacity="0.1"/>
<stop offset="1" stop-color="#2BC900" stop-opacity="0.5"/>
</radialGradient>
<radialGradient id="paint8_radial_2383_1036" cx="0" cy="0" r="1" gradientUnits="userSpaceOnUse" gradientTransform="translate(341.586 409.817) rotate(178.834) scale(217.674 232.96)">
<stop stop-color="#FF5500" stop-opacity="0.1"/>
<stop offset="1" stop-color="#993300" stop-opacity="0.5"/>
</radialGradient>
<linearGradient id="paint9_linear_2383_1036" x1="346.677" y1="73.7411" x2="385.221" y2="203.007" gradientUnits="userSpaceOnUse">
<stop stop-color="#998000" stop-opacity="0.5"/>
<stop offset="1" stop-color="#FFD500" stop-opacity="0.1"/>
</linearGradient>
<radialGradient id="paint10_radial_2383_1036" cx="0" cy="0" r="1" gradientUnits="userSpaceOnUse" gradientTransform="translate(424.961 395.214) rotate(90) scale(88.0549)">
<stop stop-color="#1C1C1C"/>
<stop offset="1" stop-color="#202020"/>
</radialGradient>
<linearGradient id="paint11_linear_2383_1036" x1="424.961" y1="307.159" x2="424.961" y2="483.269" gradientUnits="userSpaceOnUse">
<stop stop-color="#2BAFE7"/>
<stop offset="1" stop-color="#2564C2"/>
</linearGradient>
<linearGradient id="paint12_linear_2383_1036" x1="427.264" y1="369.539" x2="433.012" y2="375.552" gradientUnits="userSpaceOnUse">
<stop offset="0.21" stop-color="#F15A24"/>
<stop offset="0.6841" stop-color="#FBB03B"/>
</linearGradient>
<linearGradient id="paint13_linear_2383_1036" x1="422.665" y1="376.677" x2="416.916" y2="370.664" gradientUnits="userSpaceOnUse">
<stop offset="0.21" stop-color="#ED1E79"/>
<stop offset="0.8929" stop-color="#522785"/>
</linearGradient>
<linearGradient id="paint14_linear_2383_1036" x1="389.866" y1="379.541" x2="389.866" y2="416.461" gradientUnits="userSpaceOnUse">
<stop stop-color="#EEF4F7"/>
<stop offset="1" stop-color="#99C0D8"/>
</linearGradient>
<linearGradient id="paint15_linear_2383_1036" x1="424.93" y1="380.58" x2="424.93" y2="420.715" gradientUnits="userSpaceOnUse">
<stop stop-color="#EEF4F7"/>
<stop offset="1" stop-color="#99C0D8"/>
</linearGradient>
<linearGradient id="paint16_linear_2383_1036" x1="460.418" y1="379.541" x2="460.418" y2="416.764" gradientUnits="userSpaceOnUse">
<stop stop-color="#EEF4F7"/>
<stop offset="1" stop-color="#99C0D8"/>
</linearGradient>
<linearGradient id="paint17_linear_2383_1036" x1="665.863" y1="579.124" x2="930.988" y2="671.158" gradientUnits="userSpaceOnUse">
<stop stop-color="#A5FF8D"/>
<stop offset="1" stop-color="#2BC900"/>
</linearGradient>
<linearGradient id="paint18_linear_2383_1036" x1="292.213" y1="281.514" x2="-116.373" y2="274.859" gradientUnits="userSpaceOnUse">
<stop stop-color="#FFB38D"/>
<stop offset="1" stop-color="#FF5500"/>
</linearGradient>
<linearGradient id="paint19_linear_2383_1036" x1="635.503" y1="1.94924" x2="519.329" y2="346.597" gradientUnits="userSpaceOnUse">
<stop stop-color="#FFD400"/>
<stop offset="1" stop-color="#FFED92"/>
</linearGradient>
</defs>
</svg>
