<svg width="49" height="46" viewBox="0 0 49 46" fill="none" xmlns="http://www.w3.org/2000/svg">
<path d="M4.2217 45.209C2.00557 45.209 0.209045 43.4125 0.209045 41.1963L0.209044 7.10941C0.209044 3.61978 3.03794 0.790878 6.52757 0.790878V0.790878C8.07851 0.790878 9.3358 2.04817 9.3358 3.59911L9.33581 32.6963C9.33581 34.9125 11.1323 36.709 13.3485 36.709L35.7457 36.709C37.9618 36.709 39.7583 34.9125 39.7583 32.6963L39.7583 3.3911C39.7583 1.95504 40.9225 0.790877 42.3586 0.790876V0.790876C45.5897 0.790876 48.209 3.41023 48.209 6.64137L48.209 41.1963C48.209 43.4125 46.4125 45.209 44.1964 45.209L4.2217 45.209Z" fill="url(#paint0_linear_26_451)"/>
<path fill-rule="evenodd" clip-rule="evenodd" d="M15.564 1.38706C14.1789 1.38706 13.0561 2.50989 13.0561 3.89496L13.0561 30.7011C13.0561 32.0862 14.1789 33.209 15.564 33.209L34.2102 33.209C35.5952 33.209 36.7181 32.0862 36.7181 30.7011L36.7181 3.89496C36.7181 2.50988 35.5952 1.38706 34.2102 1.38706L15.564 1.38706ZM28.6054 23.5961C28.6054 21.2162 26.638 19.2869 24.211 19.2869C21.7841 19.2869 19.8167 21.2162 19.8167 23.5961C19.8167 25.976 21.7841 27.9053 24.211 27.9053C26.638 27.9053 28.6054 25.976 28.6054 23.5961Z" fill="url(#paint1_linear_26_451)"/>
<defs>
<linearGradient id="paint0_linear_26_451" x1="22" y1="-4.5" x2="22" y2="44" gradientUnits="userSpaceOnUse">
<stop stop-color="#FFCD4D"/>
<stop offset="1" stop-color="#DD8500"/>
</linearGradient>
<linearGradient id="paint1_linear_26_451" x1="23.7981" y1="-2.40342" x2="23.7981" y2="32.3428" gradientUnits="userSpaceOnUse">
<stop stop-color="#FFCD4D"/>
<stop offset="1" stop-color="#DD8500"/>
</linearGradient>
</defs>
</svg>
