<svg width="44" height="21" viewBox="0 0 44 21" fill="none" xmlns="http://www.w3.org/2000/svg">
<path d="M12.589 3.88096C12.5865 4.76522 13.3156 5.06281 14.0702 4.90336C14.9468 4.7186 15.6489 4.26809 16.1764 3.55181C16.4254 3.21414 16.4595 2.70934 15.9214 2.63003C15.4934 2.56693 15.1659 2.67779 14.7959 2.86538C14.5648 2.98306 14.3218 2.70507 14.4207 2.4774C14.4508 2.40805 14.5213 2.33613 14.6321 2.26166C15.2367 1.85492 16.2617 1.63151 16.8816 2.08856C17.7607 2.73577 17.4179 3.9253 16.8611 4.63902C16.3273 5.32289 15.6389 5.81576 14.7959 6.11762C14.0429 6.38707 13.0308 6.41521 12.3887 5.96157C11.4916 5.32801 11.3978 4.29282 11.8208 3.34034C12.072 2.77528 12.4799 2.23836 13.0444 1.72957C14.2169 0.673065 15.7458 -0.0585584 17.3301 0.00368942C19.2581 0.0804333 20.347 1.50361 19.913 3.39321C19.6725 4.44147 19.1663 5.3371 18.3943 6.0801C16.9532 7.46745 14.9681 8.46768 12.9352 8.58621C12.1934 8.6297 11.4294 8.54613 10.7591 8.23148C9.75123 7.75738 9.29418 6.75715 9.43232 5.66056C9.51134 5.03411 9.76885 4.42243 10.2049 3.82553C10.2105 3.81783 10.2177 3.81146 10.2259 3.80689C10.2342 3.80232 10.2433 3.79966 10.2526 3.7991C10.289 3.79682 10.3154 3.81189 10.3319 3.84429C10.3422 3.86419 10.3447 3.88494 10.3396 3.90654C10.1222 4.807 9.86805 5.84475 10.5366 6.62839C11.229 7.44102 12.5908 7.27474 13.5518 6.98908C14.8172 6.61219 15.9783 6.0187 17.0351 5.20863C18.0157 4.45739 19.2734 2.90631 18.5648 1.60764C18.1547 0.856399 17.2952 0.626167 16.48 0.708027C15.4829 0.80751 14.5889 1.19492 13.7982 1.87027C13.2166 2.3674 12.5908 3.11949 12.589 3.88096ZM16.4356 0.424927C16.4356 0.406562 16.432 0.388378 16.425 0.371411C16.4179 0.354445 16.4076 0.339028 16.3947 0.326042C16.3817 0.313056 16.3663 0.302756 16.3493 0.295728C16.3323 0.288701 16.3141 0.285082 16.2958 0.285082C16.2587 0.285082 16.2231 0.299816 16.1969 0.326042C16.1707 0.352268 16.1559 0.387838 16.1559 0.424927C16.1559 0.462016 16.1707 0.497587 16.1969 0.523813C16.2231 0.550039 16.2587 0.564771 16.2958 0.564771C16.3141 0.564771 16.3323 0.561154 16.3493 0.554127C16.3663 0.547099 16.3817 0.536799 16.3947 0.523813C16.4076 0.510827 16.4179 0.49541 16.425 0.478444C16.432 0.461477 16.4356 0.443291 16.4356 0.424927ZM18.61 0.502524C18.61 0.481265 18.6016 0.460878 18.5866 0.445846C18.5715 0.430814 18.5511 0.422369 18.5299 0.422369C18.5086 0.422369 18.4882 0.430814 18.4732 0.445846C18.4582 0.460878 18.4497 0.481265 18.4497 0.502524C18.4497 0.523782 18.4582 0.54417 18.4732 0.559202C18.4882 0.574234 18.5086 0.582679 18.5299 0.582679C18.5511 0.582679 18.5715 0.574234 18.5866 0.559202C18.6016 0.54417 18.61 0.523782 18.61 0.502524ZM18.7627 0.968956C18.7627 0.947697 18.7542 0.92731 18.7392 0.912279C18.7242 0.897247 18.7038 0.888801 18.6825 0.888801C18.6613 0.888801 18.6409 0.897247 18.6258 0.912279C18.6108 0.92731 18.6024 0.947697 18.6024 0.968956C18.6024 0.990214 18.6108 1.0106 18.6258 1.02563C18.6409 1.04067 18.6613 1.04911 18.6825 1.04911C18.7038 1.04911 18.7242 1.04067 18.7392 1.02563C18.7542 1.0106 18.7627 0.990214 18.7627 0.968956ZM14.1632 1.37655C14.1632 1.35819 14.1595 1.34 14.1525 1.32304C14.1455 1.30607 14.1352 1.29065 14.1222 1.27767C14.1092 1.26468 14.0938 1.25438 14.0768 1.24735C14.0599 1.24032 14.0417 1.23671 14.0233 1.23671C13.9862 1.23671 13.9506 1.25144 13.9244 1.27767C13.8982 1.30389 13.8835 1.33946 13.8835 1.37655C13.8835 1.41364 13.8982 1.44921 13.9244 1.47544C13.9506 1.50166 13.9862 1.5164 14.0233 1.5164C14.0417 1.5164 14.0599 1.51278 14.0768 1.50575C14.0938 1.49872 14.1092 1.48842 14.1222 1.47544C14.1352 1.46245 14.1455 1.44703 14.1525 1.43007C14.1595 1.4131 14.1632 1.39492 14.1632 1.37655ZM19.1396 1.47888C19.1396 1.44179 19.1248 1.40622 19.0986 1.37999C19.0724 1.35377 19.0368 1.33903 18.9997 1.33903C18.9626 1.33903 18.9271 1.35377 18.9008 1.37999C18.8746 1.40622 18.8599 1.44179 18.8599 1.47888C18.8599 1.51596 18.8746 1.55153 18.9008 1.57776C18.9271 1.60399 18.9626 1.61872 18.9997 1.61872C19.0368 1.61872 19.0724 1.60399 19.0986 1.57776C19.1248 1.55153 19.1396 1.51596 19.1396 1.47888ZM13.4383 1.55732C13.4031 1.56813 13.3821 1.592 13.3752 1.62895C13.373 1.64022 13.3748 1.65189 13.3803 1.66188C13.3857 1.67187 13.3945 1.67954 13.4051 1.68353C13.442 1.69717 13.4693 1.68722 13.487 1.65368C13.4989 1.63037 13.4992 1.60593 13.4878 1.58035C13.4781 1.55818 13.4617 1.5505 13.4383 1.55732ZM15.9231 2.08259C15.9078 2.115 15.9101 2.14569 15.93 2.17469C15.934 2.18071 15.9394 2.18567 15.9457 2.18913C15.9521 2.19259 15.9592 2.19444 15.9664 2.19452C15.9736 2.19461 15.9808 2.19292 15.9872 2.18961C15.9936 2.1863 15.9992 2.18147 16.0033 2.17554C16.0243 2.14655 16.028 2.11585 16.0144 2.08345C16.0104 2.07472 16.0041 2.0673 15.996 2.06207C15.988 2.05683 15.9786 2.05401 15.969 2.05392C15.9594 2.05383 15.95 2.05648 15.9419 2.06156C15.9338 2.06664 15.9273 2.07394 15.9231 2.08259ZM19.7663 2.23267C19.7663 2.21141 19.7579 2.19103 19.7428 2.17599C19.7278 2.16096 19.7074 2.15252 19.6861 2.15252C19.6756 2.15252 19.6652 2.15459 19.6555 2.15862C19.6457 2.16265 19.6369 2.16855 19.6295 2.17599C19.622 2.18344 19.6161 2.19227 19.6121 2.202C19.6081 2.21172 19.606 2.22215 19.606 2.23267C19.606 2.2432 19.6081 2.25362 19.6121 2.26334C19.6161 2.27307 19.622 2.28191 19.6295 2.28935C19.6369 2.29679 19.6457 2.3027 19.6555 2.30672C19.6652 2.31075 19.6756 2.31283 19.6861 2.31283C19.7074 2.31283 19.7278 2.30438 19.7428 2.28935C19.7579 2.27432 19.7663 2.25393 19.7663 2.23267ZM13.2194 2.22448C13.2136 2.21791 13.2064 2.21274 13.1981 2.20927C13.1898 2.20579 13.1807 2.20408 13.1711 2.20423C13.1616 2.20438 13.1518 2.20639 13.1425 2.21015C13.1331 2.2139 13.1243 2.21933 13.1166 2.22611C13.1088 2.2329 13.1023 2.24091 13.0973 2.2497C13.0923 2.25848 13.0891 2.26787 13.0876 2.27731C13.0862 2.28676 13.0867 2.29608 13.0891 2.30475C13.0914 2.31342 13.0956 2.32126 13.1013 2.32783C13.1071 2.33441 13.1143 2.33958 13.1226 2.34305C13.1309 2.34653 13.1401 2.34824 13.1496 2.34809C13.1592 2.34793 13.1689 2.34592 13.1783 2.34217C13.1876 2.33842 13.1964 2.33299 13.2042 2.3262C13.2119 2.31942 13.2185 2.3114 13.2234 2.30262C13.2284 2.29383 13.2317 2.28445 13.2331 2.27501C13.2345 2.26556 13.234 2.25624 13.2317 2.24757C13.2293 2.2389 13.2251 2.23106 13.2194 2.22448ZM16.1559 2.32903C16.15 2.33282 16.1452 2.33808 16.1419 2.34429C16.1386 2.35049 16.137 2.35744 16.1371 2.36447C16.1373 2.37149 16.1393 2.37835 16.1429 2.38439C16.1465 2.39043 16.1515 2.39545 16.1576 2.39895C16.1889 2.416 16.221 2.41458 16.254 2.39469C16.2591 2.39155 16.2634 2.38735 16.2668 2.38239C16.2701 2.37742 16.2723 2.3718 16.2733 2.36589C16.2743 2.35999 16.274 2.35395 16.2724 2.34818C16.2708 2.34241 16.268 2.33704 16.2642 2.33244C16.2381 2.3006 16.202 2.29947 16.1559 2.32903ZM15.3996 2.43391C15.3996 2.41265 15.3911 2.39226 15.3761 2.37723C15.3611 2.3622 15.3407 2.35376 15.3194 2.35376C15.2982 2.35376 15.2778 2.3622 15.2627 2.37723C15.2477 2.39226 15.2393 2.41265 15.2393 2.43391C15.2393 2.45517 15.2477 2.47556 15.2627 2.49059C15.2778 2.50562 15.2982 2.51406 15.3194 2.51406C15.3407 2.51406 15.3611 2.50562 15.3761 2.49059C15.3911 2.47556 15.3996 2.45517 15.3996 2.43391ZM16.8952 2.53794C16.8952 2.50831 16.8835 2.4799 16.8625 2.45895C16.8416 2.43801 16.8132 2.42624 16.7835 2.42624C16.7539 2.42624 16.7255 2.43801 16.7045 2.45895C16.6836 2.4799 16.6718 2.50831 16.6718 2.53794C16.6718 2.56757 16.6836 2.59598 16.7045 2.61693C16.7255 2.63788 16.7539 2.64965 16.7835 2.64965C16.8132 2.64965 16.8416 2.63788 16.8625 2.61693C16.8835 2.59598 16.8952 2.56757 16.8952 2.53794ZM14.8718 2.46717C14.8681 2.46926 14.865 2.47223 14.8628 2.4758C14.8606 2.47937 14.8592 2.48343 14.859 2.48763C14.8567 2.52401 14.876 2.54789 14.9169 2.55926C14.927 2.56213 14.9377 2.5623 14.9477 2.55975C14.9578 2.5572 14.9669 2.55202 14.9741 2.54476C15.0019 2.51634 15.0056 2.48905 14.9852 2.4629C14.9732 2.44755 14.9573 2.44158 14.9374 2.445C14.9141 2.44954 14.8922 2.45693 14.8718 2.46717ZM12.543 3.00864C12.5072 3.04331 12.5012 3.07884 12.5251 3.11523C12.531 3.12407 12.5389 3.13133 12.5482 3.13639C12.5576 3.14144 12.568 3.14413 12.5786 3.14421C12.5892 3.1443 12.5997 3.14177 12.6091 3.13687C12.6185 3.13196 12.6265 3.12483 12.6325 3.11608C12.6513 3.08822 12.6553 3.0598 12.6445 3.03081C12.6408 3.02121 12.6347 3.01268 12.6269 3.00598C12.6191 2.99929 12.6098 2.99463 12.5997 2.99244C12.5896 2.99024 12.5792 2.99057 12.5693 2.9934C12.5594 2.99622 12.5504 3.00146 12.543 3.00864ZM19.2274 3.13398C19.2274 3.11273 19.2189 3.09234 19.2039 3.07731C19.1889 3.06228 19.1685 3.05383 19.1472 3.05383C19.126 3.05383 19.1056 3.06228 19.0906 3.07731C19.0755 3.09234 19.0671 3.11273 19.0671 3.13398C19.0671 3.15524 19.0755 3.17563 19.0906 3.19066C19.1056 3.2057 19.126 3.21414 19.1472 3.21414C19.1685 3.21414 19.1889 3.2057 19.2039 3.19066C19.2189 3.17563 19.2274 3.15524 19.2274 3.13398ZM12.3673 3.39662C12.3673 3.37825 12.3637 3.36007 12.3567 3.3431C12.3497 3.32614 12.3394 3.31072 12.3264 3.29773C12.3134 3.28475 12.298 3.27445 12.281 3.26742C12.264 3.26039 12.2459 3.25678 12.2275 3.25678C12.1904 3.25678 12.1548 3.27151 12.1286 3.29773C12.1024 3.32396 12.0877 3.35953 12.0877 3.39662C12.0877 3.43371 12.1024 3.46928 12.1286 3.4955C12.1548 3.52173 12.1904 3.53646 12.2275 3.53646C12.2459 3.53646 12.264 3.53285 12.281 3.52582C12.298 3.51879 12.3134 3.50849 12.3264 3.4955C12.3394 3.48252 12.3497 3.4671 12.3567 3.45014C12.3637 3.43317 12.3673 3.41498 12.3673 3.39662ZM19.2641 3.58933C19.2708 3.60311 19.2821 3.61417 19.2959 3.62069C19.3097 3.6272 19.3252 3.62877 19.3399 3.62515C19.378 3.61605 19.3994 3.59075 19.4039 3.54925C19.4053 3.53634 19.4034 3.52328 19.3983 3.51132C19.3933 3.49935 19.3852 3.48889 19.375 3.48093C19.3647 3.47297 19.3526 3.46779 19.3397 3.46586C19.3269 3.46394 19.3137 3.46535 19.3016 3.46995C19.247 3.49155 19.2345 3.53135 19.2641 3.58933ZM17.0095 3.55437C17.0067 3.57427 17.0109 3.59274 17.0223 3.6098C17.0258 3.61503 17.0302 3.61953 17.0354 3.62305C17.0406 3.62657 17.0464 3.62904 17.0525 3.6303C17.0586 3.63157 17.0649 3.63162 17.071 3.63044C17.0771 3.62926 17.0828 3.62688 17.0879 3.62344C17.1118 3.60752 17.1246 3.58393 17.1263 3.55267C17.1265 3.54132 17.1226 3.53032 17.1154 3.5217C17.1082 3.51307 17.0981 3.50741 17.0871 3.50577C17.0769 3.50463 17.0666 3.50491 17.0564 3.50662C17.028 3.51173 17.0123 3.52765 17.0095 3.55437ZM19.2129 3.67204C19.2129 3.63518 19.1983 3.59983 19.1722 3.57376C19.1461 3.5477 19.1108 3.53305 19.0739 3.53305C19.037 3.53305 19.0017 3.5477 18.9756 3.57376C18.9496 3.59983 18.9349 3.63518 18.9349 3.67204C18.9349 3.70891 18.9496 3.74426 18.9756 3.77033C19.0017 3.79639 19.037 3.81104 19.0739 3.81104C19.1108 3.81104 19.1461 3.79639 19.1722 3.77033C19.1983 3.74426 19.2129 3.70891 19.2129 3.67204ZM16.3887 3.66693C16.3444 3.68626 16.3327 3.71838 16.3538 3.76328C16.3657 3.7883 16.3847 3.79569 16.4109 3.78545C16.441 3.77352 16.4601 3.75078 16.468 3.71724C16.4737 3.69109 16.464 3.67347 16.439 3.66437C16.422 3.65812 16.4052 3.65897 16.3887 3.66693ZM11.9245 3.88997C11.9157 3.8719 11.899 3.85856 11.8783 3.85288C11.8575 3.84721 11.8343 3.84966 11.8138 3.85971C11.7933 3.86976 11.7771 3.88657 11.7689 3.90646C11.7607 3.92634 11.761 3.94767 11.7699 3.96574C11.7787 3.98382 11.7953 3.99716 11.8161 4.00283C11.8369 4.00851 11.8601 4.00605 11.8806 3.99601C11.9011 3.98596 11.9172 3.96914 11.9255 3.94926C11.9337 3.92937 11.9334 3.90805 11.9245 3.88997ZM16.578 4.20499C16.578 4.1679 16.5633 4.13233 16.5371 4.1061C16.5108 4.07988 16.4753 4.06514 16.4382 4.06514C16.4198 4.06514 16.4016 4.06876 16.3847 4.07579C16.3677 4.08282 16.3523 4.09312 16.3393 4.1061C16.3263 4.11909 16.316 4.13451 16.309 4.15147C16.302 4.16844 16.2983 4.18662 16.2983 4.20499C16.2983 4.24208 16.3131 4.27765 16.3393 4.30387C16.3655 4.3301 16.4011 4.34483 16.4382 4.34483C16.4753 4.34483 16.5108 4.3301 16.5371 4.30387C16.5633 4.27765 16.578 4.24208 16.578 4.20499ZM18.6441 4.37468C18.6441 4.35319 18.6356 4.33259 18.6204 4.3174C18.6052 4.3022 18.5846 4.29367 18.5631 4.29367C18.5525 4.29367 18.542 4.29577 18.5321 4.29984C18.5223 4.30391 18.5134 4.30987 18.5058 4.3174C18.4983 4.32492 18.4924 4.33385 18.4883 4.34368C18.4842 4.3535 18.4821 4.36404 18.4821 4.37468C18.4821 4.39616 18.4907 4.41677 18.5058 4.43196C18.521 4.44715 18.5416 4.45568 18.5631 4.45568C18.5846 4.45568 18.6052 4.44715 18.6204 4.43196C18.6356 4.41677 18.6441 4.39616 18.6441 4.37468ZM12.1408 4.40855C12.1291 4.39505 12.1118 4.38734 12.0928 4.38711C12.0737 4.38688 12.0545 4.39415 12.0393 4.40733C12.0241 4.42051 12.0141 4.43851 12.0116 4.45737C12.0092 4.47624 12.0143 4.49443 12.026 4.50793C12.0377 4.52143 12.055 4.52915 12.074 4.52938C12.093 4.52961 12.1123 4.52234 12.1275 4.50916C12.1427 4.49598 12.1527 4.47798 12.1551 4.45911C12.1576 4.44025 12.1524 4.42206 12.1408 4.40855ZM12.6232 4.65096C12.6232 4.64021 12.621 4.62956 12.6169 4.61963C12.6128 4.6097 12.6068 4.60067 12.5992 4.59307C12.5916 4.58547 12.5826 4.57944 12.5726 4.57533C12.5627 4.57121 12.552 4.56909 12.5413 4.56909C12.5196 4.56909 12.4988 4.57772 12.4834 4.59307C12.4681 4.60842 12.4594 4.62925 12.4594 4.65096C12.4594 4.67267 12.4681 4.69349 12.4834 4.70884C12.4988 4.72419 12.5196 4.73282 12.5413 4.73282C12.552 4.73282 12.5627 4.7307 12.5726 4.72658C12.5826 4.72247 12.5916 4.71644 12.5992 4.70884C12.6068 4.70124 12.6128 4.69221 12.6169 4.68228C12.621 4.67235 12.6232 4.66171 12.6232 4.65096ZM18.2408 4.70809C18.2408 4.69734 18.2387 4.68669 18.2346 4.67676C18.2305 4.66683 18.2244 4.6578 18.2168 4.6502C18.2092 4.6426 18.2002 4.63657 18.1903 4.63246C18.1803 4.62834 18.1697 4.62623 18.1589 4.62623C18.1372 4.62623 18.1164 4.63485 18.1011 4.6502C18.0857 4.66555 18.0771 4.68638 18.0771 4.70809C18.0771 4.7298 18.0857 4.75062 18.1011 4.76597C18.1164 4.78132 18.1372 4.78995 18.1589 4.78995C18.1697 4.78995 18.1803 4.78783 18.1903 4.78372C18.2002 4.7796 18.2092 4.77357 18.2168 4.76597C18.2244 4.75837 18.2305 4.74934 18.2346 4.73941C18.2387 4.72948 18.2408 4.71884 18.2408 4.70809ZM15.8396 4.81638C15.8396 4.7949 15.831 4.77429 15.8159 4.7591C15.8007 4.74391 15.7801 4.73537 15.7586 4.73537C15.7371 4.73537 15.7165 4.74391 15.7013 4.7591C15.6861 4.77429 15.6776 4.7949 15.6776 4.81638C15.6776 4.83786 15.6861 4.85847 15.7013 4.87366C15.7165 4.88885 15.7371 4.89739 15.7586 4.89739C15.7801 4.89739 15.8007 4.88885 15.8159 4.87366C15.831 4.85847 15.8396 4.83786 15.8396 4.81638ZM12.4138 5.25968C12.4393 5.28443 12.4743 5.29722 12.5113 5.29524C12.5482 5.29325 12.584 5.27665 12.6108 5.24909C12.6376 5.22153 12.6532 5.18526 12.6542 5.14827C12.6551 5.11128 12.6414 5.07659 12.6159 5.05184C12.5905 5.02709 12.5554 5.0143 12.5185 5.01628C12.4815 5.01827 12.4457 5.03487 12.4189 5.06243C12.3921 5.08999 12.3765 5.12626 12.3755 5.16325C12.3746 5.20024 12.3883 5.23492 12.4138 5.25968ZM18.483 5.19072C18.483 5.16924 18.4744 5.14863 18.4592 5.13344C18.4441 5.11825 18.4235 5.10971 18.402 5.10971C18.3913 5.10971 18.3808 5.11181 18.371 5.11588C18.3611 5.11995 18.3522 5.12592 18.3447 5.13344C18.3372 5.14096 18.3312 5.14989 18.3271 5.15972C18.3231 5.16955 18.321 5.18008 18.321 5.19072C18.321 5.20136 18.3231 5.21189 18.3271 5.22172C18.3312 5.23155 18.3372 5.24048 18.3447 5.248C18.3522 5.25552 18.3611 5.26149 18.371 5.26556C18.3808 5.26963 18.3913 5.27173 18.402 5.27173C18.4235 5.27173 18.4441 5.26319 18.4592 5.248C18.4744 5.23281 18.483 5.2122 18.483 5.19072ZM15.2589 5.28025C15.2589 5.24317 15.2441 5.2076 15.2179 5.18137C15.1917 5.15514 15.1561 5.14041 15.119 5.14041C15.0819 5.14041 15.0464 5.15514 15.0202 5.18137C14.9939 5.2076 14.9792 5.24317 14.9792 5.28025C14.9792 5.31734 14.9939 5.35291 15.0202 5.37914C15.0464 5.40536 15.0819 5.4201 15.119 5.4201C15.1561 5.4201 15.1917 5.40536 15.2179 5.37914C15.2441 5.35291 15.2589 5.31734 15.2589 5.28025ZM13.7496 5.3587C13.7496 5.33933 13.7458 5.32015 13.7384 5.30225C13.7309 5.28435 13.7201 5.26809 13.7064 5.25439C13.6927 5.24069 13.6764 5.22983 13.6585 5.22241C13.6406 5.215 13.6214 5.21119 13.6021 5.21119C13.5827 5.21119 13.5635 5.215 13.5456 5.22241C13.5277 5.22983 13.5115 5.24069 13.4978 5.25439C13.4841 5.26809 13.4732 5.28435 13.4658 5.30225C13.4584 5.32015 13.4545 5.33933 13.4545 5.3587C13.4545 5.39783 13.4701 5.43535 13.4978 5.46302C13.5254 5.49068 13.5629 5.50622 13.6021 5.50622C13.6412 5.50622 13.6787 5.49068 13.7064 5.46302C13.734 5.43535 13.7496 5.39783 13.7496 5.3587ZM14.338 5.4039C14.2976 5.4363 14.2919 5.47155 14.3209 5.50963C14.3264 5.5168 14.3336 5.52251 14.3419 5.52625C14.3501 5.52999 14.3591 5.53164 14.3681 5.53104C14.3771 5.53045 14.3857 5.52764 14.3932 5.52286C14.4008 5.51808 14.407 5.51148 14.4113 5.50367C14.4306 5.46899 14.4266 5.43715 14.3994 5.40816C14.3914 5.4 14.3808 5.39505 14.3695 5.39427C14.3581 5.39348 14.3469 5.39691 14.338 5.4039ZM9.96185 5.67762C9.96185 5.64053 9.94712 5.60496 9.92089 5.57873C9.89467 5.55251 9.8591 5.53777 9.82201 5.53777C9.78492 5.53777 9.74935 5.55251 9.72312 5.57873C9.6969 5.60496 9.68216 5.64053 9.68216 5.67762C9.68216 5.71471 9.6969 5.75028 9.72312 5.7765C9.74935 5.80273 9.78492 5.81746 9.82201 5.81746C9.8591 5.81746 9.89467 5.80273 9.92089 5.7765C9.94712 5.75028 9.96185 5.71471 9.96185 5.67762ZM17.7249 5.65289C17.7249 5.64214 17.7228 5.63149 17.7187 5.62156C17.7146 5.61163 17.7085 5.60261 17.7009 5.595C17.6933 5.5874 17.6843 5.58137 17.6744 5.57726C17.6645 5.57315 17.6538 5.57103 17.6431 5.57103C17.6213 5.57103 17.6005 5.57965 17.5852 5.595C17.5698 5.61036 17.5612 5.63118 17.5612 5.65289C17.5612 5.6746 17.5698 5.69542 17.5852 5.71077C17.6005 5.72612 17.6213 5.73475 17.6431 5.73475C17.6538 5.73475 17.6645 5.73263 17.6744 5.72852C17.6843 5.7244 17.6933 5.71837 17.7009 5.71077C17.7085 5.70317 17.7146 5.69415 17.7187 5.68422C17.7228 5.67428 17.7249 5.66364 17.7249 5.65289ZM12.7763 5.72425C12.7718 5.71512 12.7654 5.70705 12.7574 5.70051C12.7494 5.69397 12.7399 5.68908 12.7296 5.68613C12.7194 5.68318 12.7084 5.68222 12.6974 5.68331C12.6864 5.6844 12.6756 5.68751 12.6655 5.69247C12.6555 5.69743 12.6464 5.70414 12.6389 5.71222C12.6313 5.7203 12.6254 5.72959 12.6215 5.73956C12.6176 5.74953 12.6158 5.75998 12.6161 5.77032C12.6164 5.78066 12.6189 5.79068 12.6235 5.79982C12.628 5.80895 12.6344 5.81702 12.6424 5.82356C12.6504 5.8301 12.6599 5.83499 12.6702 5.83794C12.6804 5.84089 12.6914 5.84185 12.7024 5.84076C12.7134 5.83968 12.7242 5.83656 12.7343 5.8316C12.7443 5.82664 12.7534 5.81993 12.7609 5.81185C12.7685 5.80377 12.7744 5.79448 12.7783 5.78451C12.7822 5.77454 12.784 5.76409 12.7837 5.75375C12.7834 5.74341 12.7809 5.73339 12.7763 5.72425ZM16.9242 5.85413C16.9242 5.81704 16.9095 5.78147 16.8833 5.75524C16.857 5.72902 16.8215 5.71428 16.7844 5.71428C16.7473 5.71428 16.7117 5.72902 16.6855 5.75524C16.6593 5.78147 16.6445 5.81704 16.6445 5.85413C16.6445 5.89122 16.6593 5.92679 16.6855 5.95301C16.7117 5.97924 16.7473 5.99397 16.7844 5.99397C16.8215 5.99397 16.857 5.97924 16.8833 5.95301C16.9095 5.92679 16.9242 5.89122 16.9242 5.85413ZM14.3271 5.79207C14.3182 5.77351 14.3017 5.75955 14.2811 5.75327C14.2605 5.74699 14.2376 5.74889 14.2175 5.75856C14.2075 5.76335 14.1984 5.76991 14.1909 5.77785C14.1833 5.78579 14.1774 5.79497 14.1734 5.80486C14.1695 5.81474 14.1676 5.82514 14.1678 5.83547C14.1681 5.84579 14.1704 5.85584 14.1748 5.86503C14.1837 5.88358 14.2003 5.89754 14.2209 5.90382C14.2414 5.91011 14.2643 5.9082 14.2845 5.89853C14.2945 5.89374 14.3035 5.88718 14.3111 5.87924C14.3186 5.8713 14.3246 5.86212 14.3285 5.85224C14.3325 5.84235 14.3344 5.83195 14.3341 5.82163C14.3339 5.8113 14.3315 5.80126 14.3271 5.79207ZM13.631 6.00755C13.6379 6.01309 13.646 6.01702 13.6548 6.0191C13.6636 6.02118 13.673 6.02138 13.6824 6.01968C13.6918 6.01799 13.701 6.01443 13.7096 6.00921C13.7181 6.004 13.7258 5.99722 13.7322 5.98928C13.7451 5.97324 13.7519 5.95341 13.7512 5.93416C13.7504 5.9149 13.7422 5.89779 13.7283 5.8866C13.7214 5.88106 13.7133 5.87713 13.7045 5.87505C13.6957 5.87297 13.6863 5.87277 13.6769 5.87446C13.6675 5.87616 13.6583 5.87972 13.6498 5.88493C13.6412 5.89015 13.6335 5.89692 13.6272 5.90486C13.6143 5.9209 13.6074 5.94073 13.6082 5.95999C13.6089 5.97925 13.6171 5.99635 13.631 6.00755ZM18.1206 6.04599C18.1206 6.0245 18.112 6.0039 18.0968 5.98871C18.0817 5.97352 18.0611 5.96498 18.0396 5.96498C18.0181 5.96498 17.9975 5.97352 17.9823 5.98871C17.9671 6.0039 17.9586 6.0245 17.9586 6.04599C17.9586 6.06747 17.9671 6.08808 17.9823 6.10327C17.9975 6.11846 18.0181 6.127 18.0396 6.127C18.0611 6.127 18.0817 6.11846 18.0968 6.10327C18.112 6.08808 18.1206 6.06747 18.1206 6.04599ZM17.2662 6.61048C17.2662 6.58922 17.2577 6.56883 17.2427 6.5538C17.2277 6.53877 17.2073 6.53033 17.186 6.53033C17.1647 6.53033 17.1444 6.53877 17.1293 6.5538C17.1143 6.56883 17.1059 6.58922 17.1059 6.61048C17.1059 6.63174 17.1143 6.65213 17.1293 6.66716C17.1444 6.68219 17.1647 6.69064 17.186 6.69064C17.2073 6.69064 17.2277 6.68219 17.2427 6.66716C17.2577 6.65213 17.2662 6.63174 17.2662 6.61048ZM15.4004 6.85265C15.4004 6.83139 15.392 6.81101 15.377 6.79597C15.3619 6.78094 15.3415 6.7725 15.3203 6.7725C15.299 6.7725 15.2786 6.78094 15.2636 6.79597C15.2486 6.81101 15.2401 6.83139 15.2401 6.85265C15.2401 6.86318 15.2422 6.8736 15.2462 6.88332C15.2503 6.89305 15.2562 6.90189 15.2636 6.90933C15.271 6.91677 15.2799 6.92268 15.2896 6.9267C15.2993 6.93073 15.3098 6.93281 15.3203 6.93281C15.3308 6.93281 15.3412 6.93073 15.351 6.9267C15.3607 6.92268 15.3695 6.91677 15.377 6.90933C15.3844 6.90189 15.3903 6.89305 15.3943 6.88332C15.3984 6.8736 15.4004 6.86318 15.4004 6.85265ZM16.4416 6.89017C16.4416 6.86869 16.4331 6.84808 16.4179 6.83289C16.4027 6.8177 16.3821 6.80916 16.3606 6.80916C16.3499 6.80916 16.3394 6.81126 16.3296 6.81533C16.3198 6.8194 16.3108 6.82537 16.3033 6.83289C16.2958 6.84041 16.2898 6.84934 16.2857 6.85917C16.2817 6.869 16.2796 6.87953 16.2796 6.89017C16.2796 6.90081 16.2817 6.91134 16.2857 6.92117C16.2898 6.931 16.2958 6.93993 16.3033 6.94745C16.3108 6.95497 16.3198 6.96094 16.3296 6.96501C16.3394 6.96908 16.3499 6.97118 16.3606 6.97118C16.3821 6.97118 16.4027 6.96264 16.4179 6.94745C16.4331 6.93226 16.4416 6.91165 16.4416 6.89017ZM14.0276 7.29947C14.0276 7.28047 14.02 7.26225 14.0066 7.24882C13.9932 7.23539 13.9749 7.22784 13.9559 7.22784C13.9369 7.22784 13.9187 7.23539 13.9053 7.24882C13.8919 7.26225 13.8843 7.28047 13.8843 7.29947C13.8843 7.31847 13.8919 7.33669 13.9053 7.35012C13.9187 7.36355 13.9369 7.3711 13.9559 7.3711C13.9749 7.3711 13.9932 7.36355 14.0066 7.35012C14.02 7.33669 14.0276 7.31847 14.0276 7.29947ZM15.6119 7.60474C15.6119 7.58778 15.6052 7.57151 15.5932 7.55952C15.5812 7.54753 15.5649 7.54079 15.548 7.54079C15.531 7.54079 15.5147 7.54753 15.5027 7.55952C15.4907 7.57151 15.484 7.58778 15.484 7.60474C15.484 7.6217 15.4907 7.63797 15.5027 7.64996C15.5147 7.66196 15.531 7.66869 15.548 7.66869C15.5649 7.66869 15.5812 7.66196 15.5932 7.64996C15.6052 7.63797 15.6119 7.6217 15.6119 7.60474ZM11.3194 7.78637C11.3194 7.74928 11.3046 7.71371 11.2784 7.68748C11.2522 7.66126 11.2166 7.64652 11.1795 7.64652C11.1424 7.64652 11.1069 7.66126 11.0806 7.68748C11.0544 7.71371 11.0397 7.74928 11.0397 7.78637C11.0397 7.82346 11.0544 7.85903 11.0806 7.88525C11.1069 7.91148 11.1424 7.92621 11.1795 7.92621C11.2166 7.92621 11.2522 7.91148 11.2784 7.88525C11.3046 7.85903 11.3194 7.82346 11.3194 7.78637ZM14.4505 7.8452C14.4505 7.80834 14.4359 7.77299 14.4098 7.74692C14.3837 7.72086 14.3484 7.70621 14.3115 7.70621C14.2747 7.70621 14.2393 7.72086 14.2132 7.74692C14.1872 7.77299 14.1725 7.80834 14.1725 7.8452C14.1725 7.86346 14.1761 7.88153 14.1831 7.89839C14.1901 7.91526 14.2003 7.93058 14.2132 7.94349C14.2261 7.95639 14.2415 7.96663 14.2583 7.97362C14.2752 7.9806 14.2933 7.9842 14.3115 7.9842C14.3484 7.9842 14.3837 7.96955 14.4098 7.94349C14.4359 7.91742 14.4505 7.88207 14.4505 7.8452ZM13.3266 7.85373C13.3266 7.83225 13.3181 7.81164 13.3029 7.79645C13.2877 7.78126 13.2671 7.77272 13.2456 7.77272C13.2242 7.77272 13.2035 7.78126 13.1884 7.79645C13.1732 7.81164 13.1646 7.83225 13.1646 7.85373C13.1646 7.86437 13.1667 7.8749 13.1708 7.88473C13.1749 7.89456 13.1808 7.90349 13.1884 7.91101C13.1959 7.91854 13.2048 7.9245 13.2146 7.92857C13.2245 7.93264 13.235 7.93474 13.2456 7.93474C13.2671 7.93474 13.2877 7.9262 13.3029 7.91101C13.3181 7.89582 13.3266 7.87522 13.3266 7.85373ZM11.9674 8.03792C11.9674 8.01869 11.9598 8.00026 11.9462 7.98667C11.9326 7.97307 11.9142 7.96544 11.8949 7.96544C11.8757 7.96544 11.8573 7.97307 11.8437 7.98667C11.8301 8.00026 11.8225 8.01869 11.8225 8.03792C11.8225 8.05714 11.8301 8.07558 11.8437 8.08917C11.8573 8.10276 11.8757 8.1104 11.8949 8.1104C11.9142 8.1104 11.9326 8.10276 11.9462 8.08917C11.9598 8.07558 11.9674 8.05714 11.9674 8.03792Z" fill="url(#paint0_linear_812_63)"/>
<path d="M21.5004 4.76854C21.4731 4.71283 21.4594 4.71596 21.4594 4.77792V7.86047C21.4594 7.89628 21.4415 7.91419 21.4057 7.91419L19.5349 7.92271C19.5008 7.92328 19.4837 7.90651 19.4837 7.8724V5.36203C19.4837 5.3211 19.4948 5.28329 19.517 5.24862C20.3697 3.90645 20.8549 1.76615 19.5153 0.502437C19.4806 0.470034 19.4692 0.431095 19.4811 0.385617C19.4841 0.37411 19.4909 0.363887 19.5004 0.3565C19.51 0.349113 19.5218 0.344966 19.534 0.344687C20.2412 0.335591 20.9606 0.336728 21.6922 0.348097C22.8272 0.365151 24.1344 0.696003 24.5641 1.89406C24.9368 2.93181 24.7057 4.17761 23.5776 4.61505C23.5418 4.6287 23.5324 4.65257 23.5494 4.68668L25.1389 7.90651C25.1542 7.93778 25.1446 7.95313 25.1099 7.95256L23.0583 7.91845C23.0298 7.91788 23.0097 7.90481 22.9977 7.87923L21.5004 4.76854ZM21.4611 2.0322L21.4577 3.88258C21.4577 3.88526 21.4583 3.88793 21.4593 3.89041C21.4603 3.89289 21.4618 3.89515 21.4637 3.89705C21.4656 3.89895 21.4679 3.90046 21.4704 3.90149C21.4728 3.90251 21.4755 3.90304 21.4782 3.90304H21.7945C21.9174 3.90328 22.0391 3.8805 22.1527 3.83602C22.2662 3.79153 22.3695 3.72621 22.4565 3.64378C22.5435 3.56135 22.6126 3.46343 22.6598 3.35561C22.7071 3.24779 22.7315 3.13217 22.7317 3.01537V2.90281C22.7321 2.66695 22.634 2.44056 22.4589 2.27346C22.2838 2.10635 22.046 2.0122 21.798 2.01173H21.4816C21.4762 2.01173 21.471 2.01389 21.4671 2.01773C21.4633 2.02156 21.4611 2.02677 21.4611 2.0322Z" fill="url(#paint1_linear_812_63)"/>
<path d="M27.8378 6.01345L30.5733 6.23516C30.5773 6.23549 30.5811 6.23671 30.5845 6.2387C30.5879 6.2407 30.5908 6.24344 30.593 6.24671C30.5952 6.24998 30.5967 6.2537 30.5972 6.25761C30.5978 6.26151 30.5975 6.2655 30.5964 6.26927L30.0302 8.135C30.0222 8.16058 30.0051 8.1728 29.979 8.17166L25.8519 7.96616C25.8348 7.96559 25.8263 7.95678 25.8263 7.93973C25.8183 6.11265 25.8192 4.3646 25.8289 2.69556C25.8348 1.79851 25.6481 1.01061 24.9437 0.41627C24.9011 0.380456 24.9076 0.363401 24.9634 0.365107L27.7082 0.464873C27.7605 0.466579 27.7867 0.493866 27.7867 0.546734L27.7909 5.96229C27.7909 5.99356 27.8066 6.01061 27.8378 6.01345Z" fill="url(#paint2_linear_812_63)"/>
<path d="M36.8883 5.5593C36.0364 5.90891 35.5674 6.82046 35.7465 7.72262C35.7522 7.74991 35.7437 7.7718 35.7209 7.78828C34.9927 8.32634 34.0974 8.49688 33.2131 8.44743C32.5969 8.41332 31.9633 8.3542 31.3124 8.27006C31.2851 8.26665 31.2715 8.2513 31.2715 8.22402V0.744902C31.2715 0.714773 31.2865 0.700846 31.3167 0.70312C32.3638 0.782422 33.457 0.889863 34.4214 1.27785C36.1208 1.96172 37.0256 3.66799 36.9343 5.49364C36.9326 5.52548 36.9173 5.54736 36.8883 5.5593ZM34.8878 5.06558C34.9015 4.90925 34.8895 4.75207 34.852 4.59403C34.6764 3.85161 34.2389 3.36187 33.5397 3.12481C33.4544 3.09582 33.3677 3.07763 33.2796 3.07024C33.2489 3.0674 33.2336 3.08161 33.2336 3.11288V6.41201C33.2336 6.44328 33.2492 6.45891 33.2805 6.45891C34.1622 6.44868 34.8077 5.96775 34.8878 5.06558Z" fill="url(#paint3_linear_812_63)"/>
<path d="M6.49018 5.57028L5.15654 9.09623C5.14631 9.12238 5.12755 9.13802 5.10027 9.14313L3.71035 9.39809C3.70726 9.3987 3.70408 9.39867 3.701 9.398C3.69792 9.39733 3.69501 9.39604 3.69246 9.3942C3.6899 9.39236 3.68774 9.39002 3.68613 9.38731C3.68451 9.38461 3.68347 9.3816 3.68306 9.37848L2.66066 2.06479C2.65782 2.04376 2.66692 2.03125 2.68795 2.02727L4.55453 1.65293C4.58978 1.64554 4.60939 1.65975 4.61337 1.69557L4.97065 4.9461C4.97804 5.01772 4.99567 5.02028 5.02352 4.95377L6.49786 1.39968C6.4994 1.39622 6.50191 1.39328 6.50509 1.39122C6.50827 1.38916 6.51198 1.38806 6.51576 1.38806C6.51955 1.38806 6.52326 1.38916 6.52643 1.39122C6.52961 1.39328 6.53213 1.39622 6.53367 1.39968L8.00033 4.60331C8.01682 4.63912 8.02762 4.63742 8.03273 4.59819L8.48723 1.10379C8.4887 1.09306 8.49378 1.08312 8.50166 1.07555C8.50954 1.06798 8.51976 1.06321 8.53071 1.062L10.3828 0.859061C10.4089 0.856218 10.4203 0.867871 10.4169 0.894021L10.0826 3.45556C10.0781 3.49081 10.0645 3.52207 10.0417 3.54936C9.1097 4.67834 8.66203 6.39059 9.50963 7.68585C9.53105 7.71826 9.53985 7.75769 9.53435 7.7967L9.44397 8.50445C9.44112 8.53003 9.42691 8.54425 9.40133 8.54709L7.93893 8.72189C7.90426 8.72644 7.8801 8.71251 7.86645 8.68011L6.54305 5.56943C6.54098 5.56421 6.53738 5.55977 6.53271 5.55668C6.52805 5.55359 6.52253 5.55199 6.51686 5.55208C6.51119 5.55217 6.50562 5.55395 6.50087 5.55719C6.49612 5.56044 6.4924 5.56499 6.49018 5.57028Z" fill="url(#paint4_linear_812_63)"/>
<path d="M36.0365 7.99782C35.5914 6.96519 36.2991 5.66822 37.4912 5.64349C38.0921 5.63098 38.5574 5.89532 38.8871 6.43651C38.9434 6.52974 38.9712 6.62638 38.9707 6.72643C38.9673 7.10219 38.9673 7.47483 38.9707 7.84433C38.9712 7.94552 38.9428 8.04387 38.8854 8.13937C38.1887 9.29138 36.5729 9.23937 36.0365 7.99782ZM37.3269 8.06093C37.5202 8.107 37.7248 8.07095 37.8956 7.96072C38.0663 7.85049 38.1893 7.67511 38.2374 7.47316C38.2612 7.37316 38.266 7.26964 38.2513 7.16853C38.2367 7.06741 38.203 6.97067 38.1521 6.88383C38.1013 6.79699 38.0342 6.72175 37.9549 6.66241C37.8756 6.60307 37.7854 6.56078 37.6897 6.53797C37.4963 6.49191 37.2917 6.52795 37.121 6.63818C36.9502 6.74841 36.8273 6.92379 36.7792 7.12575C36.7553 7.22574 36.7506 7.32926 36.7652 7.43037C36.7799 7.53149 36.8136 7.62823 36.8644 7.71507C36.9153 7.80191 36.9823 7.87715 37.0617 7.93649C37.141 7.99584 37.2311 8.03812 37.3269 8.06093Z" fill="url(#paint5_linear_812_63)"/>
<path d="M39.7637 8.21367L39.7654 9.36568C39.7654 9.36955 39.7645 9.37337 39.7628 9.37686C39.7611 9.38034 39.7586 9.38342 39.7556 9.38586C39.7526 9.3883 39.7491 9.39005 39.7454 9.39098C39.7416 9.39191 39.7377 9.39201 39.7339 9.39126L39.16 9.28296C39.1539 9.28176 39.1484 9.27846 39.1445 9.27362C39.1406 9.26879 39.1386 9.26274 39.1387 9.25653V6.15181C39.1387 6.14794 39.1396 6.14412 39.1413 6.14063C39.143 6.13715 39.1455 6.13407 39.1485 6.13163C39.1515 6.12919 39.155 6.12744 39.1587 6.12651C39.1625 6.12558 39.1664 6.12548 39.1702 6.12623L40.7111 6.44856C40.7169 6.4499 40.722 6.45315 40.7257 6.4578C40.7295 6.46244 40.7315 6.46819 40.7315 6.47414L40.7435 7.20832C40.7436 7.21227 40.7427 7.21618 40.7411 7.21977C40.7395 7.22337 40.737 7.22655 40.734 7.22908C40.731 7.23162 40.7274 7.23345 40.7236 7.23443C40.7198 7.23541 40.7158 7.23552 40.7119 7.23475L39.7987 7.0446C39.7949 7.04385 39.791 7.04394 39.7872 7.04488C39.7834 7.04581 39.7799 7.04756 39.7769 7.05C39.7739 7.05244 39.7715 7.05552 39.7698 7.059C39.7681 7.06249 39.7672 7.06631 39.7671 7.07018L39.7654 7.44793C39.7654 7.45376 39.7673 7.45943 39.7709 7.46406C39.7744 7.46868 39.7794 7.47201 39.785 7.47351L40.3768 7.63894C40.3824 7.64044 40.3874 7.64377 40.391 7.64839C40.3945 7.65302 40.3964 7.65869 40.3964 7.66452V8.31343C40.3964 8.31749 40.3955 8.32149 40.3937 8.32513C40.3919 8.32877 40.3893 8.33195 40.3861 8.33443C40.3829 8.3369 40.3792 8.3386 40.3752 8.3394C40.3712 8.34019 40.3671 8.34006 40.3632 8.33901L39.797 8.18808C39.793 8.18704 39.7889 8.18691 39.785 8.1877C39.781 8.1885 39.7772 8.1902 39.774 8.19267C39.7708 8.19514 39.7682 8.19832 39.7664 8.20196C39.7646 8.20561 39.7637 8.20961 39.7637 8.21367Z" fill="url(#paint6_linear_812_63)"/>
<path d="M9.72779 14.8209C9.6988 14.7874 9.6843 14.7928 9.6843 14.8371L9.69113 18.6232C9.69113 18.6561 9.67464 18.6746 9.64167 18.6786L7.45021 18.9438C7.41439 18.9483 7.39648 18.9324 7.39648 18.896V9.06173C7.39648 9.03956 7.40444 9.03644 7.42036 9.05235C7.96553 9.59979 8.51041 10.1543 9.055 10.716C9.87275 11.5585 10.7775 12.3361 11.6575 13.1232C11.6604 13.126 11.664 13.1279 11.668 13.1286C11.672 13.1292 11.6761 13.1287 11.6799 13.1269C11.6836 13.1252 11.6868 13.1224 11.689 13.1188C11.6913 13.1153 11.6924 13.1112 11.6924 13.107L11.6933 8.93809C11.6933 8.89886 11.7126 8.88181 11.7513 8.88693C12.4738 8.97902 13.2003 8.95116 13.9308 8.80336C13.9672 8.79597 13.9854 8.81075 13.9854 8.8477V19.3147C13.9854 19.3488 13.9731 19.3542 13.9487 19.3309C13.501 18.9105 13.0482 18.514 12.6279 18.0544C11.6433 16.9771 10.6766 15.8993 9.72779 14.8209Z" fill="url(#paint7_linear_812_63)"/>
<path d="M25.22 11.6328L25.2192 12.4267C25.2192 12.4557 25.2337 12.4707 25.2627 12.4719L27.1941 12.5512C27.2039 12.5514 27.2132 12.5555 27.22 12.5625C27.2269 12.5695 27.2307 12.5789 27.2307 12.5887L27.2316 14.7265C27.2316 14.7463 27.2216 14.7566 27.2017 14.7571L25.2345 14.8254C25.2249 14.8259 25.22 14.831 25.22 14.8407V15.6184C25.22 15.6286 25.2252 15.634 25.2354 15.6346L28.4544 15.7847C28.4577 15.7848 28.461 15.7857 28.4639 15.7873C28.4669 15.7888 28.4694 15.7911 28.4714 15.7938C28.4734 15.7965 28.4747 15.7996 28.4753 15.8029C28.4759 15.8062 28.4757 15.8096 28.4748 15.8128L27.8745 18.1492C27.866 18.1822 27.8447 18.1975 27.8106 18.1953C26.1694 18.1066 24.5541 18.0534 22.9646 18.0358C22.9322 18.0352 22.916 18.0188 22.916 17.9864V9.2026C22.916 9.19917 22.9167 9.19577 22.918 9.19261C22.9194 9.18945 22.9213 9.18659 22.9238 9.1842C22.9263 9.18181 22.9292 9.17995 22.9324 9.17871C22.9356 9.17748 22.939 9.1769 22.9424 9.17702L28.2386 9.32027C28.2716 9.32084 28.2906 9.33733 28.2958 9.36973L28.6641 11.6584C28.6687 11.6857 28.657 11.6988 28.6292 11.6976L25.2865 11.5689C25.2422 11.5672 25.22 11.5885 25.22 11.6328Z" fill="url(#paint8_linear_812_63)"/>
<path d="M17.8088 14.4028L17.8105 18.0728C17.8105 18.0807 17.8075 18.0882 17.8021 18.0939C17.7967 18.0997 17.7893 18.1031 17.7815 18.1035L15.5363 18.2101C15.5321 18.2103 15.528 18.2097 15.524 18.2083C15.5201 18.2068 15.5165 18.2046 15.5135 18.2017C15.5105 18.1989 15.508 18.1954 15.5064 18.1916C15.5047 18.1877 15.5039 18.1836 15.5039 18.1794V9.37604C15.5039 9.35614 15.5141 9.34562 15.5346 9.34449C16.3509 9.30014 17.1576 9.26206 17.9546 9.23022C19.3087 9.17565 20.9178 9.45193 21.4456 10.8887C21.9009 12.1294 21.5769 13.5876 20.2723 14.1307C20.2427 14.1432 20.235 14.164 20.2492 14.193L22.1661 17.9927C22.168 17.9963 22.169 18.0004 22.1688 18.0045C22.1687 18.0086 22.1675 18.0127 22.1654 18.0162C22.1632 18.0197 22.1602 18.0226 22.1566 18.0246C22.153 18.0266 22.1489 18.0277 22.1448 18.0276L19.6933 18.0472C19.6631 18.0472 19.6415 18.0339 19.6285 18.0072L17.8506 14.3925C17.8227 14.3357 17.8088 14.3391 17.8088 14.4028ZM17.8139 11.1761L17.802 13.3607C17.8018 13.3633 17.8022 13.3658 17.8031 13.3682C17.804 13.3706 17.8054 13.3727 17.8071 13.3746C17.8089 13.3764 17.811 13.3779 17.8133 13.3789C17.8157 13.3799 17.8182 13.3804 17.8207 13.3804L18.1934 13.3821C18.3382 13.3829 18.4817 13.3567 18.6158 13.3049C18.7499 13.2531 18.8719 13.1767 18.9748 13.0802C19.0778 12.9837 19.1596 12.8688 19.2157 12.7423C19.2719 12.6157 19.3011 12.4799 19.3019 12.3426V12.2113C19.3034 11.9341 19.1887 11.6676 18.9831 11.4704C18.7774 11.2732 18.4977 11.1616 18.2053 11.1599L17.8327 11.1582C17.8278 11.1582 17.8232 11.1601 17.8197 11.1634C17.8162 11.1667 17.8141 11.1713 17.8139 11.1761Z" fill="url(#paint9_linear_812_63)"/>
<path d="M32.9667 12.4862L31.7269 16.4718C31.7144 16.5133 31.7297 16.5349 31.7729 16.5366C32.2095 16.5508 32.6793 16.5724 33.1824 16.6014C33.3996 16.6134 33.5434 16.7421 33.6139 16.9877C33.7714 17.5402 33.9328 18.0962 34.0982 18.6556C34.109 18.6925 34.0951 18.709 34.0565 18.705C32.2965 18.5209 30.5319 18.3705 28.7628 18.254C28.7219 18.2511 28.7083 18.2304 28.7219 18.1917L31.7755 9.64075C31.7885 9.60436 31.8141 9.58816 31.8522 9.59214L34.3575 9.84113C34.3956 9.84511 34.4203 9.86529 34.4317 9.90167L37.3147 19.099C37.3155 19.102 37.3157 19.1052 37.315 19.1082C37.3143 19.1113 37.3129 19.1141 37.3109 19.1165C37.3089 19.1189 37.3063 19.1207 37.3034 19.1218C37.3004 19.1229 37.2973 19.1233 37.2942 19.1229L34.9186 18.8006C34.9074 18.799 34.8968 18.7943 34.8882 18.7869C34.8796 18.7795 34.8733 18.7697 34.8699 18.7588L33.0153 12.4871C32.9994 12.4331 32.9832 12.4328 32.9667 12.4862Z" fill="url(#paint10_linear_812_63)"/>
<path d="M43.6563 17.8277V17.8754L42.9553 20.0754C42.9457 20.1061 42.9252 20.1183 42.8939 20.1121C41.2834 19.796 39.7068 19.5166 38.1639 19.2739C38.1298 19.2682 38.1128 19.248 38.1128 19.2133C38.1145 16.9281 38.1145 14.6545 38.1128 12.3925C38.1119 11.5091 37.7137 10.8355 37.0861 10.265C37.031 10.215 37.0404 10.1956 37.1143 10.207C38.1881 10.369 39.2719 10.5632 40.3656 10.7894C40.3861 10.7934 40.3963 10.8056 40.3963 10.8261L40.3955 17.1592C40.3955 17.1717 40.3999 17.1838 40.408 17.1934C40.4161 17.2031 40.4274 17.2096 40.4398 17.212L43.6563 17.8277Z" fill="url(#paint11_linear_812_63)"/>
<path d="M0 17.2967V11.5938L2.23751 10.9909C2.2665 10.983 2.281 10.994 2.281 11.0242C2.28498 12.7432 2.28469 14.485 2.28014 16.2496C2.27929 16.716 2.32363 17.4886 2.97766 17.3445C3.63595 17.1995 3.64704 16.3834 3.64277 15.8335C3.6297 14.1883 3.62288 12.4866 3.62231 10.7283C3.62231 10.6959 3.63823 10.6768 3.67006 10.6711L5.87432 10.2798C5.90842 10.2735 5.92548 10.2877 5.92548 10.3224C5.92832 12.1841 5.92718 13.9731 5.92207 15.6893C5.92093 16.11 5.89563 16.5199 5.84618 16.919C5.72253 17.9217 5.16742 18.8222 4.27037 19.2955C3.01262 19.9597 0.918368 20.2428 0.255813 18.632C0.111989 18.283 0.0267182 17.8379 0 17.2967Z" fill="url(#paint12_linear_812_63)"/>
<defs>
<linearGradient id="paint0_linear_812_63" x1="14.708" y1="0" x2="14.708" y2="8.59691" gradientUnits="userSpaceOnUse">
<stop stop-color="#3FE4FD"/>
<stop offset="1" stop-color="#2536C2"/>
</linearGradient>
<linearGradient id="paint1_linear_812_63" x1="22.3112" y1="0.338623" x2="22.3112" y2="7.95258" gradientUnits="userSpaceOnUse">
<stop stop-color="#D5E7E3"/>
<stop offset="1" stop-color="#D3E6E5"/>
</linearGradient>
<linearGradient id="paint2_linear_812_63" x1="27.7568" y1="0.36499" x2="27.7568" y2="8.17174" gradientUnits="userSpaceOnUse">
<stop stop-color="#D5E7E3"/>
<stop offset="1" stop-color="#D3E6E5"/>
</linearGradient>
<linearGradient id="paint3_linear_812_63" x1="34.106" y1="0.702881" x2="34.106" y2="8.45558" gradientUnits="userSpaceOnUse">
<stop stop-color="#D5E7E3"/>
<stop offset="1" stop-color="#D3E6E5"/>
</linearGradient>
<linearGradient id="paint4_linear_812_63" x1="6.53882" y1="0.858643" x2="6.53882" y2="9.39854" gradientUnits="userSpaceOnUse">
<stop stop-color="#D5E7E3"/>
<stop offset="1" stop-color="#D3E6E5"/>
</linearGradient>
<linearGradient id="paint5_linear_812_63" x1="37.4365" y1="5.64307" x2="37.4365" y2="8.96765" gradientUnits="userSpaceOnUse">
<stop stop-color="#D5E7E3"/>
<stop offset="1" stop-color="#D3E6E5"/>
</linearGradient>
<linearGradient id="paint6_linear_812_63" x1="39.9411" y1="6.12573" x2="39.9411" y2="9.39176" gradientUnits="userSpaceOnUse">
<stop stop-color="#D5E7E3"/>
<stop offset="1" stop-color="#D3E6E5"/>
</linearGradient>
<linearGradient id="paint7_linear_812_63" x1="10.6909" y1="8.80151" x2="10.6909" y2="19.3451" gradientUnits="userSpaceOnUse">
<stop stop-color="#D5E7E3"/>
<stop offset="1" stop-color="#D3E6E5"/>
</linearGradient>
<linearGradient id="paint8_linear_812_63" x1="25.7905" y1="9.177" x2="25.7905" y2="18.1955" gradientUnits="userSpaceOnUse">
<stop stop-color="#D5E7E3"/>
<stop offset="1" stop-color="#D3E6E5"/>
</linearGradient>
<linearGradient id="paint9_linear_812_63" x1="18.8364" y1="9.22388" x2="18.8364" y2="18.2102" gradientUnits="userSpaceOnUse">
<stop stop-color="#D5E7E3"/>
<stop offset="1" stop-color="#D3E6E5"/>
</linearGradient>
<linearGradient id="paint10_linear_812_63" x1="33.0161" y1="9.59155" x2="33.0161" y2="19.123" gradientUnits="userSpaceOnUse">
<stop stop-color="#D5E7E3"/>
<stop offset="1" stop-color="#D3E6E5"/>
</linearGradient>
<linearGradient id="paint11_linear_812_63" x1="40.3535" y1="10.2039" x2="40.3535" y2="20.1137" gradientUnits="userSpaceOnUse">
<stop stop-color="#D5E7E3"/>
<stop offset="1" stop-color="#D3E6E5"/>
</linearGradient>
<linearGradient id="paint12_linear_812_63" x1="2.96349" y1="10.2783" x2="2.96349" y2="19.823" gradientUnits="userSpaceOnUse">
<stop stop-color="#D5E7E3"/>
<stop offset="1" stop-color="#D3E6E5"/>
</linearGradient>
</defs>
</svg>
