<svg width="512" height="512" viewBox="0 0 512 512" fill="none" xmlns="http://www.w3.org/2000/svg">
<mask id="mask0_619_862" style="mask-type:alpha" maskUnits="userSpaceOnUse" x="26" y="0" width="459" height="512">
<path d="M228.975 24.6689L68.4909 119.464C53.4763 128.333 44.2641 144.474 44.2641 161.912V343.642C44.2641 360.568 52.9472 376.311 67.2636 385.34L227.76 486.57C243.698 496.623 263.974 496.711 279.999 486.796L444.062 385.288C458.584 376.302 467.422 360.441 467.422 343.363V162.187C467.422 144.601 458.055 128.347 442.839 119.53L278.765 24.4603C263.35 15.5282 244.315 15.608 228.975 24.6689Z" fill="#2D374B" stroke="#96BEDC" stroke-width="34.6919"/>
</mask>
<g mask="url(#mask0_619_862)">
<path d="M228.975 24.6689L68.4909 119.464C53.4763 128.333 44.2641 144.474 44.2641 161.912V343.642C44.2641 360.568 52.9472 376.311 67.2636 385.34L227.76 486.57C243.698 496.623 263.974 496.711 279.999 486.796L444.062 385.288C458.584 376.302 467.422 360.441 467.422 343.363V162.187C467.422 144.601 458.055 128.347 442.839 119.53L278.765 24.4603C263.35 15.5282 244.315 15.608 228.975 24.6689Z" fill="#21293B" stroke="#96BEDC" stroke-width="34.6919"/>
<path d="M264.801 171.673C257.161 171.482 249.51 171.66 241.87 171.597C239.52 179.472 237.216 186.826 234.723 194.656C234.113 195.931 234.113 196.249 233.198 198.48C235.028 200.711 234.637 199.968 236.552 202.305C238.077 203.899 238.077 203.899 239.906 205.492C239.979 215.331 240.223 224.706 240.102 234.545C238.135 237.597 235.065 239.982 232.645 242.679C232.572 258.497 232.687 274.309 232.589 290.128L233.323 289.799C237.772 286.446 237.467 286.446 240.102 284.534C241.431 300.47 241.431 300.151 245.017 318.725C247.99 329.254 250.611 339.902 253.359 350.493C256.143 339.915 258.74 329.259 261.719 318.736C263.994 304.613 263.689 304.932 266.635 284.534C268.872 286.446 269.177 286.446 273.306 289.773L274.122 290.202C274.093 274.352 274.146 258.515 274.093 242.671C271.672 239.972 268.603 237.597 266.635 234.551C266.513 224.697 266.562 214.833 266.635 204.987C270.702 201.349 271.311 200.393 273.141 198.48C272.836 196.887 272.531 196.249 272.226 195.612C271.817 194.337 272.026 194.975 271.921 194.656C269.359 186.85 267.318 179.459 264.801 171.673Z" fill="white"/>
<path d="M98.8984 242.479L119.113 224.395L94.9736 271.113L99.1023 284.981L61.0303 335.939L61.0303 306.913L98.8984 242.479Z" fill="#28A0F0"/>
<path d="M61.0683 299.275L93.2764 244.463L75.5809 255.737L61.0682 274.069L61.0683 299.275Z" fill="white"/>
<path d="M412.555 249.616L392.568 231.735L416.436 277.928L412.353 291.64L450.618 342.026L450.618 313.326L412.555 249.616Z" fill="#28A0F0"/>
<path d="M450.618 305.773L418.114 251.577L435.611 262.725L450.618 280.851L450.618 305.773Z" fill="white"/>
<path d="M100.003 272.769L111.81 249.646L171.339 216.683V221.603L187.575 214.716L176.259 241.774L161.992 254.074V264.405L147.725 268.833L142.313 287.036L121.158 317.047L112.302 303.271L100.003 272.769Z" fill="#28A0F0"/>
<path d="M406.526 272.714L394.68 249.613L334.956 216.682V221.597L318.668 214.716L330.02 241.749L344.334 254.037V264.359L358.648 268.782L364.078 286.968L385.302 316.951L394.186 303.188L406.526 272.714Z" fill="#28A0F0"/>
<path d="M180.054 192.36L141.188 227.29L176.118 207.119V212.531L192.845 206.136L191.861 227.29L205.144 225.815L207.604 222.371L205.144 211.055L213.016 201.708H221.38L209.08 215.483L221.38 266.157H225.315V242.05L233.187 234.178V207.119L226.791 200.232L236.631 169.237L233.187 162.35V147.098L229.743 142.671L226.791 184.981L180.054 192.36Z" fill="#28A0F0"/>
<path d="M326.613 192.323L364.992 227.116L330.499 207.024V212.415L313.981 206.044L314.953 227.116L301.836 225.646L299.407 222.216L301.836 210.945L294.063 201.634H285.804L297.95 215.355L285.804 265.83H281.918V241.817L274.145 233.977V207.024L280.46 200.163L270.744 169.291L274.145 162.43V147.239L277.545 142.828L280.46 184.972L326.613 192.323Z" fill="#28A0F0"/>
<path d="M221.75 179.939L183.868 185.843L187.312 159.768L178.456 166.656L163.697 163.212L134.179 181.415L144.51 159.768L172.061 135.661L224.702 131.233L221.75 179.939Z" fill="#28A0F0"/>
<path d="M286.387 180.089L323.154 185.96L319.812 160.027L328.406 166.878L342.731 163.452L371.381 181.557L361.353 160.027L334.614 136.052L283.522 131.648L286.387 180.089Z" fill="#28A0F0"/>
<path d="M225.315 273.019H222.363L213.016 300.467L198.748 323.097L196.781 333.429L171.198 343.76L175.134 337.365L146.599 355.076L140.203 371.803L172.182 377.215L171.198 372.787H175.134L181.529 379.675L187.433 380.659L225.807 345.236L230.991 307.363L236.631 311.062L234.171 297.779L226.791 302.207L225.315 273.019Z" fill="#28A0F0"/>
<path d="M281.99 273.819H284.924L294.215 301.111L308.397 323.613L310.353 333.885L335.781 344.158L331.869 337.799L360.231 355.409L366.588 372.041L334.803 377.422L335.781 373.02H331.869L325.512 379.868L319.644 380.846L281.501 345.626L276.348 307.968L270.743 311.646L273.188 298.438L280.523 302.841L281.99 273.819Z" fill="#28A0F0"/>
</g>
</svg>
